<?xml version="1.0" encoding="utf-8"?>
<!-- Generator: Adobe Illustrator 26.0.0, SVG Export Plug-In . SVG Version: 6.00 Build 0)  -->
<svg version="1.1" id="Capa_1" xmlns="http://www.w3.org/2000/svg" xmlns:xlink="http://www.w3.org/1999/xlink" x="0px" y="0px"
	 viewBox="0 0 640 470" style="enable-background:new 0 0 640 470;" xml:space="preserve">
<style type="text/css">
	.st0{fill:url(#SVGID_1_);}
	.st1{fill:none;stroke:#424242;stroke-width:3.6074;stroke-linecap:round;stroke-linejoin:round;stroke-miterlimit:10;}
	.st2{fill:none;stroke:#424242;stroke-width:4.9123;stroke-linecap:round;stroke-linejoin:round;stroke-miterlimit:10;}
	.st3{fill:#424242;}
	.st4{fill:#57596B;}
	.st5{fill:#FFFFFF;stroke:#FFFFFF;stroke-width:2;stroke-miterlimit:10;}
	.st6{fill:#00FFBC;}
</style>
<g>
	<linearGradient id="SVGID_1_" gradientUnits="userSpaceOnUse" x1="319.8586" y1="3.1133" x2="319.8586" y2="292.8427">
		<stop  offset="7.005675e-02" style="stop-color:#EFEFF0"/>
		<stop  offset="0.2732" style="stop-color:#E2ECED"/>
	</linearGradient>
	<path class="st0" d="M31.9,469.9h575.9c17.7,0,32.1-14.4,32.1-32.1V-0.1h-640v437.9C-0.1,455.5,14.2,469.9,31.9,469.9z"/>
	<path class="st1" d="M572.7,201.8v-9c0-6.4-5.2-11.6-11.6-11.6l0,0H556c-2.1,0-3.9-1.7-3.9-3.9l0,0v-5.2c0-6.4-5.2-11.6-11.6-11.6
		h-6.4 M536.7,201.8l10.3,10.3 M547,212.1l10.3-10.3 M547,212.1v-20.6 M541.8,160.6h-16.7c-2.1,0-3.9,1.7-3.9,3.9v59.2
		c0,2.1,1.7,3.9,3.9,3.9h43.8c2.1,0,3.9-1.7,3.9-3.9v-32.2C572.7,174.4,558.9,160.6,541.8,160.6z"/>
	<path class="st2" d="M584.4,321c3.4,1.1,5.8,4.4,5.8,8.2v16.7c0,4.4-3.3,8.2-7.7,8.5c-1.3,0.1-2.6,0.2-4,0.3v12L566.9,355
		c-5.3,0-10.5-0.2-15.6-0.6c-1.1-0.1-2.2-0.4-3.2-0.9 M584.4,321c-0.6-0.2-1.2-0.3-1.9-0.4c-10.4-0.9-20.9-0.9-31.3,0
		c-4.4,0.4-7.7,4.1-7.7,8.5v16.7c0,3.3,1.8,6.1,4.5,7.6 M584.4,321v-7.3c0-6.3-4.5-11.8-10.7-12.6c-8-1-16.2-1.6-24.3-1.6
		c-8.2,0-16.3,0.5-24.3,1.6c-6.3,0.8-10.7,6.3-10.7,12.6v24.2c0,6.3,4.5,11.8,10.7,12.6c2.2,0.3,4.5,0.5,6.8,0.8v18.3l16.2-16.2"/>
	<g>
		<g>
			<path class="st3" d="M64.4,172.8c1.5,0.5,2.7,1.5,3.7,2.9c0.8,1.1,1.3,2.4,1.5,3.7c0.3,1.3,0.4,2.6,0.4,3.8
				c0,3.1-0.6,5.7-1.7,7.8c-1.6,2.9-4,4.3-7.3,4.3h-9.3v-23H61C62.4,172.3,63.5,172.5,64.4,172.8z M56.1,176.3v15h4.2
				c2.1,0,3.6-1.1,4.5-3.4c0.5-1.2,0.7-2.7,0.7-4.4c0-2.3-0.3-4.1-1-5.4c-0.7-1.3-2.1-1.9-4.1-1.9H56.1z"/>
			<path class="st3" d="M83.6,178.7c1.1,0.5,2,1.4,2.8,2.5c0.7,1,1.1,2.2,1.3,3.5c0.1,0.8,0.2,1.9,0.1,3.4H76.2
				c0.1,1.7,0.6,2.9,1.7,3.6c0.6,0.4,1.4,0.6,2.3,0.6c1,0,1.7-0.3,2.3-0.8c0.3-0.3,0.6-0.7,0.9-1.2h4.3c-0.1,1-0.6,2-1.6,3.1
				c-1.4,1.7-3.4,2.5-6,2.5c-2.1,0-4-0.7-5.6-2.1c-1.6-1.4-2.4-3.7-2.4-6.8c0-3,0.7-5.2,2.2-6.8c1.5-1.6,3.4-2.4,5.7-2.4
				C81.3,177.9,82.5,178.1,83.6,178.7z M77.4,182.5c-0.6,0.6-1,1.5-1.1,2.6h7.2c-0.1-1.2-0.4-2.1-1.1-2.7c-0.7-0.6-1.5-0.9-2.5-0.9
				C78.8,181.5,78,181.9,77.4,182.5z"/>
			<path class="st3" d="M93.3,189.9c0.1,0.8,0.3,1.4,0.6,1.7c0.5,0.6,1.5,0.9,2.9,0.9c0.8,0,1.5-0.1,2-0.4c0.5-0.3,0.7-0.7,0.7-1.2
				c0-0.5-0.2-0.9-0.6-1.1c-0.4-0.3-1.9-0.7-4.4-1.3c-1.8-0.5-3.1-1.1-3.8-1.8c-0.7-0.7-1.1-1.7-1.1-3.1c0-1.6,0.6-2.9,1.7-4.1
				c1.2-1.1,2.8-1.7,4.9-1.7c2,0,3.6,0.4,4.9,1.3c1.3,0.8,2,2.3,2.2,4.4h-4.2c-0.1-0.6-0.2-1-0.5-1.4c-0.5-0.6-1.2-0.9-2.4-0.9
				c-0.9,0-1.6,0.2-2,0.5c-0.4,0.3-0.6,0.7-0.6,1.1c0,0.5,0.2,0.9,0.6,1.1c0.4,0.2,1.9,0.7,4.4,1.2c1.7,0.4,2.9,1,3.8,1.9
				c0.8,0.9,1.2,1.9,1.2,3.2c0,1.7-0.6,3.1-1.8,4.1c-1.2,1.1-3,1.6-5.5,1.6c-2.5,0-4.4-0.6-5.6-1.7c-1.2-1.1-1.8-2.6-1.8-4.3H93.3z"
				/>
			<path class="st3" d="M116.5,184.4c-0.1-0.6-0.3-1.2-0.6-1.7c-0.5-0.7-1.2-1-2.2-1c-1.4,0-2.4,0.7-2.9,2.2
				c-0.3,0.8-0.4,1.8-0.4,3.1c0,1.2,0.1,2.2,0.4,3c0.5,1.4,1.4,2.1,2.8,2.1c1,0,1.7-0.3,2.1-0.8s0.7-1.3,0.8-2.2h4.3
				c-0.1,1.4-0.6,2.6-1.4,3.8c-1.3,1.9-3.3,2.9-5.8,2.9s-4.5-0.8-5.7-2.4c-1.2-1.6-1.8-3.7-1.8-6.3c0-2.9,0.7-5.2,2-6.8
				s3.2-2.4,5.6-2.4c2,0,3.7,0.5,4.9,1.4c1.3,1,2,2.7,2.3,5.1H116.5z"/>
			<path class="st3" d="M130.1,185c0.8-0.1,1.3-0.2,1.7-0.4c0.6-0.3,0.9-0.7,0.9-1.3c0-0.7-0.2-1.2-0.7-1.4c-0.5-0.3-1.1-0.4-2-0.4
				c-1,0-1.7,0.3-2.1,0.8c-0.3,0.4-0.5,0.9-0.6,1.6h-4c0.1-1.5,0.5-2.7,1.2-3.7c1.1-1.5,3-2.2,5.7-2.2c1.8,0,3.3,0.4,4.7,1.1
				c1.4,0.7,2.1,2.1,2.1,4.2v7.8c0,0.5,0,1.2,0,2c0,0.6,0.1,1,0.2,1.2c0.1,0.2,0.3,0.4,0.6,0.5v0.7h-4.6c-0.1-0.3-0.2-0.7-0.3-1
				c0-0.3-0.1-0.6-0.1-1c-0.6,0.7-1.3,1.2-2,1.7c-0.9,0.6-1.9,0.8-3.1,0.8c-1.5,0-2.7-0.4-3.6-1.3s-1.4-2.1-1.4-3.7
				c0-2.1,0.8-3.6,2.3-4.5c0.8-0.5,2.1-0.9,3.7-1.1L130.1,185z M132.7,187.1c-0.3,0.2-0.5,0.3-0.8,0.4c-0.3,0.1-0.6,0.2-1.1,0.3
				l-1,0.2c-0.9,0.2-1.5,0.4-1.9,0.6c-0.7,0.4-1,1-1,1.9c0,0.8,0.2,1.3,0.6,1.6c0.4,0.3,0.9,0.5,1.5,0.5c0.9,0,1.8-0.3,2.5-0.8
				s1.2-1.6,1.2-3.1V187.1z"/>
			<path class="st3" d="M149.5,177.9c0.1,0,0.2,0,0.4,0v4.6c-0.3,0-0.5-0.1-0.7-0.1c-0.2,0-0.4,0-0.5,0c-1.7,0-2.8,0.6-3.4,1.8
				c-0.3,0.7-0.5,1.7-0.5,3v8.1h-4.2v-17h4v3c0.6-1.1,1.2-1.9,1.7-2.3c0.8-0.7,1.8-1,3.1-1C149.4,177.9,149.4,177.9,149.5,177.9z"/>
			<path class="st3" d="M160.4,178.3c1,0.4,1.8,1.3,2.5,2.5v-2.5h4.1v16.2c0,2.2-0.3,3.9-1,5c-1.2,1.9-3.5,2.9-6.9,2.9
				c-2,0-3.7-0.4-5-1.3c-1.3-0.9-2-2.1-2.1-3.8h4.6c0.1,0.5,0.3,0.9,0.6,1.1c0.5,0.4,1.2,0.6,2.3,0.6c1.5,0,2.5-0.5,3-1.6
				c0.3-0.7,0.5-1.8,0.5-3.5v-1.1c-0.4,0.7-0.8,1.3-1.3,1.6c-0.8,0.7-1.9,1-3.2,1c-2.1,0-3.7-0.8-4.9-2.3c-1.2-1.5-1.8-3.6-1.8-6.2
				c0-2.5,0.6-4.7,1.8-6.4c1.2-1.7,2.9-2.6,5-2.6C159.1,177.9,159.8,178.1,160.4,178.3z M161.8,190.5c0.7-0.8,1-2,1-3.8
				c0-1.6-0.3-2.8-1-3.7s-1.5-1.3-2.6-1.3c-1.5,0-2.5,0.7-3,2.2c-0.3,0.8-0.4,1.7-0.4,2.9c0,1,0.2,1.9,0.5,2.6
				c0.6,1.4,1.6,2.2,3,2.2C160.3,191.7,161.1,191.3,161.8,190.5z"/>
			<path class="st3" d="M177.3,185c0.8-0.1,1.3-0.2,1.7-0.4c0.6-0.3,0.9-0.7,0.9-1.3c0-0.7-0.2-1.2-0.7-1.4c-0.5-0.3-1.1-0.4-2-0.4
				c-1,0-1.7,0.3-2.1,0.8c-0.3,0.4-0.5,0.9-0.6,1.6h-4c0.1-1.5,0.5-2.7,1.2-3.7c1.1-1.5,3-2.2,5.7-2.2c1.8,0,3.3,0.4,4.7,1.1
				c1.4,0.7,2.1,2.1,2.1,4.2v7.8c0,0.5,0,1.2,0,2c0,0.6,0.1,1,0.2,1.2c0.1,0.2,0.3,0.4,0.6,0.5v0.7h-4.6c-0.1-0.3-0.2-0.7-0.3-1
				c0-0.3-0.1-0.6-0.1-1c-0.6,0.7-1.3,1.2-2,1.7c-0.9,0.6-1.9,0.8-3.1,0.8c-1.5,0-2.7-0.4-3.6-1.3s-1.4-2.1-1.4-3.7
				c0-2.1,0.8-3.6,2.3-4.5c0.8-0.5,2.1-0.9,3.7-1.1L177.3,185z M179.8,187.1c-0.3,0.2-0.5,0.3-0.8,0.4c-0.3,0.1-0.6,0.2-1.1,0.3
				l-1,0.2c-0.9,0.2-1.5,0.4-1.9,0.6c-0.7,0.4-1,1-1,1.9c0,0.8,0.2,1.3,0.6,1.6c0.4,0.3,0.9,0.5,1.5,0.5c0.9,0,1.8-0.3,2.5-0.8
				s1.2-1.6,1.2-3.1V187.1z"/>
			<path class="st3" d="M196.7,177.9c0.1,0,0.2,0,0.4,0v4.6c-0.3,0-0.5-0.1-0.7-0.1c-0.2,0-0.4,0-0.5,0c-1.7,0-2.8,0.6-3.4,1.8
				c-0.3,0.7-0.5,1.7-0.5,3v8.1h-4.2v-17h4v3c0.6-1.1,1.2-1.9,1.7-2.3c0.8-0.7,1.8-1,3.1-1C196.5,177.9,196.6,177.9,196.7,177.9z"/>
			<path class="st3" d="M217.7,184.4c-0.1-0.6-0.3-1.2-0.6-1.7c-0.5-0.7-1.2-1-2.2-1c-1.4,0-2.4,0.7-2.9,2.2
				c-0.3,0.8-0.4,1.8-0.4,3.1c0,1.2,0.1,2.2,0.4,3c0.5,1.4,1.4,2.1,2.8,2.1c1,0,1.7-0.3,2.1-0.8s0.7-1.3,0.8-2.2h4.3
				c-0.1,1.4-0.6,2.6-1.4,3.8c-1.3,1.9-3.3,2.9-5.8,2.9s-4.5-0.8-5.7-2.4c-1.2-1.6-1.8-3.7-1.8-6.3c0-2.9,0.7-5.2,2-6.8
				s3.2-2.4,5.6-2.4c2,0,3.7,0.5,4.9,1.4c1.3,1,2,2.7,2.3,5.1H217.7z"/>
			<path class="st3" d="M238.3,193.3c-1.4,1.8-3.4,2.7-6.2,2.7c-2.8,0-4.8-0.9-6.2-2.7c-1.4-1.8-2-3.9-2-6.4c0-2.5,0.7-4.6,2-6.4
				s3.4-2.7,6.2-2.7c2.8,0,4.8,0.9,6.2,2.7c1.4,1.8,2,3.9,2,6.4C240.3,189.4,239.6,191.5,238.3,193.3z M234.9,190.8
				c0.7-0.9,1-2.2,1-3.9s-0.3-3-1-3.9c-0.7-0.9-1.6-1.4-2.8-1.4c-1.2,0-2.2,0.5-2.8,1.4c-0.7,0.9-1,2.2-1,3.9s0.3,3,1,3.9
				c0.7,0.9,1.6,1.4,2.8,1.4C233.3,192.2,234.3,191.7,234.9,190.8z"/>
			<path class="st3" d="M246.7,189.9c0.1,0.8,0.3,1.4,0.6,1.7c0.5,0.6,1.5,0.9,2.9,0.9c0.8,0,1.5-0.1,2-0.4c0.5-0.3,0.7-0.7,0.7-1.2
				c0-0.5-0.2-0.9-0.6-1.1c-0.4-0.3-1.9-0.7-4.4-1.3c-1.8-0.5-3.1-1.1-3.8-1.8c-0.7-0.7-1.1-1.7-1.1-3.1c0-1.6,0.6-2.9,1.7-4.1
				c1.2-1.1,2.8-1.7,4.9-1.7c2,0,3.6,0.4,4.9,1.3c1.3,0.8,2,2.3,2.2,4.4h-4.2c-0.1-0.6-0.2-1-0.5-1.4c-0.5-0.6-1.2-0.9-2.4-0.9
				c-0.9,0-1.6,0.2-2,0.5c-0.4,0.3-0.6,0.7-0.6,1.1c0,0.5,0.2,0.9,0.6,1.1c0.4,0.2,1.9,0.7,4.4,1.2c1.7,0.4,2.9,1,3.8,1.9
				c0.8,0.9,1.2,1.9,1.2,3.2c0,1.7-0.6,3.1-1.8,4.1c-1.2,1.1-3,1.6-5.5,1.6c-2.5,0-4.4-0.6-5.6-1.7c-1.2-1.1-1.8-2.6-1.8-4.3H246.7z
				"/>
			<path class="st3" d="M258.6,181.7v-3.2h2.2v-4.8h4.1v4.8h2.6v3.2H265v9c0,0.7,0.1,1.1,0.2,1.3c0.2,0.2,0.7,0.3,1.5,0.3
				c0.1,0,0.3,0,0.4,0c0.1,0,0.3,0,0.4,0v3.3l-2,0.1c-2,0.1-3.3-0.3-4.1-1.1c-0.5-0.5-0.7-1.3-0.7-2.4v-10.5H258.6z"/>
			<path class="st3" d="M283.8,193.3c-1.4,1.8-3.4,2.7-6.2,2.7c-2.8,0-4.8-0.9-6.2-2.7c-1.4-1.8-2-3.9-2-6.4c0-2.5,0.7-4.6,2-6.4
				s3.4-2.7,6.2-2.7c2.8,0,4.8,0.9,6.2,2.7c1.4,1.8,2,3.9,2,6.4C285.8,189.4,285.1,191.5,283.8,193.3z M280.4,190.8
				c0.7-0.9,1-2.2,1-3.9s-0.3-3-1-3.9c-0.7-0.9-1.6-1.4-2.8-1.4c-1.2,0-2.2,0.5-2.8,1.4c-0.7,0.9-1,2.2-1,3.9s0.3,3,1,3.9
				c0.7,0.9,1.6,1.4,2.8,1.4C278.8,192.2,279.8,191.7,280.4,190.8z"/>
			<path class="st3" d="M292.1,189.9c0.1,0.8,0.3,1.4,0.6,1.7c0.5,0.6,1.5,0.9,2.9,0.9c0.8,0,1.5-0.1,2-0.4c0.5-0.3,0.7-0.7,0.7-1.2
				c0-0.5-0.2-0.9-0.6-1.1c-0.4-0.3-1.9-0.7-4.4-1.3c-1.8-0.5-3.1-1.1-3.8-1.8c-0.7-0.7-1.1-1.7-1.1-3.1c0-1.6,0.6-2.9,1.7-4.1
				c1.2-1.1,2.8-1.7,4.9-1.7c2,0,3.6,0.4,4.9,1.3c1.3,0.8,2,2.3,2.2,4.4h-4.2c-0.1-0.6-0.2-1-0.5-1.4c-0.5-0.6-1.2-0.9-2.4-0.9
				c-0.9,0-1.6,0.2-2,0.5c-0.4,0.3-0.6,0.7-0.6,1.1c0,0.5,0.2,0.9,0.6,1.1c0.4,0.2,1.9,0.7,4.4,1.2c1.7,0.4,2.9,1,3.8,1.9
				c0.8,0.9,1.2,1.9,1.2,3.2c0,1.7-0.6,3.1-1.8,4.1c-1.2,1.1-3,1.6-5.5,1.6c-2.5,0-4.4-0.6-5.6-1.7c-1.2-1.1-1.8-2.6-1.8-4.3H292.1z
				"/>
			<path class="st3" d="M314,191.7c0.5-1.2,1.8-2.5,3.7-3.9c1.7-1.2,2.8-2.1,3.3-2.6c0.8-0.8,1.1-1.7,1.1-2.6c0-0.8-0.2-1.4-0.7-1.9
				c-0.4-0.5-1.1-0.8-1.9-0.8c-1.1,0-1.9,0.4-2.3,1.2c-0.2,0.5-0.4,1.2-0.4,2.3h-3.6c0.1-1.6,0.3-2.8,0.9-3.8c1-1.8,2.7-2.8,5.2-2.8
				c2,0,3.5,0.5,4.7,1.6s1.8,2.5,1.8,4.3c0,1.4-0.4,2.6-1.2,3.6c-0.5,0.7-1.4,1.5-2.7,2.4l-1.5,1c-0.9,0.6-1.5,1.1-1.9,1.4
				c-0.3,0.3-0.6,0.6-0.9,1h8.1v3.2h-12.8C313.1,194,313.4,192.8,314,191.7z"/>
			<path class="st3" d="M339.3,179.3c1,1.7,1.4,4,1.4,7s-0.5,5.4-1.4,7s-2.6,2.5-5,2.5s-4-0.8-5-2.5s-1.4-4-1.4-7s0.5-5.4,1.4-7
				c1-1.7,2.6-2.5,5-2.5S338.3,177.6,339.3,179.3z M332.1,191.2c0.4,1.1,1.1,1.7,2.2,1.7s1.8-0.6,2.1-1.7s0.5-2.7,0.5-4.9
				c0-2.2-0.2-3.9-0.5-4.9s-1.1-1.6-2.1-1.6s-1.8,0.5-2.2,1.6s-0.5,2.7-0.5,4.9C331.6,188.4,331.8,190.1,332.1,191.2z"/>
			<path class="st3" d="M343.4,191.7c0.5-1.2,1.8-2.5,3.7-3.9c1.7-1.2,2.8-2.1,3.3-2.6c0.8-0.8,1.1-1.7,1.1-2.6
				c0-0.8-0.2-1.4-0.7-1.9c-0.4-0.5-1.1-0.8-1.9-0.8c-1.1,0-1.9,0.4-2.3,1.2c-0.2,0.5-0.4,1.2-0.4,2.3h-3.6c0.1-1.6,0.3-2.8,0.9-3.8
				c1-1.8,2.7-2.8,5.2-2.8c2,0,3.5,0.5,4.7,1.6s1.8,2.5,1.8,4.3c0,1.4-0.4,2.6-1.2,3.6c-0.5,0.7-1.4,1.5-2.7,2.4l-1.5,1
				c-0.9,0.6-1.5,1.1-1.9,1.4c-0.3,0.3-0.6,0.6-0.9,1h8.1v3.2h-12.8C342.6,194,342.9,192.8,343.4,191.7z"/>
			<path class="st3" d="M366.2,181.6c0-0.3-0.1-0.6-0.3-1c-0.4-0.6-1-0.9-1.8-0.9c-1.2,0-2,0.7-2.5,2c-0.3,0.7-0.5,1.8-0.6,3.2
				c0.5-0.5,1-0.9,1.6-1.2c0.6-0.2,1.3-0.4,2.1-0.4c1.7,0,3,0.6,4.1,1.7s1.6,2.5,1.6,4.3c0,1.7-0.5,3.2-1.6,4.6c-1,1.3-2.6,2-4.8,2
				c-2.3,0-4.1-1-5.2-2.9c-0.9-1.5-1.3-3.5-1.3-5.9c0-1.4,0.1-2.6,0.2-3.4c0.2-1.6,0.6-2.9,1.2-3.9c0.5-0.9,1.2-1.6,2.1-2.1
				c0.9-0.5,1.9-0.8,3.1-0.8c1.7,0,3.1,0.4,4.1,1.3c1,0.9,1.6,2,1.7,3.5H366.2z M361.8,192c0.5,0.6,1.2,0.9,2.1,0.9
				c0.8,0,1.5-0.3,1.9-0.9c0.5-0.6,0.7-1.4,0.7-2.4c0-1.1-0.3-1.9-0.8-2.5c-0.5-0.6-1.2-0.9-2-0.9c-0.6,0-1.2,0.2-1.7,0.6
				c-0.7,0.6-1.1,1.4-1.1,2.7C361,190.5,361.3,191.3,361.8,192z"/>
			<path class="st4" d="M51.8,208.6h8.9c1.8,0,3.2,0.5,4.3,1.6c1.1,1.1,1.6,2.6,1.6,4.5c0,1.7-0.5,3.1-1.4,4.4
				c-1,1.2-2.4,1.9-4.4,1.9h-6.2v9.1h-2.7V208.6z M62.2,211.6c-0.6-0.3-1.4-0.5-2.4-0.5h-5.3v7.5h5.3c1.2,0,2.2-0.3,2.9-0.8
				c0.8-0.6,1.1-1.5,1.1-2.9C63.8,213.2,63.3,212.2,62.2,211.6z"/>
			<path class="st4" d="M69.9,214.5h2.3v2.7c0.2-0.5,0.7-1.2,1.4-1.9c0.7-0.8,1.6-1.1,2.5-1.1c0,0,0.1,0,0.2,0c0.1,0,0.3,0,0.6,0.1
				v2.8c-0.1,0-0.3,0-0.4-0.1c-0.1,0-0.3,0-0.4,0c-1.2,0-2.2,0.4-2.8,1.3c-0.7,0.9-1,1.8-1,3v9h-2.4V214.5z"/>
			<path class="st4" d="M88.3,214.9c1,0.5,1.7,1.2,2.2,2c0.5,0.8,0.8,1.7,1,2.8c0.1,0.7,0.2,1.9,0.2,3.5H81.1c0,1.6,0.4,2.9,1,3.8
				c0.6,1,1.6,1.4,3,1.4c1.3,0,2.3-0.5,3-1.4c0.4-0.5,0.7-1.1,0.9-1.8h2.4c-0.1,0.6-0.3,1.2-0.6,1.9c-0.4,0.7-0.8,1.3-1.2,1.7
				c-0.7,0.8-1.6,1.3-2.7,1.6c-0.6,0.2-1.2,0.2-2,0.2c-1.8,0-3.3-0.7-4.6-2.1c-1.2-1.4-1.9-3.4-1.9-6c0-2.5,0.6-4.6,1.9-6.1
				c1.3-1.6,2.9-2.4,4.9-2.4C86.4,214.1,87.4,214.4,88.3,214.9z M89.2,221.1c-0.1-1.1-0.3-2.1-0.7-2.7c-0.7-1.3-1.8-1.9-3.3-1.9
				c-1.1,0-2,0.4-2.8,1.3c-0.8,0.9-1.2,2-1.2,3.3H89.2z"/>
			<path class="st4" d="M104.5,215.3c1,0.9,1.6,2.3,1.8,4.4H104c-0.1-1-0.5-1.8-1-2.4c-0.5-0.6-1.3-1-2.5-1c-1.5,0-2.7,0.8-3.3,2.5
				c-0.4,1.1-0.6,2.4-0.6,3.9c0,1.6,0.3,2.9,0.9,4s1.6,1.6,2.9,1.6c1,0,1.8-0.3,2.4-1c0.6-0.7,1-1.6,1.2-2.7h2.4
				c-0.3,2.1-0.9,3.6-2,4.6s-2.5,1.4-4.1,1.4c-1.9,0-3.4-0.7-4.5-2.2c-1.1-1.5-1.7-3.4-1.7-5.6c0-2.8,0.6-4.9,1.8-6.4
				c1.2-1.5,2.8-2.3,4.7-2.3C102.2,214,103.5,214.5,104.5,215.3z"/>
			<path class="st4" d="M109,208.6h2.5v3H109V208.6z M109,214.6h2.5v15.6H109V214.6z"/>
			<path class="st4" d="M126,216c1.3,1.3,1.9,3.3,1.9,5.9c0,2.5-0.6,4.6-1.7,6.3s-2.9,2.5-5.3,2.5c-2,0-3.6-0.7-4.7-2.2
				c-1.2-1.5-1.8-3.4-1.8-5.9c0-2.6,0.6-4.7,1.8-6.3c1.2-1.6,2.9-2.3,5-2.3C123.1,214,124.7,214.7,126,216z M124.5,226.5
				c0.6-1.3,0.9-2.8,0.9-4.4c0-1.5-0.2-2.7-0.6-3.6c-0.7-1.4-1.9-2.2-3.5-2.2c-1.5,0-2.6,0.6-3.2,1.8s-1,2.7-1,4.5
				c0,1.7,0.3,3.1,1,4.2s1.7,1.7,3.2,1.7C122.8,228.5,123.9,227.8,124.5,226.5z"/>
			<path class="st4" d="M132.5,225.2c0.1,0.9,0.3,1.6,0.6,2c0.6,0.8,1.7,1.3,3.2,1.3c0.9,0,1.7-0.2,2.4-0.6c0.7-0.4,1-1.1,1-2
				c0-0.7-0.3-1.2-0.8-1.5c-0.4-0.2-1-0.5-2.1-0.7l-1.9-0.5c-1.2-0.3-2.1-0.7-2.7-1.1c-1-0.7-1.6-1.7-1.6-3c0-1.5,0.5-2.7,1.5-3.6
				c1-0.9,2.3-1.4,4-1.4c2.2,0,3.7,0.7,4.7,2.1c0.6,0.9,0.9,1.8,0.9,2.8h-2.3c0-0.6-0.2-1.1-0.6-1.6c-0.6-0.7-1.5-1-2.9-1
				c-0.9,0-1.6,0.2-2.1,0.6s-0.7,0.9-0.7,1.5c0,0.7,0.3,1.2,0.9,1.6c0.4,0.2,0.9,0.5,1.6,0.6l1.6,0.4c1.7,0.5,2.9,0.9,3.5,1.3
				c0.9,0.7,1.4,1.7,1.4,3.2c0,1.4-0.5,2.6-1.5,3.6c-1,1-2.5,1.5-4.5,1.5c-2.1,0-3.7-0.5-4.6-1.6c-0.9-1.1-1.4-2.4-1.4-3.9H132.5z"
				/>
			<path class="st4" d="M152.9,214.6h2.4v2.1c0.5-0.7,1-1.3,1.6-1.7c0.8-0.6,1.8-0.9,2.9-0.9c1.6,0,3,0.7,4.2,2
				c1.1,1.4,1.7,3.3,1.7,5.8c0,3.4-0.8,5.9-2.5,7.3c-1,0.9-2.3,1.4-3.6,1.4c-1.1,0-2-0.3-2.7-0.8c-0.4-0.3-0.9-0.8-1.4-1.5v8h-2.4
				V214.6z M162,226.8c0.8-1,1.1-2.6,1.1-4.6c0-1.2-0.2-2.3-0.5-3.2c-0.6-1.7-1.8-2.6-3.5-2.6c-1.7,0-2.8,0.9-3.5,2.7
				c-0.3,1-0.5,2.2-0.5,3.7c0,1.2,0.2,2.2,0.5,3.1c0.6,1.6,1.8,2.4,3.5,2.4C160.3,228.4,161.3,227.9,162,226.8z"/>
			<path class="st4" d="M168.8,214.5h2.3v2.7c0.2-0.5,0.7-1.2,1.4-1.9c0.7-0.8,1.6-1.1,2.5-1.1c0,0,0.1,0,0.2,0c0.1,0,0.3,0,0.6,0.1
				v2.8c-0.1,0-0.3,0-0.4-0.1c-0.1,0-0.3,0-0.4,0c-1.2,0-2.2,0.4-2.8,1.3c-0.7,0.9-1,1.8-1,3v9h-2.4V214.5z"/>
			<path class="st4" d="M188.7,216c1.3,1.3,1.9,3.3,1.9,5.9c0,2.5-0.6,4.6-1.7,6.3s-2.9,2.5-5.3,2.5c-2,0-3.6-0.7-4.7-2.2
				c-1.2-1.5-1.8-3.4-1.8-5.9c0-2.6,0.6-4.7,1.8-6.3c1.2-1.6,2.9-2.3,5-2.3C185.9,214,187.4,214.7,188.7,216z M187.2,226.5
				c0.6-1.3,0.9-2.8,0.9-4.4c0-1.5-0.2-2.7-0.6-3.6c-0.7-1.4-1.9-2.2-3.5-2.2c-1.5,0-2.6,0.6-3.2,1.8s-1,2.7-1,4.5
				c0,1.7,0.3,3.1,1,4.2s1.7,1.7,3.2,1.7C185.5,228.5,186.6,227.8,187.2,226.5z"/>
			<path class="st4" d="M193.8,214.5h2.4v2.2c0.6-0.8,1.1-1.3,1.6-1.7c0.8-0.6,1.7-0.9,2.7-0.9c1.2,0,2.1,0.3,2.8,0.9
				c0.4,0.4,0.8,0.9,1.1,1.6c0.5-0.8,1.2-1.5,1.9-1.9s1.5-0.6,2.5-0.6c1.9,0,3.3,0.8,4,2.3c0.4,0.8,0.6,1.9,0.6,3.3v10.4h-2.5v-10.9
				c0-1-0.2-1.8-0.7-2.2c-0.5-0.4-1.1-0.6-1.8-0.6c-1,0-1.8,0.3-2.5,1s-1,1.9-1,3.5v9.1h-2.5v-10.2c0-1.1-0.1-1.8-0.4-2.3
				c-0.4-0.7-1.1-1.1-2.1-1.1c-0.9,0-1.8,0.4-2.5,1.2s-1.1,2.2-1.1,4.2v8.3h-2.4V214.5z"/>
			<path class="st4" d="M227.6,216c1.3,1.3,1.9,3.3,1.9,5.9c0,2.5-0.6,4.6-1.7,6.3s-2.9,2.5-5.3,2.5c-2,0-3.6-0.7-4.7-2.2
				c-1.2-1.5-1.8-3.4-1.8-5.9c0-2.6,0.6-4.7,1.8-6.3c1.2-1.6,2.9-2.3,5-2.3C224.8,214,226.3,214.7,227.6,216z M226.1,226.5
				c0.6-1.3,0.9-2.8,0.9-4.4c0-1.5-0.2-2.7-0.6-3.6c-0.7-1.4-1.9-2.2-3.5-2.2c-1.5,0-2.6,0.6-3.2,1.8s-1,2.7-1,4.5
				c0,1.7,0.3,3.1,1,4.2s1.7,1.7,3.2,1.7C224.4,228.5,225.5,227.8,226.1,226.5z"/>
			<path class="st4" d="M242.2,215.3c1,0.9,1.6,2.3,1.8,4.4h-2.4c-0.1-1-0.5-1.8-1-2.4c-0.5-0.6-1.3-1-2.5-1c-1.5,0-2.7,0.8-3.3,2.5
				c-0.4,1.1-0.6,2.4-0.6,3.9c0,1.6,0.3,2.9,0.9,4s1.6,1.6,2.9,1.6c1,0,1.8-0.3,2.4-1c0.6-0.7,1-1.6,1.2-2.7h2.4
				c-0.3,2.1-0.9,3.6-2,4.6s-2.5,1.4-4.1,1.4c-1.9,0-3.4-0.7-4.5-2.2c-1.1-1.5-1.7-3.4-1.7-5.6c0-2.8,0.6-4.9,1.8-6.4
				c1.2-1.5,2.8-2.3,4.7-2.3C239.9,214,241.2,214.5,242.2,215.3z"/>
			<path class="st4" d="M246.8,208.6h2.5v3h-2.5V208.6z M246.8,214.6h2.5v15.6h-2.5V214.6z"/>
			<path class="st4" d="M263.7,216c1.3,1.3,1.9,3.3,1.9,5.9c0,2.5-0.6,4.6-1.7,6.3s-2.9,2.5-5.3,2.5c-2,0-3.6-0.7-4.7-2.2
				c-1.2-1.5-1.8-3.4-1.8-5.9c0-2.6,0.6-4.7,1.8-6.3c1.2-1.6,2.9-2.3,5-2.3C260.9,214,262.4,214.7,263.7,216z M262.2,226.5
				c0.6-1.3,0.9-2.8,0.9-4.4c0-1.5-0.2-2.7-0.6-3.6c-0.7-1.4-1.9-2.2-3.5-2.2c-1.5,0-2.6,0.6-3.2,1.8s-1,2.7-1,4.5
				c0,1.7,0.3,3.1,1,4.2s1.7,1.7,3.2,1.7C260.5,228.5,261.6,227.8,262.2,226.5z"/>
			<path class="st4" d="M268.8,214.5h2.3v2.2c0.7-0.9,1.4-1.6,2.2-2s1.6-0.6,2.5-0.6c2,0,3.4,0.8,4.2,2.3c0.4,0.8,0.6,2.1,0.6,3.6
				v10.1h-2.5v-9.9c0-1-0.1-1.7-0.4-2.3c-0.4-1-1.2-1.5-2.3-1.5c-0.6,0-1,0.1-1.4,0.2c-0.7,0.2-1.2,0.6-1.8,1.3
				c-0.4,0.5-0.7,1.1-0.8,1.6c-0.1,0.6-0.2,1.3-0.2,2.4v8.2h-2.4V214.5z"/>
			<path class="st4" d="M292.2,220.7c0.6-0.1,0.9-0.3,1.1-0.8c0.1-0.2,0.2-0.6,0.2-1c0-0.9-0.3-1.5-0.9-2c-0.6-0.4-1.4-0.6-2.5-0.6
				c-1.3,0-2.2,0.4-2.7,1.1c-0.3,0.4-0.5,1-0.6,1.8h-2.3c0-1.9,0.6-3.3,1.7-4s2.4-1.1,3.9-1.1c1.7,0,3.1,0.4,4.1,1.1
				c1.1,0.7,1.6,1.8,1.6,3.3v9c0,0.3,0.1,0.5,0.2,0.7c0.1,0.2,0.3,0.2,0.7,0.2c0.1,0,0.2,0,0.4,0c0.1,0,0.3,0,0.4-0.1v1.9
				c-0.4,0.1-0.7,0.2-0.9,0.2c-0.2,0-0.5,0-0.8,0c-0.8,0-1.4-0.3-1.8-1c-0.2-0.3-0.3-0.8-0.4-1.5c-0.5,0.7-1.2,1.3-2.1,1.8
				c-0.9,0.5-1.9,0.8-3.1,0.8c-1.3,0-2.4-0.4-3.3-1.3c-0.8-0.9-1.3-2-1.3-3.3c0-1.5,0.4-2.6,1.3-3.4s1.9-1.3,3.3-1.5L292.2,220.7z
				 M287.1,227.8c0.5,0.4,1.1,0.7,1.8,0.7c0.9,0,1.7-0.2,2.5-0.6c1.3-0.7,2-1.9,2-3.5v-2.1c-0.3,0.2-0.7,0.4-1.1,0.5
				c-0.5,0.1-0.9,0.2-1.4,0.3l-1.5,0.2c-0.9,0.1-1.5,0.3-2,0.6c-0.7,0.5-1.1,1.2-1.1,2.2C286.3,226.8,286.6,227.4,287.1,227.8z"/>
			<path class="st4" d="M300.1,208.6h2.4v21.5h-2.4V208.6z"/>
			<path class="st4" d="M315.5,214.9c1,0.5,1.7,1.2,2.2,2c0.5,0.8,0.8,1.7,1,2.8c0.1,0.7,0.2,1.9,0.2,3.5h-10.6c0,1.6,0.4,2.9,1,3.8
				c0.6,1,1.6,1.4,3,1.4c1.3,0,2.3-0.5,3-1.4c0.4-0.5,0.7-1.1,0.9-1.8h2.4c-0.1,0.6-0.3,1.2-0.6,1.9c-0.4,0.7-0.8,1.3-1.2,1.7
				c-0.7,0.8-1.6,1.3-2.7,1.6c-0.6,0.2-1.2,0.2-2,0.2c-1.8,0-3.3-0.7-4.6-2.1c-1.2-1.4-1.9-3.4-1.9-6c0-2.5,0.6-4.6,1.9-6.1
				c1.3-1.6,2.9-2.4,4.9-2.4C313.5,214.1,314.5,214.4,315.5,214.9z M316.4,221.1c-0.1-1.1-0.3-2.1-0.7-2.7c-0.7-1.3-1.8-1.9-3.3-1.9
				c-1.1,0-2,0.4-2.8,1.3c-0.8,0.9-1.2,2-1.2,3.3H316.4z"/>
			<path class="st4" d="M323.5,225.2c0.1,0.9,0.3,1.6,0.6,2c0.6,0.8,1.7,1.3,3.2,1.3c0.9,0,1.7-0.2,2.4-0.6c0.7-0.4,1-1.1,1-2
				c0-0.7-0.3-1.2-0.8-1.5c-0.3-0.2-1-0.5-2.1-0.7l-1.9-0.5c-1.2-0.3-2.1-0.7-2.7-1.1c-1-0.7-1.6-1.7-1.6-3c0-1.5,0.5-2.7,1.5-3.6
				s2.3-1.4,4-1.4c2.2,0,3.7,0.7,4.7,2.1c0.6,0.9,0.9,1.8,0.9,2.8h-2.3c0-0.6-0.2-1.1-0.6-1.6c-0.6-0.7-1.5-1-2.9-1
				c-0.9,0-1.6,0.2-2.1,0.6c-0.5,0.4-0.7,0.9-0.7,1.5c0,0.7,0.3,1.2,0.9,1.6c0.4,0.2,0.9,0.5,1.6,0.6l1.6,0.4
				c1.7,0.5,2.9,0.9,3.5,1.3c0.9,0.7,1.4,1.7,1.4,3.2c0,1.4-0.5,2.6-1.5,3.6c-1,1-2.5,1.5-4.5,1.5c-2.1,0-3.7-0.5-4.6-1.6
				c-0.9-1.1-1.4-2.4-1.4-3.9H323.5z"/>
			<path class="st3" d="M67.7,291.4H56.3v4.9h10.5v4H56.3v5.9h12v4.1H51.8v-23h15.9V291.4z"/>
			<path class="st3" d="M84.5,294.3c1,0.9,1.6,2.5,1.6,4.6v11.5h-4.3V300c0-0.9-0.1-1.6-0.3-2.1c-0.4-0.9-1.2-1.3-2.3-1.3
				c-1.4,0-2.4,0.6-2.9,1.9c-0.3,0.7-0.4,1.5-0.4,2.6v9.2h-4.2v-17h4.1v2.5c0.5-0.9,1-1.5,1.5-1.9c0.9-0.7,1.9-1,3.3-1
				C82.1,292.9,83.4,293.4,84.5,294.3z"/>
			<path class="st3" d="M99.9,293.3h4.5l-5.8,17h-4.4l-5.7-17h4.7l3.3,12.6L99.9,293.3z"/>
			<path class="st3" d="M114.2,286.4l-4.5,4.7h-3l2.8-4.7H114.2z M106.9,293.3h4.2v17h-4.2V293.3z"/>
			<path class="st3" d="M121.7,300c0.8-0.1,1.3-0.2,1.7-0.4c0.6-0.3,0.9-0.7,0.9-1.3c0-0.7-0.2-1.2-0.7-1.4c-0.5-0.3-1.1-0.4-2-0.4
				c-1,0-1.7,0.3-2.1,0.8c-0.3,0.4-0.5,0.9-0.6,1.6h-4c0.1-1.5,0.5-2.7,1.2-3.7c1.1-1.5,3-2.2,5.7-2.2c1.8,0,3.3,0.4,4.7,1.1
				c1.4,0.7,2.1,2.1,2.1,4.2v7.8c0,0.5,0,1.2,0,2c0,0.6,0.1,1,0.2,1.2c0.1,0.2,0.3,0.4,0.6,0.5v0.7h-4.6c-0.1-0.3-0.2-0.7-0.3-1
				c0-0.3-0.1-0.6-0.1-1c-0.6,0.7-1.3,1.2-2,1.7c-0.9,0.6-1.9,0.8-3.1,0.8c-1.5,0-2.7-0.4-3.6-1.3s-1.4-2.1-1.4-3.7
				c0-2.1,0.8-3.6,2.3-4.5c0.8-0.5,2.1-0.9,3.7-1.1L121.7,300z M124.3,302.1c-0.3,0.2-0.5,0.3-0.8,0.4c-0.3,0.1-0.6,0.2-1.1,0.3
				l-1,0.2c-0.9,0.2-1.5,0.4-1.9,0.6c-0.7,0.4-1,1-1,1.9c0,0.8,0.2,1.3,0.6,1.6c0.4,0.3,0.9,0.5,1.5,0.5c0.9,0,1.8-0.3,2.5-0.8
				s1.2-1.6,1.2-3.1V302.1z"/>
			<path class="st3" d="M145.1,294.3c1,0.9,1.6,2.5,1.6,4.6v11.5h-4.3V300c0-0.9-0.1-1.6-0.3-2.1c-0.4-0.9-1.2-1.3-2.3-1.3
				c-1.4,0-2.4,0.6-2.9,1.9c-0.3,0.7-0.4,1.5-0.4,2.6v9.2h-4.2v-17h4.1v2.5c0.5-0.9,1-1.5,1.5-1.9c0.9-0.7,1.9-1,3.3-1
				C142.7,292.9,144.1,293.4,145.1,294.3z"/>
			<path class="st3" d="M164.1,308.3c-1.4,1.8-3.4,2.7-6.2,2.7c-2.8,0-4.8-0.9-6.2-2.7c-1.4-1.8-2-3.9-2-6.4c0-2.5,0.7-4.6,2-6.4
				s3.4-2.7,6.2-2.7c2.8,0,4.8,0.9,6.2,2.7c1.4,1.8,2,3.9,2,6.4C166.1,304.4,165.4,306.5,164.1,308.3z M160.7,305.8
				c0.7-0.9,1-2.2,1-3.9s-0.3-3-1-3.9c-0.7-0.9-1.6-1.4-2.8-1.4c-1.2,0-2.2,0.5-2.8,1.4c-0.7,0.9-1,2.2-1,3.9s0.3,3,1,3.9
				c0.7,0.9,1.6,1.4,2.8,1.4C159.1,307.2,160.1,306.7,160.7,305.8z"/>
			<path class="st3" d="M172.5,304.9c0.1,0.8,0.3,1.4,0.6,1.7c0.5,0.6,1.5,0.9,2.9,0.9c0.8,0,1.5-0.1,2-0.4c0.5-0.3,0.7-0.7,0.7-1.2
				c0-0.5-0.2-0.9-0.6-1.1c-0.4-0.3-1.9-0.7-4.4-1.3c-1.8-0.5-3.1-1.1-3.8-1.8c-0.7-0.7-1.1-1.7-1.1-3.1c0-1.6,0.6-2.9,1.7-4.1
				c1.2-1.1,2.8-1.7,4.9-1.7c2,0,3.6,0.4,4.9,1.3c1.3,0.8,2,2.3,2.2,4.4h-4.2c-0.1-0.6-0.2-1-0.5-1.4c-0.5-0.6-1.2-0.9-2.4-0.9
				c-0.9,0-1.6,0.2-2,0.5c-0.4,0.3-0.6,0.7-0.6,1.1c0,0.5,0.2,0.9,0.6,1.1c0.4,0.2,1.9,0.7,4.4,1.2c1.7,0.4,2.9,1,3.8,1.9
				c0.8,0.9,1.2,1.9,1.2,3.2c0,1.7-0.6,3.1-1.8,4.1c-1.2,1.1-3,1.6-5.5,1.6c-2.5,0-4.4-0.6-5.6-1.7c-1.2-1.1-1.8-2.6-1.8-4.3H172.5z
				"/>
			<path class="st3" d="M198.7,293.3v10.3c0,1,0.1,1.7,0.3,2.2c0.4,0.9,1.1,1.3,2.2,1.3c1.4,0,2.4-0.6,2.9-1.8
				c0.3-0.7,0.4-1.5,0.4-2.6v-9.3h4.2v17h-4.1V308c0,0.1-0.1,0.2-0.3,0.5c-0.2,0.3-0.3,0.5-0.6,0.7c-0.7,0.6-1.3,1.1-1.9,1.3
				s-1.3,0.3-2.1,0.3c-2.4,0-4-0.9-4.8-2.7c-0.5-1-0.7-2.5-0.7-4.4v-10.3H198.7z"/>
			<path class="st3" d="M225.9,294.3c1,0.9,1.6,2.5,1.6,4.6v11.5h-4.3V300c0-0.9-0.1-1.6-0.3-2.1c-0.4-0.9-1.2-1.3-2.3-1.3
				c-1.4,0-2.4,0.6-2.9,1.9c-0.3,0.7-0.4,1.5-0.4,2.6v9.2h-4.2v-17h4.1v2.5c0.5-0.9,1-1.5,1.5-1.9c0.9-0.7,1.9-1,3.3-1
				C223.5,292.9,224.9,293.4,225.9,294.3z"/>
			<path class="st3" d="M260,293.4c0.7,0.3,1.3,0.8,1.9,1.5c0.5,0.6,0.8,1.3,0.9,2.2c0.1,0.6,0.1,1.4,0.1,2.5l0,10.7h-4.3v-10.8
				c0-0.6-0.1-1.2-0.3-1.6c-0.4-0.8-1.1-1.2-2.1-1.2c-1.2,0-2,0.5-2.4,1.5c-0.2,0.5-0.3,1.2-0.3,2v10.1h-4.2v-10.1
				c0-1-0.1-1.7-0.3-2.2c-0.4-0.8-1-1.2-2.1-1.2c-1.2,0-2,0.4-2.4,1.2c-0.2,0.5-0.3,1.2-0.3,2.1v10.2h-4.2v-17h4.1v2.5
				c0.5-0.9,1-1.5,1.5-1.9c0.8-0.7,1.9-1,3.2-1c1.2,0,2.2,0.3,3,0.9c0.6,0.5,1.1,1.2,1.4,2c0.5-1,1.2-1.7,2-2.2
				c0.9-0.5,1.8-0.7,2.9-0.7C258.6,293,259.3,293.1,260,293.4z"/>
			<path class="st3" d="M277.3,293.7c1.1,0.5,2,1.4,2.8,2.5c0.7,1,1.1,2.2,1.3,3.5c0.1,0.8,0.2,1.9,0.1,3.4h-11.7
				c0.1,1.7,0.6,2.9,1.7,3.6c0.6,0.4,1.4,0.6,2.3,0.6c1,0,1.7-0.3,2.3-0.8c0.3-0.3,0.6-0.7,0.9-1.2h4.3c-0.1,1-0.6,2-1.6,3.1
				c-1.4,1.7-3.4,2.5-6,2.5c-2.1,0-4-0.7-5.6-2.1c-1.6-1.4-2.4-3.7-2.4-6.8c0-3,0.7-5.2,2.2-6.8c1.5-1.6,3.4-2.4,5.7-2.4
				C274.9,292.9,276.2,293.1,277.3,293.7z M271,297.5c-0.6,0.6-1,1.5-1.1,2.6h7.2c-0.1-1.2-0.4-2.1-1.1-2.7
				c-0.7-0.6-1.5-0.9-2.5-0.9C272.5,296.5,271.6,296.9,271,297.5z"/>
			<path class="st3" d="M296.6,294.3c1,0.9,1.6,2.5,1.6,4.6v11.5h-4.3V300c0-0.9-0.1-1.6-0.3-2.1c-0.4-0.9-1.2-1.3-2.3-1.3
				c-1.4,0-2.4,0.6-2.9,1.9c-0.3,0.7-0.4,1.5-0.4,2.6v9.2h-4.2v-17h4.1v2.5c0.5-0.9,1-1.5,1.5-1.9c0.9-0.7,1.9-1,3.3-1
				C294.2,292.9,295.6,293.4,296.6,294.3z"/>
			<path class="st3" d="M305.5,304.9c0.1,0.8,0.3,1.4,0.6,1.7c0.5,0.6,1.5,0.9,2.9,0.9c0.8,0,1.5-0.1,2-0.4c0.5-0.3,0.7-0.7,0.7-1.2
				c0-0.5-0.2-0.9-0.6-1.1c-0.4-0.3-1.9-0.7-4.4-1.3c-1.8-0.5-3.1-1.1-3.8-1.8c-0.7-0.7-1.1-1.7-1.1-3.1c0-1.6,0.6-2.9,1.7-4.1
				c1.2-1.1,2.8-1.7,4.9-1.7c2,0,3.6,0.4,4.9,1.3c1.3,0.8,2,2.3,2.2,4.4h-4.2c-0.1-0.6-0.2-1-0.5-1.4c-0.5-0.6-1.2-0.9-2.4-0.9
				c-0.9,0-1.6,0.2-2,0.5c-0.4,0.3-0.6,0.7-0.6,1.1c0,0.5,0.2,0.9,0.6,1.1c0.4,0.2,1.9,0.7,4.4,1.2c1.7,0.4,2.9,1,3.8,1.9
				c0.8,0.9,1.2,1.9,1.2,3.2c0,1.7-0.6,3.1-1.8,4.1c-1.2,1.1-3,1.6-5.5,1.6c-2.5,0-4.4-0.6-5.6-1.7c-1.2-1.1-1.8-2.6-1.8-4.3H305.5z
				"/>
			<path class="st3" d="M325.4,300c0.8-0.1,1.3-0.2,1.7-0.4c0.6-0.3,0.9-0.7,0.9-1.3c0-0.7-0.2-1.2-0.7-1.4c-0.5-0.3-1.1-0.4-2-0.4
				c-1,0-1.7,0.3-2.1,0.8c-0.3,0.4-0.5,0.9-0.6,1.6h-4c0.1-1.5,0.5-2.7,1.2-3.7c1.1-1.5,3-2.2,5.7-2.2c1.8,0,3.3,0.4,4.7,1.1
				c1.4,0.7,2.1,2.1,2.1,4.2v7.8c0,0.5,0,1.2,0,2c0,0.6,0.1,1,0.2,1.2c0.1,0.2,0.3,0.4,0.6,0.5v0.7h-4.6c-0.1-0.3-0.2-0.7-0.3-1
				c0-0.3-0.1-0.6-0.1-1c-0.6,0.7-1.2,1.2-2,1.7c-0.9,0.6-1.9,0.8-3.1,0.8c-1.5,0-2.7-0.4-3.6-1.3s-1.4-2.1-1.4-3.7
				c0-2.1,0.8-3.6,2.3-4.5c0.8-0.5,2.1-0.9,3.7-1.1L325.4,300z M328,302.1c-0.3,0.2-0.5,0.3-0.8,0.4s-0.6,0.2-1.1,0.3l-1,0.2
				c-0.9,0.2-1.5,0.4-1.9,0.6c-0.7,0.4-1,1-1,1.9c0,0.8,0.2,1.3,0.6,1.6c0.4,0.3,0.9,0.5,1.5,0.5c0.9,0,1.8-0.3,2.5-0.8
				c0.8-0.6,1.2-1.6,1.2-3.1V302.1z"/>
			<path class="st3" d="M334.1,313.6c0.2,0,0.4,0,0.5,0c0.1,0,0.2,0,0.3,0c0.4,0,0.7-0.1,0.9-0.3c0.2-0.2,0.3-0.6,0.3-1.2v-18.7h4.2
				v18.8c0,1.7-0.3,3-1,3.8c-0.6,0.8-1.9,1.2-3.7,1.2c-0.1,0-0.3,0-0.6,0c-0.2,0-0.6,0-0.9,0V313.6z M340.3,291.3h-4.2v-4.1h4.2
				V291.3z"/>
			<path class="st3" d="M354.8,293.7c1.1,0.5,2,1.4,2.8,2.5c0.7,1,1.1,2.2,1.3,3.5c0.1,0.8,0.2,1.9,0.1,3.4h-11.7
				c0.1,1.7,0.6,2.9,1.7,3.6c0.6,0.4,1.4,0.6,2.3,0.6c1,0,1.7-0.3,2.3-0.8c0.3-0.3,0.6-0.7,0.9-1.2h4.3c-0.1,1-0.6,2-1.6,3.1
				c-1.4,1.7-3.4,2.5-6,2.5c-2.1,0-4-0.7-5.6-2.1c-1.6-1.4-2.4-3.7-2.4-6.8c0-3,0.7-5.2,2.2-6.8c1.5-1.6,3.4-2.4,5.7-2.4
				C352.4,292.9,353.7,293.1,354.8,293.7z M348.6,297.5c-0.6,0.6-1,1.5-1.1,2.6h7.2c-0.1-1.2-0.4-2.1-1.1-2.7
				c-0.7-0.6-1.5-0.9-2.5-0.9C350,296.5,349.1,296.9,348.6,297.5z"/>
			<path class="st3" d="M370.3,313.6l0.5,0c0.4,0,0.8,0,1.2,0c0.4-0.1,0.7-0.2,0.9-0.4c0.2-0.2,0.5-0.5,0.7-1.1
				c0.2-0.6,0.3-0.9,0.3-1l-5.9-17.8h4.7l3.5,12.6l3.3-12.6h4.4l-5.5,16.8c-1.1,3.2-1.9,5.2-2.5,6c-0.6,0.8-1.9,1.2-3.7,1.2
				c-0.4,0-0.7,0-0.9,0c-0.2,0-0.6,0-1-0.1V313.6z"/>
			<path class="st4" d="M52.5,329.5h2.7v3.1h-2.7V329.5z M52.5,343.9l0.7-9.3h1.4l0.7,9.3v7.1h-2.7V343.9z"/>
			<path class="st4" d="M61.3,323.6h9.2c1.5,0,2.8,0.2,3.7,0.7c1.9,0.9,2.8,2.6,2.8,5.1c0,1.3-0.2,2.3-0.7,3.2s-1.2,1.5-2.1,2
				c0.8,0.3,1.4,0.8,1.7,1.3s0.6,1.5,0.7,2.7l0.1,2.9c0,0.8,0.1,1.4,0.2,1.8c0.2,0.7,0.4,1.1,0.9,1.3v0.5h-3.3
				c-0.1-0.2-0.2-0.4-0.2-0.7s-0.1-0.9-0.1-1.7l-0.2-3.6c-0.1-1.4-0.5-2.3-1.4-2.8c-0.5-0.3-1.3-0.4-2.4-0.4H64v9.2h-2.7V323.6z
				 M70.2,333.5c1.3,0,2.3-0.3,3-0.8s1.1-1.5,1.1-3c0-1.5-0.5-2.6-1.5-3.1c-0.5-0.3-1.3-0.4-2.2-0.4H64v7.4H70.2z"/>
			<path class="st4" d="M89.9,329.9c1,0.5,1.7,1.2,2.2,2c0.5,0.8,0.8,1.7,1,2.8c0.1,0.7,0.2,1.9,0.2,3.5H82.7c0,1.6,0.4,2.9,1,3.8
				c0.6,1,1.6,1.4,3,1.4c1.3,0,2.3-0.5,3-1.4c0.4-0.5,0.7-1.1,0.9-1.8H93c-0.1,0.6-0.3,1.2-0.6,1.9c-0.4,0.7-0.8,1.3-1.2,1.7
				c-0.7,0.8-1.6,1.3-2.7,1.6c-0.6,0.2-1.2,0.2-2,0.2c-1.8,0-3.3-0.7-4.6-2.1c-1.2-1.4-1.9-3.4-1.9-6c0-2.5,0.6-4.6,1.9-6.1
				c1.3-1.6,2.9-2.4,4.9-2.4C87.9,329.1,88.9,329.4,89.9,329.9z M90.7,336.1c-0.1-1.1-0.3-2.1-0.7-2.7c-0.7-1.3-1.8-1.9-3.3-1.9
				c-1.1,0-2,0.4-2.8,1.3c-0.8,0.9-1.2,2-1.2,3.3H90.7z"/>
			<path class="st4" d="M106,330.3c1,0.9,1.6,2.3,1.8,4.4h-2.4c-0.1-1-0.5-1.8-1-2.4c-0.5-0.6-1.3-1-2.5-1c-1.5,0-2.7,0.8-3.3,2.5
				c-0.4,1.1-0.6,2.4-0.6,3.9c0,1.6,0.3,2.9,0.9,4s1.6,1.6,2.9,1.6c1,0,1.8-0.3,2.4-1c0.6-0.7,1-1.6,1.2-2.7h2.4
				c-0.3,2.1-0.9,3.6-2,4.6s-2.5,1.4-4.1,1.4c-1.9,0-3.4-0.7-4.5-2.2c-1.1-1.5-1.7-3.4-1.7-5.6c0-2.8,0.6-4.9,1.8-6.4
				c1.2-1.5,2.8-2.3,4.7-2.3C103.7,329,105,329.5,106,330.3z"/>
			<path class="st4" d="M110.6,323.6h2.5v3h-2.5V323.6z M110.6,329.6h2.5v15.6h-2.5V329.6z"/>
			<path class="st4" d="M116.8,323.6h2.4v7.8c0.5-0.8,1.2-1.3,1.9-1.7c0.7-0.4,1.5-0.6,2.4-0.6c1.8,0,3.3,0.7,4.4,2
				c1.1,1.3,1.7,3.3,1.7,5.9c0,2.5-0.6,4.5-1.7,6.2c-1.1,1.6-2.6,2.5-4.6,2.5c-1.1,0-2-0.3-2.8-0.9c-0.4-0.3-0.9-0.9-1.4-1.6v2h-2.2
				V323.6z M126,341.6c0.7-1.1,1-2.6,1-4.5c0-1.7-0.3-3-1-4.1s-1.6-1.6-2.9-1.6c-1.1,0-2.1,0.4-2.9,1.3s-1.2,2.4-1.2,4.4
				c0,1.5,0.2,2.7,0.5,3.6c0.6,1.7,1.8,2.6,3.6,2.6C124.4,343.3,125.4,342.8,126,341.6z"/>
			<path class="st4" d="M141.6,329.9c1,0.5,1.7,1.2,2.2,2c0.5,0.8,0.8,1.7,1,2.8c0.1,0.7,0.2,1.9,0.2,3.5h-10.6c0,1.6,0.4,2.9,1,3.8
				c0.6,1,1.6,1.4,3,1.4c1.3,0,2.3-0.5,3-1.4c0.4-0.5,0.7-1.1,0.9-1.8h2.4c-0.1,0.6-0.3,1.2-0.6,1.9c-0.4,0.7-0.8,1.3-1.2,1.7
				c-0.7,0.8-1.6,1.3-2.7,1.6c-0.6,0.2-1.2,0.2-2,0.2c-1.8,0-3.3-0.7-4.6-2.1c-1.2-1.4-1.9-3.4-1.9-6c0-2.5,0.6-4.6,1.9-6.1
				c1.3-1.6,2.9-2.4,4.9-2.4C139.6,329.1,140.6,329.4,141.6,329.9z M142.5,336.1c-0.1-1.1-0.3-2.1-0.7-2.7c-0.7-1.3-1.8-1.9-3.3-1.9
				c-1.1,0-2,0.4-2.8,1.3c-0.8,0.9-1.2,2-1.2,3.3H142.5z"/>
			<path class="st4" d="M158.6,329.5v10.4c0,0.8,0.1,1.5,0.3,2c0.4,0.9,1.2,1.4,2.4,1.4c1.7,0,2.8-0.8,3.4-2.5
				c0.3-0.9,0.5-2.1,0.5-3.6v-7.7h2.4v15.7h-2.3l0-2.3c-0.3,0.6-0.7,1.1-1.2,1.5c-0.9,0.8-2,1.2-3.4,1.2c-2.1,0-3.5-0.7-4.2-2.2
				c-0.4-0.8-0.6-1.9-0.6-3.2v-10.7H158.6z"/>
			<path class="st4" d="M171.8,329.5h2.3v2.2c0.7-0.9,1.4-1.6,2.2-2s1.6-0.6,2.5-0.6c2,0,3.4,0.8,4.2,2.3c0.4,0.8,0.6,2.1,0.6,3.6
				v10.1h-2.5v-9.9c0-1-0.1-1.7-0.4-2.3c-0.4-1-1.2-1.5-2.3-1.5c-0.6,0-1,0.1-1.4,0.2c-0.7,0.2-1.2,0.6-1.8,1.3
				c-0.4,0.5-0.7,1.1-0.8,1.6c-0.1,0.6-0.2,1.3-0.2,2.4v8.2h-2.4V329.5z"/>
			<path class="st4" d="M195.2,329.6h2.4v2.1c0.5-0.7,1-1.3,1.6-1.7c0.8-0.6,1.8-0.9,2.9-0.9c1.6,0,3,0.7,4.2,2
				c1.1,1.4,1.7,3.3,1.7,5.8c0,3.4-0.8,5.9-2.5,7.3c-1,0.9-2.3,1.4-3.6,1.4c-1.1,0-2-0.3-2.7-0.8c-0.4-0.3-0.9-0.8-1.4-1.5v8h-2.4
				V329.6z M204.3,341.8c0.8-1,1.1-2.6,1.1-4.6c0-1.2-0.2-2.3-0.5-3.2c-0.6-1.7-1.8-2.6-3.5-2.6c-1.7,0-2.8,0.9-3.5,2.7
				c-0.3,1-0.5,2.2-0.5,3.7c0,1.2,0.2,2.2,0.5,3.1c0.6,1.6,1.8,2.4,3.5,2.4C202.6,343.4,203.5,342.9,204.3,341.8z"/>
			<path class="st4" d="M211.1,323.6h2.4v21.5h-2.4V323.6z"/>
			<path class="st4" d="M225.1,335.7c0.6-0.1,0.9-0.3,1.1-0.8c0.1-0.2,0.2-0.6,0.2-1c0-0.9-0.3-1.5-0.9-2c-0.6-0.4-1.4-0.6-2.5-0.6
				c-1.3,0-2.2,0.4-2.7,1.1c-0.3,0.4-0.5,1-0.6,1.8h-2.3c0-1.9,0.6-3.3,1.7-4s2.4-1.1,3.9-1.1c1.7,0,3.1,0.4,4.1,1.1
				c1.1,0.7,1.6,1.8,1.6,3.3v9c0,0.3,0.1,0.5,0.2,0.7c0.1,0.2,0.3,0.2,0.7,0.2c0.1,0,0.2,0,0.4,0c0.1,0,0.3,0,0.4-0.1v1.9
				c-0.4,0.1-0.7,0.2-0.9,0.2c-0.2,0-0.5,0-0.8,0c-0.8,0-1.4-0.3-1.8-1c-0.2-0.3-0.3-0.8-0.4-1.5c-0.5,0.7-1.2,1.3-2.1,1.8
				c-0.9,0.5-1.9,0.8-3.1,0.8c-1.3,0-2.4-0.4-3.3-1.3c-0.8-0.9-1.3-2-1.3-3.3c0-1.5,0.4-2.6,1.3-3.4s1.9-1.3,3.3-1.5L225.1,335.7z
				 M220,342.8c0.5,0.4,1.1,0.7,1.8,0.7c0.9,0,1.7-0.2,2.5-0.6c1.3-0.7,2-1.9,2-3.5v-2.1c-0.3,0.2-0.7,0.4-1.1,0.5
				c-0.5,0.1-0.9,0.2-1.4,0.3l-1.5,0.2c-0.9,0.1-1.5,0.3-2,0.6c-0.7,0.5-1.1,1.2-1.1,2.2C219.3,341.8,219.5,342.4,220,342.8z"/>
			<path class="st4" d="M233,329.5h2.3v2.2c0.7-0.9,1.4-1.6,2.2-2s1.6-0.6,2.5-0.6c2,0,3.4,0.8,4.2,2.3c0.4,0.8,0.6,2.1,0.6,3.6
				v10.1h-2.5v-9.9c0-1-0.1-1.7-0.4-2.3c-0.4-1-1.2-1.5-2.3-1.5c-0.6,0-1,0.1-1.4,0.2c-0.7,0.2-1.2,0.6-1.8,1.3
				c-0.4,0.5-0.7,1.1-0.8,1.6c-0.1,0.6-0.2,1.3-0.2,2.4v8.2H233V329.5z"/>
			<path class="st4" d="M256.4,329.6h2.4v2.1c0.5-0.7,1-1.3,1.6-1.7c0.8-0.6,1.8-0.9,2.9-0.9c1.6,0,3,0.7,4.2,2
				c1.1,1.4,1.7,3.3,1.7,5.8c0,3.4-0.8,5.9-2.5,7.3c-1,0.9-2.3,1.4-3.6,1.4c-1.1,0-2-0.3-2.7-0.8c-0.4-0.3-0.9-0.8-1.4-1.5v8h-2.4
				V329.6z M265.5,341.8c0.8-1,1.1-2.6,1.1-4.6c0-1.2-0.2-2.3-0.5-3.2c-0.6-1.7-1.8-2.6-3.5-2.6c-1.7,0-2.8,0.9-3.5,2.7
				c-0.3,1-0.5,2.2-0.5,3.7c0,1.2,0.2,2.2,0.5,3.1c0.6,1.6,1.8,2.4,3.5,2.4C263.8,343.4,264.8,342.9,265.5,341.8z"/>
			<path class="st4" d="M281.2,329.9c1,0.5,1.7,1.2,2.2,2c0.5,0.8,0.8,1.7,1,2.8c0.1,0.7,0.2,1.9,0.2,3.5H274c0,1.6,0.4,2.9,1,3.8
				c0.6,1,1.6,1.4,3,1.4c1.3,0,2.3-0.5,3-1.4c0.4-0.5,0.7-1.1,0.9-1.8h2.4c-0.1,0.6-0.3,1.2-0.6,1.9c-0.4,0.7-0.8,1.3-1.2,1.7
				c-0.7,0.8-1.6,1.3-2.7,1.6c-0.6,0.2-1.2,0.2-2,0.2c-1.8,0-3.3-0.7-4.6-2.1c-1.2-1.4-1.9-3.4-1.9-6c0-2.5,0.6-4.6,1.9-6.1
				c1.3-1.6,2.9-2.4,4.9-2.4C279.3,329.1,280.2,329.4,281.2,329.9z M282.1,336.1c-0.1-1.1-0.3-2.1-0.7-2.7c-0.7-1.3-1.8-1.9-3.3-1.9
				c-1.1,0-2,0.4-2.8,1.3c-0.8,0.9-1.2,2-1.2,3.3H282.1z"/>
			<path class="st4" d="M287.9,329.5h2.3v2.7c0.2-0.5,0.7-1.2,1.4-1.9c0.7-0.8,1.6-1.1,2.5-1.1c0,0,0.1,0,0.2,0c0.1,0,0.3,0,0.6,0.1
				v2.8c-0.1,0-0.3,0-0.4-0.1c-0.1,0-0.3,0-0.4,0c-1.2,0-2.2,0.4-2.8,1.3c-0.7,0.9-1,1.8-1,3v9h-2.4V329.5z"/>
			<path class="st4" d="M298.8,340.2c0.1,0.9,0.3,1.6,0.6,2c0.6,0.8,1.7,1.3,3.2,1.3c0.9,0,1.7-0.2,2.4-0.6c0.7-0.4,1-1.1,1-2
				c0-0.7-0.3-1.2-0.8-1.5c-0.4-0.2-1-0.5-2.1-0.7l-1.9-0.5c-1.2-0.3-2.1-0.7-2.7-1.1c-1-0.7-1.6-1.7-1.6-3c0-1.5,0.5-2.7,1.5-3.6
				c1-0.9,2.3-1.4,4-1.4c2.2,0,3.7,0.7,4.7,2.1c0.6,0.9,0.9,1.8,0.9,2.8h-2.3c0-0.6-0.2-1.1-0.6-1.6c-0.6-0.7-1.5-1-2.9-1
				c-0.9,0-1.6,0.2-2.1,0.6s-0.7,0.9-0.7,1.5c0,0.7,0.3,1.2,0.9,1.6c0.4,0.2,0.9,0.5,1.6,0.6l1.6,0.4c1.7,0.5,2.9,0.9,3.5,1.3
				c0.9,0.7,1.4,1.7,1.4,3.2c0,1.4-0.5,2.6-1.5,3.6c-1,1-2.5,1.5-4.5,1.5c-2.1,0-3.7-0.5-4.6-1.6c-0.9-1.1-1.4-2.4-1.4-3.9H298.8z"
				/>
			<path class="st4" d="M321.9,331c1.3,1.3,1.9,3.3,1.9,5.9c0,2.5-0.6,4.6-1.7,6.3c-1.1,1.7-2.9,2.5-5.3,2.5c-2,0-3.6-0.7-4.7-2.2
				c-1.2-1.5-1.8-3.4-1.8-5.9c0-2.6,0.6-4.7,1.8-6.3c1.2-1.6,2.9-2.3,5-2.3C319.1,329,320.6,329.7,321.9,331z M320.4,341.5
				c0.6-1.3,0.9-2.8,0.9-4.4c0-1.5-0.2-2.7-0.6-3.6c-0.7-1.4-1.9-2.2-3.5-2.2c-1.5,0-2.6,0.6-3.2,1.8s-1,2.7-1,4.5
				c0,1.7,0.3,3.1,1,4.2s1.7,1.7,3.2,1.7C318.7,343.5,319.8,342.8,320.4,341.5z"/>
			<path class="st4" d="M327,329.5h2.3v2.2c0.7-0.9,1.4-1.6,2.2-2s1.6-0.6,2.5-0.6c2,0,3.4,0.8,4.2,2.3c0.4,0.8,0.6,2.1,0.6,3.6
				v10.1h-2.5v-9.9c0-1-0.1-1.7-0.4-2.3c-0.4-1-1.2-1.5-2.3-1.5c-0.6,0-1,0.1-1.4,0.2c-0.7,0.2-1.2,0.6-1.8,1.3
				c-0.4,0.5-0.7,1.1-0.8,1.6c-0.1,0.6-0.2,1.3-0.2,2.4v8.2H327V329.5z"/>
			<path class="st4" d="M350.4,335.7c0.6-0.1,0.9-0.3,1.1-0.8c0.1-0.2,0.2-0.6,0.2-1c0-0.9-0.3-1.5-0.9-2c-0.6-0.4-1.4-0.6-2.5-0.6
				c-1.3,0-2.2,0.4-2.7,1.1c-0.3,0.4-0.5,1-0.6,1.8h-2.3c0-1.9,0.6-3.3,1.7-4s2.4-1.1,3.9-1.1c1.7,0,3.1,0.4,4.1,1.1
				c1.1,0.7,1.6,1.8,1.6,3.3v9c0,0.3,0.1,0.5,0.2,0.7c0.1,0.2,0.3,0.2,0.7,0.2c0.1,0,0.2,0,0.4,0c0.1,0,0.3,0,0.4-0.1v1.9
				c-0.4,0.1-0.7,0.2-0.9,0.2c-0.2,0-0.5,0-0.8,0c-0.8,0-1.4-0.3-1.8-1c-0.2-0.3-0.3-0.8-0.4-1.5c-0.5,0.7-1.2,1.3-2.1,1.8
				s-1.9,0.8-3.1,0.8c-1.3,0-2.4-0.4-3.3-1.3c-0.8-0.9-1.3-2-1.3-3.3c0-1.5,0.4-2.6,1.3-3.4s1.9-1.3,3.3-1.5L350.4,335.7z
				 M345.3,342.8c0.5,0.4,1.1,0.7,1.8,0.7c0.9,0,1.7-0.2,2.5-0.6c1.3-0.7,2-1.9,2-3.5v-2.1c-0.3,0.2-0.7,0.4-1.1,0.5
				c-0.5,0.1-0.9,0.2-1.4,0.3l-1.5,0.2c-0.9,0.1-1.5,0.3-2,0.6c-0.7,0.5-1.1,1.2-1.1,2.2C344.5,341.8,344.8,342.4,345.3,342.8z"/>
			<path class="st4" d="M358.3,323.6h2.4v21.5h-2.4V323.6z"/>
			<path class="st4" d="M364.7,323.6h2.5v3h-2.5V323.6z M364.7,329.6h2.5v15.6h-2.5V329.6z"/>
			<path class="st4" d="M370,343.1l8.6-11.2h-7.9v-2.4h11.2v2.2l-8.5,11.2h8.8v2.4H370V343.1z"/>
			<path class="st4" d="M392.9,335.7c0.6-0.1,0.9-0.3,1.1-0.8c0.1-0.2,0.2-0.6,0.2-1c0-0.9-0.3-1.5-0.9-2s-1.4-0.6-2.5-0.6
				c-1.3,0-2.2,0.4-2.7,1.1c-0.3,0.4-0.5,1-0.6,1.8h-2.3c0-1.9,0.6-3.3,1.7-4s2.4-1.1,3.9-1.1c1.7,0,3.1,0.4,4.1,1.1
				c1.1,0.7,1.6,1.8,1.6,3.3v9c0,0.3,0.1,0.5,0.2,0.7s0.3,0.2,0.7,0.2c0.1,0,0.2,0,0.4,0c0.1,0,0.3,0,0.4-0.1v1.9
				c-0.4,0.1-0.7,0.2-0.9,0.2s-0.5,0-0.8,0c-0.8,0-1.4-0.3-1.8-1c-0.2-0.3-0.3-0.8-0.4-1.5c-0.5,0.7-1.2,1.3-2.1,1.8
				c-0.9,0.5-1.9,0.8-3.1,0.8c-1.3,0-2.4-0.4-3.3-1.3c-0.8-0.9-1.3-2-1.3-3.3c0-1.5,0.4-2.6,1.3-3.4s1.9-1.3,3.3-1.5L392.9,335.7z
				 M387.8,342.8c0.5,0.4,1.1,0.7,1.8,0.7c0.9,0,1.7-0.2,2.5-0.6c1.3-0.7,2-1.9,2-3.5v-2.1c-0.3,0.2-0.7,0.4-1.1,0.5
				s-0.9,0.2-1.4,0.3l-1.5,0.2c-0.9,0.1-1.5,0.3-2,0.6c-0.7,0.5-1.1,1.2-1.1,2.2C387,341.8,387.3,342.4,387.8,342.8z"/>
			<path class="st4" d="M408.7,330c0.4,0.3,0.9,0.8,1.5,1.5v-7.9h2.3v21.6h-2.2V343c-0.6,1-1.2,1.7-2,2.1c-0.8,0.4-1.7,0.6-2.7,0.6
				c-1.6,0-3-0.7-4.2-2.2c-1.2-1.5-1.8-3.4-1.8-5.9c0-2.3,0.5-4.3,1.6-5.9c1.1-1.7,2.6-2.5,4.6-2.5C407.1,329.2,408,329.5,408.7,330
				z M403.3,341.7c0.7,1.1,1.7,1.7,3.2,1.7c1.1,0,2-0.5,2.8-1.6c0.7-1,1.1-2.6,1.1-4.5c0-2-0.4-3.5-1.1-4.4c-0.7-1-1.7-1.4-2.8-1.4
				c-1.2,0-2.2,0.5-3,1.5s-1.1,2.5-1.1,4.5C402.3,339.2,402.6,340.6,403.3,341.7z"/>
			<path class="st4" d="M426.9,331c1.3,1.3,1.9,3.3,1.9,5.9c0,2.5-0.6,4.6-1.7,6.3c-1.1,1.7-2.9,2.5-5.3,2.5c-2,0-3.6-0.7-4.7-2.2
				c-1.2-1.5-1.8-3.4-1.8-5.9c0-2.6,0.6-4.7,1.8-6.3c1.2-1.6,2.9-2.3,5-2.3C424.1,329,425.7,329.7,426.9,331z M425.4,341.5
				c0.6-1.3,0.9-2.8,0.9-4.4c0-1.5-0.2-2.7-0.6-3.6c-0.7-1.4-1.9-2.2-3.5-2.2c-1.5,0-2.6,0.6-3.2,1.8s-1,2.7-1,4.5
				c0,1.7,0.3,3.1,1,4.2s1.7,1.7,3.2,1.7C423.7,343.5,424.8,342.8,425.4,341.5z"/>
			<path class="st4" d="M60.7,362.3c1,0.9,1.6,2.3,1.8,4.4h-2.4c-0.1-1-0.5-1.8-1-2.4c-0.5-0.6-1.3-1-2.5-1c-1.5,0-2.7,0.8-3.3,2.5
				c-0.4,1.1-0.6,2.4-0.6,3.9c0,1.6,0.3,2.9,0.9,4s1.6,1.6,2.9,1.6c1,0,1.8-0.3,2.4-1c0.6-0.7,1-1.6,1.2-2.7h2.4
				c-0.3,2.1-0.9,3.6-2,4.6s-2.5,1.4-4.1,1.4c-1.9,0-3.4-0.7-4.5-2.2c-1.1-1.5-1.7-3.4-1.7-5.6c0-2.8,0.6-4.9,1.8-6.4
				c1.2-1.5,2.8-2.3,4.7-2.3C58.4,361,59.7,361.5,60.7,362.3z"/>
			<path class="st4" d="M75.8,363c1.3,1.3,1.9,3.3,1.9,5.9c0,2.5-0.6,4.6-1.7,6.3s-2.9,2.5-5.3,2.5c-2,0-3.6-0.7-4.7-2.2
				c-1.2-1.5-1.8-3.4-1.8-5.9c0-2.6,0.6-4.7,1.8-6.3c1.2-1.6,2.9-2.3,5-2.3C72.9,361,74.5,361.7,75.8,363z M74.3,373.5
				c0.6-1.3,0.9-2.8,0.9-4.4c0-1.5-0.2-2.7-0.6-3.6c-0.7-1.4-1.9-2.2-3.5-2.2c-1.5,0-2.6,0.6-3.2,1.8s-1,2.7-1,4.5
				c0,1.7,0.3,3.1,1,4.2s1.7,1.7,3.2,1.7C72.6,375.5,73.7,374.8,74.3,373.5z"/>
			<path class="st4" d="M80.9,361.5h2.3v2.2c0.7-0.9,1.4-1.6,2.2-2s1.6-0.6,2.5-0.6c2,0,3.4,0.8,4.2,2.3c0.4,0.8,0.6,2.1,0.6,3.6
				v10.1h-2.5v-9.9c0-1-0.1-1.7-0.4-2.3c-0.4-1-1.2-1.5-2.3-1.5c-0.6,0-1,0.1-1.4,0.2c-0.7,0.2-1.2,0.6-1.8,1.3
				c-0.4,0.5-0.7,1.1-0.8,1.6c-0.1,0.6-0.2,1.3-0.2,2.4v8.2h-2.4V361.5z"/>
			<path class="st4" d="M104.3,361.6h2.4v2.1c0.5-0.7,1-1.3,1.6-1.7c0.8-0.6,1.8-0.9,2.9-0.9c1.6,0,3,0.7,4.2,2
				c1.1,1.4,1.7,3.3,1.7,5.8c0,3.4-0.8,5.9-2.5,7.3c-1,0.9-2.3,1.4-3.6,1.4c-1.1,0-2-0.3-2.7-0.8c-0.4-0.3-0.9-0.8-1.4-1.5v8h-2.4
				V361.6z M113.4,373.8c0.8-1,1.1-2.6,1.1-4.6c0-1.2-0.2-2.3-0.5-3.2c-0.6-1.7-1.8-2.6-3.5-2.6c-1.7,0-2.8,0.9-3.5,2.7
				c-0.3,1-0.5,2.2-0.5,3.7c0,1.2,0.2,2.2,0.5,3.1c0.6,1.6,1.8,2.4,3.5,2.4C111.7,375.4,112.6,374.9,113.4,373.8z"/>
			<path class="st4" d="M120.2,361.5h2.3v2.7c0.2-0.5,0.7-1.2,1.4-1.9c0.7-0.8,1.6-1.1,2.5-1.1c0,0,0.1,0,0.2,0c0.1,0,0.3,0,0.6,0.1
				v2.8c-0.1,0-0.3,0-0.4-0.1c-0.1,0-0.3,0-0.4,0c-1.2,0-2.2,0.4-2.8,1.3c-0.7,0.9-1,1.8-1,3v9h-2.4V361.5z"/>
			<path class="st4" d="M138.5,361.9c1,0.5,1.7,1.2,2.2,2c0.5,0.8,0.8,1.7,1,2.8c0.1,0.7,0.2,1.9,0.2,3.5h-10.6c0,1.6,0.4,2.9,1,3.8
				c0.6,1,1.6,1.4,3,1.4c1.3,0,2.3-0.5,3-1.4c0.4-0.5,0.7-1.1,0.9-1.8h2.4c-0.1,0.6-0.3,1.2-0.6,1.9c-0.4,0.7-0.8,1.3-1.2,1.7
				c-0.7,0.8-1.6,1.3-2.7,1.6c-0.6,0.2-1.2,0.2-2,0.2c-1.8,0-3.3-0.7-4.6-2.1c-1.2-1.4-1.9-3.4-1.9-6c0-2.5,0.6-4.6,1.9-6.1
				c1.3-1.6,2.9-2.4,4.9-2.4C136.6,361.1,137.6,361.4,138.5,361.9z M139.4,368.1c-0.1-1.1-0.3-2.1-0.7-2.7c-0.7-1.3-1.8-1.9-3.3-1.9
				c-1.1,0-2,0.4-2.8,1.3c-0.8,0.9-1.2,2-1.2,3.3H139.4z"/>
			<path class="st4" d="M146.6,372.2c0.1,0.9,0.3,1.6,0.6,2c0.6,0.8,1.7,1.3,3.2,1.3c0.9,0,1.7-0.2,2.4-0.6c0.7-0.4,1-1.1,1-2
				c0-0.7-0.3-1.2-0.8-1.5c-0.4-0.2-1-0.5-2.1-0.7l-1.9-0.5c-1.2-0.3-2.1-0.7-2.7-1.1c-1-0.7-1.6-1.7-1.6-3c0-1.5,0.5-2.7,1.5-3.6
				c1-0.9,2.3-1.4,4-1.4c2.2,0,3.7,0.7,4.7,2.1c0.6,0.9,0.9,1.8,0.9,2.8h-2.3c0-0.6-0.2-1.1-0.6-1.6c-0.6-0.7-1.5-1-2.9-1
				c-0.9,0-1.6,0.2-2.1,0.6s-0.7,0.9-0.7,1.5c0,0.7,0.3,1.2,0.9,1.6c0.4,0.2,0.9,0.5,1.6,0.6l1.6,0.4c1.7,0.5,2.9,0.9,3.5,1.3
				c0.9,0.7,1.4,1.7,1.4,3.2c0,1.4-0.5,2.6-1.5,3.6c-1,1-2.5,1.5-4.5,1.5c-2.1,0-3.7-0.5-4.6-1.6c-0.9-1.1-1.4-2.4-1.4-3.9H146.6z"
				/>
			<path class="st4" d="M161.7,361.5v10.4c0,0.8,0.1,1.5,0.3,2c0.4,0.9,1.2,1.4,2.4,1.4c1.7,0,2.8-0.8,3.4-2.5
				c0.3-0.9,0.5-2.1,0.5-3.6v-7.7h2.4v15.7h-2.3l0-2.3c-0.3,0.6-0.7,1.1-1.2,1.5c-0.9,0.8-2,1.2-3.4,1.2c-2.1,0-3.5-0.7-4.2-2.2
				c-0.4-0.8-0.6-1.9-0.6-3.2v-10.7H161.7z"/>
			<path class="st4" d="M174.7,361.6h2.4v2.1c0.5-0.7,1-1.3,1.6-1.7c0.8-0.6,1.8-0.9,2.9-0.9c1.6,0,3,0.7,4.2,2
				c1.1,1.4,1.7,3.3,1.7,5.8c0,3.4-0.8,5.9-2.5,7.3c-1,0.9-2.3,1.4-3.6,1.4c-1.1,0-2-0.3-2.7-0.8c-0.4-0.3-0.9-0.8-1.4-1.5v8h-2.4
				V361.6z M183.8,373.8c0.8-1,1.1-2.6,1.1-4.6c0-1.2-0.2-2.3-0.5-3.2c-0.6-1.7-1.8-2.6-3.5-2.6c-1.7,0-2.8,0.9-3.5,2.7
				c-0.3,1-0.5,2.2-0.5,3.7c0,1.2,0.2,2.2,0.5,3.1c0.6,1.6,1.8,2.4,3.5,2.4C182.1,375.4,183,374.9,183.8,373.8z"/>
			<path class="st4" d="M192.9,361.5v10.4c0,0.8,0.1,1.5,0.3,2c0.4,0.9,1.2,1.4,2.4,1.4c1.7,0,2.8-0.8,3.4-2.5
				c0.3-0.9,0.5-2.1,0.5-3.6v-7.7h2.4v15.7h-2.3l0-2.3c-0.3,0.6-0.7,1.1-1.2,1.5c-0.9,0.8-2,1.2-3.4,1.2c-2.1,0-3.5-0.7-4.2-2.2
				c-0.4-0.8-0.6-1.9-0.6-3.2v-10.7H192.9z"/>
			<path class="st4" d="M215.1,361.9c1,0.5,1.7,1.2,2.2,2c0.5,0.8,0.8,1.7,1,2.8c0.1,0.7,0.2,1.9,0.2,3.5h-10.6c0,1.6,0.4,2.9,1,3.8
				c0.6,1,1.6,1.4,3,1.4c1.3,0,2.3-0.5,3-1.4c0.4-0.5,0.7-1.1,0.9-1.8h2.4c-0.1,0.6-0.3,1.2-0.6,1.9c-0.4,0.7-0.8,1.3-1.2,1.7
				c-0.7,0.8-1.6,1.3-2.7,1.6c-0.6,0.2-1.2,0.2-2,0.2c-1.8,0-3.3-0.7-4.6-2.1c-1.2-1.4-1.9-3.4-1.9-6c0-2.5,0.6-4.6,1.9-6.1
				c1.3-1.6,2.9-2.4,4.9-2.4C213.2,361.1,214.2,361.4,215.1,361.9z M216,368.1c-0.1-1.1-0.3-2.1-0.7-2.7c-0.7-1.3-1.8-1.9-3.3-1.9
				c-1.1,0-2,0.4-2.8,1.3c-0.8,0.9-1.2,2-1.2,3.3H216z"/>
			<path class="st4" d="M223.2,372.2c0.1,0.9,0.3,1.6,0.6,2c0.6,0.8,1.7,1.3,3.2,1.3c0.9,0,1.7-0.2,2.4-0.6c0.7-0.4,1-1.1,1-2
				c0-0.7-0.3-1.2-0.8-1.5c-0.4-0.2-1-0.5-2.1-0.7l-1.9-0.5c-1.2-0.3-2.1-0.7-2.7-1.1c-1-0.7-1.6-1.7-1.6-3c0-1.5,0.5-2.7,1.5-3.6
				c1-0.9,2.3-1.4,4-1.4c2.2,0,3.7,0.7,4.7,2.1c0.6,0.9,0.9,1.8,0.9,2.8H230c0-0.6-0.2-1.1-0.6-1.6c-0.6-0.7-1.5-1-2.9-1
				c-0.9,0-1.6,0.2-2.1,0.6s-0.7,0.9-0.7,1.5c0,0.7,0.3,1.2,0.9,1.6c0.4,0.2,0.9,0.5,1.6,0.6l1.6,0.4c1.7,0.5,2.9,0.9,3.5,1.3
				c0.9,0.7,1.4,1.7,1.4,3.2c0,1.4-0.5,2.6-1.5,3.6c-1,1-2.5,1.5-4.5,1.5c-2.1,0-3.7-0.5-4.6-1.6c-0.9-1.1-1.4-2.4-1.4-3.9H223.2z"
				/>
			<path class="st4" d="M236.3,357.1h2.5v4.4h2.3v2.2h-2.3v10.2c0,0.5,0.2,0.9,0.5,1.1c0.2,0.1,0.5,0.2,0.9,0.2c0.1,0,0.2,0,0.4,0
				s0.3,0,0.5,0v2.1c-0.3,0.1-0.6,0.2-0.9,0.2c-0.3,0-0.6,0.1-1,0.1c-1.1,0-1.9-0.3-2.3-0.9c-0.4-0.6-0.6-1.4-0.6-2.5v-10.4h-2v-2.2
				h2V357.1z"/>
			<path class="st4" d="M254.3,363c1.3,1.3,1.9,3.3,1.9,5.9c0,2.5-0.6,4.6-1.7,6.3s-2.9,2.5-5.3,2.5c-2,0-3.6-0.7-4.7-2.2
				c-1.2-1.5-1.8-3.4-1.8-5.9c0-2.6,0.6-4.7,1.8-6.3c1.2-1.6,2.9-2.3,5-2.3C251.5,361,253,361.7,254.3,363z M252.8,373.5
				c0.6-1.3,0.9-2.8,0.9-4.4c0-1.5-0.2-2.7-0.6-3.6c-0.7-1.4-1.9-2.2-3.5-2.2c-1.5,0-2.6,0.6-3.2,1.8s-1,2.7-1,4.5
				c0,1.7,0.3,3.1,1,4.2s1.7,1.7,3.2,1.7C251.1,375.5,252.2,374.8,252.8,373.5z"/>
			<path class="st4" d="M275.1,367.7c0.6-0.1,0.9-0.3,1.1-0.8c0.1-0.2,0.2-0.6,0.2-1c0-0.9-0.3-1.5-0.9-2c-0.6-0.4-1.4-0.6-2.5-0.6
				c-1.3,0-2.2,0.4-2.7,1.1c-0.3,0.4-0.5,1-0.6,1.8h-2.3c0-1.9,0.6-3.3,1.7-4s2.4-1.1,3.9-1.1c1.7,0,3.1,0.4,4.1,1.1
				c1.1,0.7,1.6,1.8,1.6,3.3v9c0,0.3,0.1,0.5,0.2,0.7c0.1,0.2,0.3,0.2,0.7,0.2c0.1,0,0.2,0,0.4,0c0.1,0,0.3,0,0.4-0.1v1.9
				c-0.4,0.1-0.7,0.2-0.9,0.2c-0.2,0-0.5,0-0.8,0c-0.8,0-1.4-0.3-1.8-1c-0.2-0.3-0.3-0.8-0.4-1.5c-0.5,0.7-1.2,1.3-2.1,1.8
				c-0.9,0.5-1.9,0.8-3.1,0.8c-1.3,0-2.4-0.4-3.3-1.3c-0.8-0.9-1.3-2-1.3-3.3c0-1.5,0.4-2.6,1.3-3.4s1.9-1.3,3.3-1.5L275.1,367.7z
				 M270,374.8c0.5,0.4,1.1,0.7,1.8,0.7c0.9,0,1.7-0.2,2.5-0.6c1.3-0.7,2-1.9,2-3.5v-2.1c-0.3,0.2-0.7,0.4-1.1,0.5
				c-0.5,0.1-0.9,0.2-1.4,0.3l-1.5,0.2c-0.9,0.1-1.5,0.3-2,0.6c-0.7,0.5-1.1,1.2-1.1,2.2C269.2,373.8,269.5,374.4,270,374.8z"/>
			<path class="st4" d="M290.9,361.5h2.4v2.2c0.6-0.8,1.1-1.3,1.6-1.7c0.8-0.6,1.7-0.9,2.7-0.9c1.2,0,2.1,0.3,2.8,0.9
				c0.4,0.4,0.8,0.9,1.1,1.6c0.5-0.8,1.2-1.5,1.9-1.9s1.5-0.6,2.5-0.6c1.9,0,3.3,0.8,4,2.3c0.4,0.8,0.6,1.9,0.6,3.3v10.4h-2.5v-10.9
				c0-1-0.2-1.8-0.7-2.2c-0.5-0.4-1.1-0.6-1.8-0.6c-1,0-1.8,0.3-2.5,1s-1,1.9-1,3.5v9.1h-2.5v-10.2c0-1.1-0.1-1.8-0.4-2.3
				c-0.4-0.7-1.1-1.1-2.1-1.1c-0.9,0-1.8,0.4-2.5,1.2s-1.1,2.2-1.1,4.2v8.3h-2.4V361.5z"/>
			<path class="st4" d="M323.2,361.9c1,0.5,1.7,1.2,2.2,2c0.5,0.8,0.8,1.7,1,2.8c0.1,0.7,0.2,1.9,0.2,3.5H316c0,1.6,0.4,2.9,1,3.8
				c0.6,1,1.6,1.4,3,1.4c1.3,0,2.3-0.5,3-1.4c0.4-0.5,0.7-1.1,0.9-1.8h2.4c-0.1,0.6-0.3,1.2-0.6,1.9c-0.4,0.7-0.8,1.3-1.2,1.7
				c-0.7,0.8-1.6,1.3-2.7,1.6c-0.6,0.2-1.2,0.2-2,0.2c-1.8,0-3.3-0.7-4.6-2.1c-1.2-1.4-1.9-3.4-1.9-6c0-2.5,0.6-4.6,1.9-6.1
				c1.3-1.6,2.9-2.4,4.9-2.4C321.2,361.1,322.2,361.4,323.2,361.9z M324.1,368.1c-0.1-1.1-0.3-2.1-0.7-2.7c-0.7-1.3-1.8-1.9-3.3-1.9
				c-1.1,0-2,0.4-2.8,1.3c-0.8,0.9-1.2,2-1.2,3.3H324.1z"/>
			<path class="st4" d="M337.8,362c0.4,0.3,0.9,0.8,1.5,1.5v-7.9h2.3v21.6h-2.2V375c-0.6,1-1.2,1.7-2,2.1c-0.8,0.4-1.7,0.6-2.7,0.6
				c-1.6,0-3-0.7-4.2-2.2c-1.2-1.5-1.8-3.4-1.8-5.9c0-2.3,0.5-4.3,1.6-5.9c1.1-1.7,2.6-2.5,4.6-2.5C336.1,361.2,337,361.5,337.8,362
				z M332.3,373.7c0.7,1.1,1.7,1.7,3.2,1.7c1.1,0,2-0.5,2.8-1.6c0.7-1,1.1-2.6,1.1-4.5c0-2-0.4-3.5-1.1-4.4c-0.7-1-1.7-1.4-2.8-1.4
				c-1.2,0-2.2,0.5-3,1.5s-1.1,2.5-1.1,4.5C331.3,371.2,331.7,372.6,332.3,373.7z"/>
			<path class="st4" d="M345.4,355.6h2.5v3h-2.5V355.6z M345.4,361.6h2.5v15.6h-2.5V361.6z"/>
			<path class="st4" d="M359.8,362c0.4,0.3,0.9,0.8,1.5,1.5v-7.9h2.3v21.6h-2.2V375c-0.6,1-1.2,1.7-2,2.1c-0.8,0.4-1.7,0.6-2.7,0.6
				c-1.6,0-3-0.7-4.2-2.2c-1.2-1.5-1.8-3.4-1.8-5.9c0-2.3,0.5-4.3,1.6-5.9c1.1-1.7,2.6-2.5,4.6-2.5
				C358.1,361.2,359.1,361.5,359.8,362z M354.4,373.7c0.7,1.1,1.7,1.7,3.2,1.7c1.1,0,2-0.5,2.8-1.6c0.7-1,1.1-2.6,1.1-4.5
				c0-2-0.4-3.5-1.1-4.4c-0.7-1-1.7-1.4-2.8-1.4c-1.2,0-2.2,0.5-3,1.5c-0.8,1-1.1,2.5-1.1,4.5C353.4,371.2,353.7,372.6,354.4,373.7z
				"/>
			<path class="st4" d="M375.2,367.7c0.6-0.1,0.9-0.3,1.1-0.8c0.1-0.2,0.2-0.6,0.2-1c0-0.9-0.3-1.5-0.9-2c-0.6-0.4-1.4-0.6-2.5-0.6
				c-1.3,0-2.2,0.4-2.7,1.1c-0.3,0.4-0.5,1-0.6,1.8h-2.3c0-1.9,0.6-3.3,1.7-4s2.4-1.1,3.9-1.1c1.7,0,3.1,0.4,4.1,1.1
				c1.1,0.7,1.6,1.8,1.6,3.3v9c0,0.3,0.1,0.5,0.2,0.7c0.1,0.2,0.3,0.2,0.7,0.2c0.1,0,0.2,0,0.4,0c0.1,0,0.3,0,0.4-0.1v1.9
				c-0.4,0.1-0.7,0.2-0.9,0.2c-0.2,0-0.5,0-0.8,0c-0.8,0-1.4-0.3-1.8-1c-0.2-0.3-0.3-0.8-0.4-1.5c-0.5,0.7-1.2,1.3-2.1,1.8
				s-1.9,0.8-3.1,0.8c-1.3,0-2.4-0.4-3.3-1.3c-0.8-0.9-1.3-2-1.3-3.3c0-1.5,0.4-2.6,1.3-3.4s1.9-1.3,3.3-1.5L375.2,367.7z
				 M370.1,374.8c0.5,0.4,1.1,0.7,1.8,0.7c0.9,0,1.7-0.2,2.5-0.6c1.3-0.7,2-1.9,2-3.5v-2.1c-0.3,0.2-0.7,0.4-1.1,0.5
				c-0.5,0.1-0.9,0.2-1.4,0.3l-1.5,0.2c-0.9,0.1-1.5,0.3-2,0.6c-0.7,0.5-1.1,1.2-1.1,2.2C369.3,373.8,369.6,374.4,370.1,374.8z"/>
			<path class="st4" d="M384.5,355.6h2.7v7.1l-0.7,9.3h-1.4l-0.7-9.3V355.6z M384.5,374.1h2.7v3h-2.7V374.1z"/>
		</g>
		<line class="st5" x1="48.9" y1="260.6" x2="597.9" y2="260.6"/>
		<line class="st5" x1="48.9" y1="409.9" x2="597.9" y2="409.9"/>
	</g>
	<path class="st6" d="M385.1,446.4h-126c-2.7,0-4.8-2.1-4.8-4.8V437c0-2.7,2.1-4.8,4.8-4.8h126c2.7,0,4.8,2.1,4.8,4.8v4.6
		C389.9,444.2,387.7,446.4,385.1,446.4z"/>
</g>
</svg>
