<?xml version="1.0" encoding="utf-8"?>
<!-- Generator: Adobe Illustrator 26.0.0, SVG Export Plug-In . SVG Version: 6.00 Build 0)  -->
<svg version="1.1" id="Capa_1" xmlns="http://www.w3.org/2000/svg" xmlns:xlink="http://www.w3.org/1999/xlink" x="0px" y="0px"
	 viewBox="0 0 640 220" style="enable-background:new 0 0 640 220;" xml:space="preserve">
<style type="text/css">
	.st0{fill:#DDDDE0;}
	.st1{fill:#363636;}
</style>
<g>
	<path class="st0" d="M16,220h608c8.8,0,16-7.2,16-16V16c0-8.8-7.2-16-16-16H16C7.2,0,0,7.2,0,16v188C0,212.8,7.2,220,16,220z"/>
	<g>
		<path class="st1" d="M178.4,92.4v-2.3h6v-6h2.3v6h6v2.3h-6v6h-2.3v-6H178.4z"/>
		<path class="st1" d="M202.4,78c-1.4,2.8-2.4,4.8-2.8,6.1c-0.6,2-1,4.3-1,6.9s0.4,5.1,1.1,7.2c0.5,1.3,1.4,3.3,2.7,5.8h-1.7
			c-1.3-2.1-2.2-3.4-2.5-4s-0.7-1.4-1-2.3c-0.5-1.3-0.9-2.8-1.1-4.3c-0.1-0.8-0.2-1.6-0.2-2.3c0-2.7,0.4-5.1,1.3-7.2
			c0.5-1.3,1.7-3.3,3.4-6h1.8V78z"/>
		<path class="st1" d="M207.7,95.1c0.2,1.5,0.9,2.5,2.1,3.1c0.6,0.3,1.3,0.4,2.2,0.4c1.6,0,2.7-0.5,3.5-1.5s1.1-2.1,1.1-3.3
			c0-1.5-0.4-2.6-1.3-3.4c-0.9-0.8-2-1.2-3.2-1.2c-0.9,0-1.7,0.2-2.3,0.5s-1.2,0.8-1.7,1.5l-2.3-0.1l1.6-11.3h10.9v2.5h-8.9
			l-0.9,5.8c0.5-0.4,1-0.7,1.4-0.8c0.8-0.3,1.7-0.5,2.7-0.5c1.9,0,3.6,0.6,4.9,1.9s2,2.8,2,4.7c0,2-0.6,3.7-1.8,5.2
			s-3.2,2.3-5.9,2.3c-1.7,0-3.2-0.5-4.5-1.4c-1.3-1-2-2.4-2.2-4.4C205.1,95.1,207.7,95.1,207.7,95.1z"/>
		<path class="st1" d="M231.2,100.4v-5.1H222v-2.6l9.6-13.3h2.2V93h3.1v2.3h-3.1v5.1H231.2z M231.2,93v-9.5l-6.7,9.5H231.2z"/>
		<path class="st1" d="M239.6,106.6c1.6-3,2.6-5.2,3-6.6c0.7-2.1,1-4.6,1-7.4s-0.4-5.4-1.2-7.8c-0.5-1.4-1.5-3.5-2.9-6.2h1.8
			c1.5,2.4,2.4,3.9,2.7,4.4c0.3,0.6,0.7,1.3,1,2.3c0.5,1.2,0.8,2.4,1,3.6s0.3,2.3,0.3,3.4c0,2.9-0.5,5.5-1.4,7.7
			c-0.6,1.5-1.8,3.6-3.6,6.4h-1.7L239.6,106.6L239.6,106.6z"/>
		<path class="st1" d="M253.1,95.4c0.1,1.5,0.6,2.5,1.7,3c0.5,0.3,1.1,0.4,1.8,0.4c1.3,0,2.3-0.5,3.2-1.6c0.9-1.1,1.5-3.2,1.9-6.4
			c-0.6,0.9-1.3,1.6-2.2,2c-0.9,0.4-1.8,0.6-2.8,0.6c-2,0-3.6-0.6-4.8-1.9s-1.8-2.9-1.8-4.9c0-1.9,0.6-3.6,1.7-5s2.9-2.2,5.1-2.2
			c3.1,0,5.2,1.4,6.3,4.1c0.6,1.5,1,3.4,1,5.7c0,2.6-0.4,4.8-1.2,6.8c-1.3,3.3-3.4,5-6.5,5c-2.1,0-3.6-0.5-4.7-1.6s-1.6-2.4-1.6-4
			H253.1z M260,90c0.9-0.7,1.3-1.9,1.3-3.6c0-1.5-0.4-2.7-1.2-3.4c-0.8-0.8-1.8-1.1-3-1.1c-1.3,0-2.3,0.4-3.1,1.3s-1.1,2-1.1,3.5
			c0,1.4,0.3,2.5,1,3.3s1.7,1.2,3.2,1.2C258.1,91.1,259.1,90.7,260,90z"/>
		<path class="st1" d="M289.3,82.8c0.9,1.7,1.4,4.1,1.4,7.1c0,2.9-0.4,5.2-1.3,7.1c-1.2,2.7-3.2,4-6,4c-2.5,0-4.4-1.1-5.6-3.3
			c-1-1.8-1.5-4.3-1.5-7.4c0-2.4,0.3-4.4,0.9-6.1c1.2-3.2,3.2-4.8,6.3-4.8C286.2,79.5,288.1,80.6,289.3,82.8z M286.7,96.8
			c0.8-1.2,1.2-3.5,1.2-6.8c0-2.4-0.3-4.3-0.9-5.9c-0.6-1.5-1.7-2.3-3.4-2.3c-1.6,0-2.7,0.7-3.4,2.2c-0.7,1.5-1.1,3.6-1.1,6.5
			c0,2.1,0.2,3.9,0.7,5.2c0.7,2,1.9,3,3.6,3C284.8,98.6,285.9,98,286.7,96.8z"/>
		<path class="st1" d="M295,99c-1.1-1.4-1.7-3-1.7-5h2.8c0.1,1.4,0.4,2.3,0.8,3c0.7,1.1,1.9,1.7,3.7,1.7c1.4,0,2.5-0.4,3.3-1.1
			s1.3-1.7,1.3-2.9c0-1.4-0.4-2.5-1.3-3s-2.1-0.9-3.7-0.9c-0.2,0-0.4,0-0.5,0c-0.2,0-0.4,0-0.5,0v-2.3c0.3,0,0.5,0,0.7,0.1
			s0.4,0,0.6,0c1,0,1.8-0.2,2.4-0.5c1.1-0.5,1.7-1.5,1.7-2.9c0-1-0.4-1.8-1.1-2.4s-1.6-0.8-2.6-0.8c-1.8,0-3,0.6-3.6,1.8
			c-0.4,0.6-0.6,1.6-0.6,2.8h-2.6c0-1.6,0.3-2.9,0.9-4c1.1-2,3-2.9,5.7-2.9c2.1,0,3.8,0.5,5,1.4c1.2,1,1.8,2.3,1.8,4.1
			c0,1.3-0.3,2.3-1,3.1c-0.4,0.5-1,0.9-1.7,1.2c1.1,0.3,2,0.9,2.6,1.8s0.9,1.9,0.9,3.2c0,2-0.7,3.6-2,4.9s-3.2,1.9-5.6,1.9
			C297.9,101,296.1,100.3,295,99z"/>
		<path class="st1" d="M319.9,100.4v-5.1h-9.2v-2.6l9.6-13.3h2.2V93h3.1v2.3h-3.1v5.1H319.9z M319.8,93v-9.5l-6.7,9.5H319.8z"/>
		<path class="st1" d="M329.2,95.7c0.6-1.3,1.9-2.6,3.8-3.6l2.8-1.6c1.3-0.7,2.1-1.4,2.7-1.9c0.8-0.8,1.2-1.7,1.2-2.8
			c0-1.2-0.4-2.2-1.1-2.9c-0.7-0.7-1.7-1.1-2.9-1.1c-1.8,0-3.1,0.7-3.8,2.1c-0.4,0.7-0.6,1.7-0.6,3h-2.7c0-1.8,0.4-3.3,1-4.5
			c1.1-2,3.2-3,6-3c2.4,0,4.2,0.7,5.3,1.9c1.1,1.3,1.7,2.7,1.7,4.3c0,1.7-0.6,3.1-1.8,4.3c-0.7,0.7-1.9,1.5-3.7,2.5l-2,1.1
			c-1,0.5-1.7,1-2.3,1.5c-1,0.8-1.6,1.8-1.8,2.8h11.5v2.5h-14.4C328.2,98.6,328.6,97.1,329.2,95.7z"/>
		<path class="st1" d="M357.1,95.1c0.2,1.5,0.9,2.5,2.1,3.1c0.6,0.3,1.3,0.4,2.2,0.4c1.6,0,2.7-0.5,3.5-1.5s1.1-2.1,1.1-3.3
			c0-1.5-0.4-2.6-1.3-3.4s-2-1.2-3.2-1.2c-0.9,0-1.7,0.2-2.3,0.5s-1.2,0.8-1.7,1.5l-2.3-0.1l1.6-11.3h10.9v2.5h-8.9l-0.9,5.8
			c0.5-0.4,1-0.7,1.4-0.8c0.8-0.3,1.7-0.5,2.7-0.5c1.9,0,3.6,0.6,4.9,1.9s2,2.8,2,4.7c0,2-0.6,3.7-1.8,5.2c-1.2,1.5-3.2,2.3-5.9,2.3
			c-1.7,0-3.2-0.5-4.5-1.4c-1.3-1-2-2.4-2.2-4.4C354.5,95.1,357.1,95.1,357.1,95.1z"/>
		<path class="st1" d="M380.6,100.4v-5.1h-9.2v-2.6l9.6-13.3h2.2V93h3.1v2.3h-3.1v5.1H380.6z M380.6,93v-9.5l-6.7,9.5H380.6z"/>
		<path class="st1" d="M390.8,88.2c-0.8-0.8-1.2-1.8-1.2-3c0-1.6,0.6-2.9,1.7-4s2.7-1.7,4.8-1.7c2,0,3.6,0.5,4.7,1.6
			s1.7,2.3,1.7,3.7c0,1.3-0.3,2.4-1,3.2c-0.4,0.5-0.9,0.9-1.7,1.3c0.9,0.4,1.6,0.9,2.1,1.4c0.9,1,1.4,2.2,1.4,3.8
			c0,1.8-0.6,3.4-1.9,4.7c-1.2,1.3-3,1.9-5.3,1.9c-2,0-3.8-0.6-5.2-1.7c-1.4-1.1-2.1-2.7-2.1-4.8c0-1.2,0.3-2.3,0.9-3.2
			c0.6-0.9,1.5-1.6,2.7-2.1C391.8,88.9,391.2,88.6,390.8,88.2z M399.3,97.6c0.8-0.7,1.2-1.6,1.2-3s-0.4-2.4-1.2-3.1
			s-1.9-1.1-3.2-1.1c-1.3,0-2.3,0.4-3.1,1.1c-0.8,0.7-1.2,1.7-1.2,3c0,1.1,0.4,2,1.1,2.8s1.9,1.2,3.4,1.2
			C397.5,98.6,398.5,98.3,399.3,97.6z M398.9,87.3c0.7-0.6,1-1.4,1-2.3c0-0.8-0.3-1.5-0.9-2.2s-1.6-1-2.9-1s-2.2,0.3-2.8,1
			s-0.8,1.4-0.8,2.3c0,1,0.4,1.8,1.1,2.3s1.6,0.8,2.6,0.8C397.3,88.2,398.2,87.9,398.9,87.3z"/>
		<path class="st1" d="M409,95.1c0.2,1.5,0.9,2.5,2.1,3.1c0.6,0.3,1.3,0.4,2.2,0.4c1.6,0,2.7-0.5,3.5-1.5s1.1-2.1,1.1-3.3
			c0-1.5-0.4-2.6-1.3-3.4s-2-1.2-3.2-1.2c-0.9,0-1.7,0.2-2.3,0.5s-1.2,0.8-1.7,1.5l-2.3-0.1l1.6-11.3h10.9v2.5h-8.9l-0.9,5.8
			c0.5-0.4,1-0.7,1.4-0.8c0.8-0.3,1.7-0.5,2.7-0.5c1.9,0,3.6,0.6,4.9,1.9s2,2.8,2,4.7c0,2-0.6,3.7-1.8,5.2c-1.2,1.5-3.2,2.3-5.9,2.3
			c-1.7,0-3.2-0.5-4.5-1.4c-1.3-1-2-2.4-2.2-4.4C406.4,95.1,409,95.1,409,95.1z"/>
		<path class="st1" d="M436.2,81.2c0.9,1.2,1.4,2.5,1.4,3.8H435c-0.2-0.8-0.4-1.5-0.7-1.9c-0.6-0.9-1.6-1.3-2.9-1.3
			c-1.5,0-2.6,0.7-3.5,2c-0.9,1.4-1.4,3.3-1.5,5.9c0.6-0.9,1.4-1.6,2.3-2c0.8-0.4,1.8-0.6,2.8-0.6c1.8,0,3.3,0.6,4.6,1.7s2,2.8,2,5
			c0,1.9-0.6,3.6-1.9,5.1c-1.2,1.5-3,2.2-5.3,2.2c-2,0-3.7-0.7-5.1-2.2s-2.1-4-2.1-7.5c0-2.6,0.3-4.8,1-6.6c1.2-3.5,3.5-5.2,6.7-5.2
			C433.7,79.4,435.3,80,436.2,81.2z M434.2,97.2c0.7-0.9,1-2,1-3.3c0-1.1-0.3-2.1-0.9-3.1s-1.7-1.5-3.4-1.5c-1.1,0-2.1,0.4-3,1.1
			s-1.3,1.9-1.3,3.4c0,1.3,0.4,2.4,1.2,3.3c0.8,0.9,1.9,1.4,3.2,1.4C432.5,98.6,433.6,98.2,434.2,97.2z"/>
		<path class="st1" d="M442.2,99c-1.1-1.4-1.7-3-1.7-5h2.8c0.1,1.4,0.4,2.3,0.8,3c0.7,1.1,1.9,1.7,3.7,1.7c1.4,0,2.5-0.4,3.3-1.1
			s1.3-1.7,1.3-2.9c0-1.4-0.4-2.5-1.3-3s-2.1-0.9-3.7-0.9c-0.2,0-0.4,0-0.5,0c-0.2,0-0.4,0-0.5,0v-2.3c0.3,0,0.5,0,0.7,0.1
			s0.4,0,0.6,0c1,0,1.8-0.2,2.4-0.5c1.1-0.5,1.7-1.5,1.7-2.9c0-1-0.4-1.8-1.1-2.4s-1.6-0.8-2.6-0.8c-1.8,0-3,0.6-3.6,1.8
			c-0.4,0.6-0.6,1.6-0.6,2.8h-2.6c0-1.6,0.3-2.9,0.9-4c1.1-2,3-2.9,5.7-2.9c2.1,0,3.8,0.5,5,1.4c1.2,1,1.8,2.3,1.8,4.1
			c0,1.3-0.3,2.3-1,3.1c-0.4,0.5-1,0.9-1.7,1.2c1.1,0.3,2,0.9,2.6,1.8s0.9,1.9,0.9,3.2c0,2-0.7,3.6-2,4.9s-3.5,1.6-5.9,1.6
			C445.1,101,443.3,100.3,442.2,99z"/>
	</g>
	<g>
		<path class="st1" d="M180.4,146.7l4.2,12.8l4.4-12.8h2.9l-5.9,15.7h-2.8l-5.8-15.7H180.4z"/>
		<path class="st1" d="M203.9,147.2c1,0.5,1.8,1.2,2.4,2c0.5,0.8,0.9,1.7,1.1,2.8c0.2,0.7,0.2,1.9,0.2,3.5H196
			c0,1.6,0.4,2.9,1.1,3.8c0.7,1,1.8,1.4,3.3,1.4c1.4,0,2.5-0.5,3.3-1.4c0.5-0.5,0.8-1.1,1-1.8h2.6c-0.1,0.6-0.3,1.2-0.7,1.9
			s-0.8,1.3-1.3,1.7c-0.8,0.8-1.8,1.3-3,1.6c-0.6,0.2-1.4,0.2-2.2,0.2c-2,0-3.6-0.7-5-2.1c-1.4-1.4-2-3.4-2-6c0-2.5,0.7-4.6,2.1-6.1
			s3.2-2.4,5.4-2.4C201.7,146.4,202.8,146.7,203.9,147.2z M204.8,153.3c-0.1-1.1-0.4-2.1-0.7-2.7c-0.7-1.3-1.9-1.9-3.6-1.9
			c-1.2,0-2.2,0.4-3,1.3c-0.8,0.9-1.3,2-1.3,3.3L204.8,153.3L204.8,153.3z"/>
		<path class="st1" d="M221.1,147.6c1.1,0.9,1.8,2.3,2,4.4h-2.6c-0.2-1-0.5-1.8-1.1-2.4c-0.6-0.6-1.5-1-2.7-1
			c-1.7,0-2.9,0.8-3.6,2.5c-0.5,1.1-0.7,2.4-0.7,3.9c0,1.6,0.3,2.9,1,4s1.7,1.6,3.1,1.6c1.1,0,2-0.3,2.6-1s1.1-1.6,1.3-2.7h2.6
			c-0.3,2.1-1,3.6-2.2,4.6s-2.7,1.4-4.5,1.4c-2.1,0-3.7-0.7-4.9-2.2s-1.8-3.4-1.8-5.6c0-2.8,0.7-4.9,2-6.4s3-2.3,5.1-2.3
			C218.6,146.3,220,146.7,221.1,147.6z"/>
		<path class="st1" d="M226.3,142.4h2.7v4.4h2.5v2.2H229v10.2c0,0.5,0.2,0.9,0.6,1.1c0.2,0.1,0.5,0.2,1,0.2c0.1,0,0.3,0,0.4,0
			c0.1,0,0.3,0,0.5,0v2.1c-0.3,0.1-0.6,0.2-0.9,0.2c-0.3,0-0.7,0.1-1.1,0.1c-1.2,0-2.1-0.3-2.5-0.9c-0.4-0.6-0.7-1.4-0.7-2.5v-10.4
			h-2.1v-2.2h2.1V142.4z"/>
		<path class="st1" d="M245.6,148.3c1.4,1.3,2.1,3.3,2.1,5.9c0,2.5-0.6,4.6-1.8,6.3s-3.1,2.5-5.7,2.5c-2.2,0-3.9-0.7-5.1-2.2
			c-1.3-1.5-1.9-3.4-1.9-5.9c0-2.6,0.7-4.7,2-6.3s3.1-2.3,5.4-2.3C242.5,146.3,244.2,147,245.6,148.3z M243.9,158.8
			c0.6-1.3,1-2.8,1-4.4c0-1.5-0.2-2.7-0.7-3.6c-0.7-1.4-2-2.2-3.8-2.2c-1.6,0-2.8,0.6-3.5,1.8s-1.1,2.7-1.1,4.5
			c0,1.7,0.4,3.1,1.1,4.2s1.9,1.7,3.5,1.7C242.1,160.7,243.3,160.1,243.9,158.8z"/>
		<path class="st1" d="M250.9,146.7h2.5v2.7c0.2-0.5,0.7-1.2,1.5-1.9c0.8-0.8,1.7-1.1,2.8-1.1c0,0,0.1,0,0.2,0s0.3,0,0.6,0.1v2.8
			c-0.2,0-0.3,0-0.4-0.1c-0.1,0-0.3,0-0.4,0c-1.3,0-2.3,0.4-3.1,1.3c-0.7,0.9-1.1,1.8-1.1,3v9h-2.6V146.7z"/>
		<path class="st1" d="M270.6,147.2c1,0.5,1.8,1.2,2.4,2c0.5,0.8,0.9,1.7,1.1,2.8c0.2,0.7,0.2,1.9,0.2,3.5h-11.5
			c0,1.6,0.4,2.9,1.1,3.8c0.7,1,1.8,1.4,3.3,1.4c1.4,0,2.5-0.5,3.3-1.4c0.5-0.5,0.8-1.1,1-1.8h2.6c-0.1,0.6-0.3,1.2-0.7,1.9
			c-0.4,0.7-0.8,1.3-1.3,1.7c-0.8,0.8-1.8,1.3-3,1.6c-0.6,0.2-1.4,0.2-2.2,0.2c-2,0-3.6-0.7-5-2.1c-1.4-1.4-2-3.4-2-6
			c0-2.5,0.7-4.6,2.1-6.1s3.2-2.4,5.4-2.4C268.4,146.4,269.5,146.7,270.6,147.2z M271.5,153.3c-0.1-1.1-0.4-2.1-0.7-2.7
			c-0.7-1.3-1.9-1.9-3.6-1.9c-1.2,0-2.2,0.4-3,1.3c-0.8,0.9-1.3,2-1.3,3.3L271.5,153.3L271.5,153.3z"/>
		<path class="st1" d="M279,157.5c0.1,0.9,0.3,1.6,0.7,2c0.7,0.8,1.8,1.3,3.5,1.3c1,0,1.8-0.2,2.6-0.6c0.7-0.4,1.1-1.1,1.1-2
			c0-0.7-0.3-1.2-0.9-1.5c-0.4-0.2-1.1-0.5-2.3-0.7l-2.1-0.5c-1.3-0.3-2.3-0.7-3-1.1c-1.1-0.7-1.7-1.7-1.7-3c0-1.5,0.5-2.7,1.6-3.6
			c1.1-0.9,2.5-1.4,4.3-1.4c2.4,0,4.1,0.7,5.1,2.1c0.7,0.9,1,1.8,1,2.8h-2.5c0-0.6-0.3-1.1-0.6-1.6c-0.6-0.7-1.7-1-3.1-1
			c-1,0-1.8,0.2-2.3,0.6c-0.5,0.4-0.8,0.9-0.8,1.5c0,0.7,0.3,1.2,1,1.6c0.4,0.2,1,0.5,1.7,0.6l1.7,0.4c1.9,0.5,3.2,0.9,3.8,1.3
			c1,0.7,1.5,1.7,1.5,3.2c0,1.4-0.5,2.6-1.6,3.6s-2.7,1.5-4.8,1.5c-2.3,0-4-0.5-5-1.6s-1.5-2.4-1.6-3.9L279,157.5L279,157.5z"/>
		<path class="st1" d="M291.3,160.4l9.3-11.2H292v-2.4h12.2v2.2l-9.2,11.2h9.5v2.4h-13.1v-2.2H291.3z"/>
		<path class="st1" d="M307.5,140.9h2.7v3h-2.7V140.9z M307.5,146.8h2.7v15.6h-2.7V146.8z"/>
		<path class="st1" d="M314.1,146.7h2.5v2.2c0.7-0.9,1.5-1.6,2.4-2s1.8-0.6,2.8-0.6c2.2,0,3.7,0.8,4.5,2.3c0.4,0.8,0.6,2.1,0.6,3.6
			v10.1h-2.7v-9.9c0-1-0.1-1.7-0.4-2.3c-0.5-1-1.3-1.5-2.5-1.5c-0.6,0-1.1,0.1-1.5,0.2c-0.7,0.2-1.4,0.6-1.9,1.3
			c-0.4,0.5-0.7,1.1-0.9,1.6c-0.1,0.6-0.2,1.3-0.2,2.4v8.2h-2.6L314.1,146.7L314.1,146.7z"/>
		<path class="st1" d="M334.8,159.2c-1.8-2-2.7-4.4-2.7-7.1c0-3.2,1.1-5.9,3.2-8.1c2.4-2.5,5.6-3.7,9.6-3.7c3.5,0,6.2,0.9,8.2,2.6
			c1.9,1.7,2.8,3.8,2.8,6.5c0,2.2-0.7,4.1-2,5.7c-1.3,1.6-2.8,2.4-4.5,2.4c-1,0-1.7-0.2-2.1-0.7c-0.5-0.5-0.7-1-0.7-1.7
			c0-0.1,0-0.2,0-0.3s0-0.2,0.1-0.4c-0.5,1.1-1.2,1.9-2,2.4s-1.6,0.7-2.4,0.7c-1.2,0-2.2-0.4-2.9-1.3c-0.7-0.9-1.1-2-1.1-3.4
			c0-1.9,0.6-3.7,1.9-5.1c1.3-1.5,2.6-2.2,4.1-2.2c1,0,1.8,0.3,2.5,0.9s1,1.3,1,2.1l0.7-2.5h2.2l-1.9,6.4c-0.1,0.5-0.3,0.9-0.3,1.2
			s-0.1,0.6-0.1,0.8c0,0.4,0.1,0.8,0.4,1s0.6,0.3,0.9,0.3c1.1,0,2.1-0.6,3-1.7s1.3-2.7,1.3-4.6c0-2.3-0.8-4-2.4-5.3
			s-3.7-1.9-6.4-1.9c-3.7,0-6.5,1.1-8.5,3.3c-1.7,1.8-2.5,4.2-2.5,7c0,2.4,0.8,4.5,2.4,6.2c1.9,2,4.5,2.9,8,2.9
			c1.6,0,3.1-0.3,4.5-0.8s2.7-1.2,3.8-2.1l1,1.3c-0.9,0.8-2.2,1.5-3.9,2.2s-3.7,1-5.8,1C340.2,163.1,337,161.8,334.8,159.2z
			 M346.6,147.7c-0.4-0.5-1-0.7-1.7-0.7c-1.1,0-2.1,0.7-2.9,2s-1.2,2.6-1.2,3.9c0,1,0.2,1.7,0.6,2.2s0.9,0.8,1.6,0.8
			c1.3,0,2.3-0.8,3.1-2.3c0.7-1.5,1.1-2.9,1.1-4.2C347.2,148.7,347,148.2,346.6,147.7z"/>
		<path class="st1" d="M370,147.4c0.5,0.3,1,0.8,1.5,1.5v-2h2.4v14.3c0,2-0.3,3.6-0.9,4.7c-1.1,2.1-3.2,3.2-6.2,3.2
			c-1.7,0-3.1-0.4-4.3-1.1c-1.2-0.8-1.8-1.9-1.9-3.6h2.7c0.1,0.7,0.4,1.2,0.8,1.6c0.6,0.6,1.5,0.9,2.8,0.9c2,0,3.3-0.7,4-2.1
			c0.4-0.8,0.5-2.3,0.5-4.5c-0.5,0.8-1.2,1.4-1.9,1.8s-1.7,0.6-2.9,0.6c-1.7,0-3.2-0.6-4.5-1.8s-1.9-3.2-1.9-6
			c0-2.6,0.6-4.7,1.9-6.2s2.8-2.2,4.7-2.2C368,146.5,369.1,146.8,370,147.4z M370.4,150.2c-0.8-0.9-1.8-1.4-3.1-1.4
			c-1.9,0-3.1,0.9-3.8,2.6c-0.4,0.9-0.5,2.1-0.5,3.6c0,1.8,0.4,3.1,1.1,4s1.7,1.4,2.9,1.4c1.9,0,3.2-0.9,4-2.6
			c0.4-1,0.6-2.1,0.6-3.4C371.6,152.6,371.2,151.1,370.4,150.2z"/>
		<path class="st1" d="M378,146.7h2.6v2.2c0.6-0.8,1.2-1.3,1.7-1.7c0.9-0.6,1.9-0.9,3-0.9c1.2,0,2.3,0.3,3,0.9
			c0.4,0.4,0.8,0.9,1.2,1.6c0.6-0.8,1.3-1.5,2.1-1.9c0.8-0.4,1.7-0.6,2.7-0.6c2.1,0,3.5,0.8,4.3,2.3c0.4,0.8,0.6,1.9,0.6,3.3v10.4
			h-2.7v-10.9c0-1-0.3-1.8-0.8-2.2s-1.2-0.6-1.9-0.6c-1,0-1.9,0.3-2.7,1c-0.7,0.7-1.1,1.8-1.1,3.5v9.1h-2.7V152
			c0-1.1-0.1-1.8-0.4-2.3c-0.4-0.7-1.1-1.1-2.2-1.1c-1,0-1.9,0.4-2.7,1.2s-1.2,2.2-1.2,4.2v8.3H378V146.7z"/>
		<path class="st1" d="M411.4,152.9c0.6-0.1,1-0.3,1.2-0.8c0.1-0.2,0.2-0.6,0.2-1c0-0.9-0.3-1.6-1-2c-0.6-0.4-1.6-0.6-2.7-0.6
			c-1.4,0-2.4,0.4-2.9,1.1c-0.3,0.4-0.5,1-0.6,1.8H403c0-1.9,0.7-3.3,1.9-4c1.2-0.8,2.6-1.1,4.2-1.1c1.8,0,3.3,0.4,4.5,1.1
			c1.1,0.7,1.7,1.8,1.7,3.3v9c0,0.3,0.1,0.5,0.2,0.7s0.3,0.2,0.7,0.2c0.1,0,0.2,0,0.4,0c0.1,0,0.3,0,0.5-0.1v1.9
			c-0.4,0.1-0.7,0.2-0.9,0.2s-0.5,0-0.9,0c-0.9,0-1.6-0.3-2-1c-0.2-0.3-0.4-0.8-0.5-1.4c-0.5,0.7-1.3,1.3-2.3,1.8s-2.1,0.8-3.3,0.8
			c-1.5,0-2.6-0.4-3.6-1.3c-0.9-0.9-1.4-2-1.4-3.3c0-1.5,0.5-2.6,1.4-3.4s2.1-1.3,3.6-1.5L411.4,152.9z M405.8,160.1
			c0.6,0.4,1.2,0.7,2,0.7c0.9,0,1.8-0.2,2.7-0.6c1.5-0.7,2.2-1.9,2.2-3.5v-2.1c-0.3,0.2-0.7,0.4-1.2,0.5s-1,0.2-1.5,0.3l-1.6,0.2
			c-1,0.1-1.7,0.3-2.2,0.6c-0.8,0.5-1.2,1.2-1.2,2.2C405,159,405.2,159.6,405.8,160.1z"/>
		<path class="st1" d="M419.6,140.9h2.7v3h-2.7V140.9z M419.6,146.8h2.7v15.6h-2.7V146.8z"/>
		<path class="st1" d="M426.4,140.9h2.6v21.5h-2.6V140.9z"/>
		<path class="st1" d="M433.6,159.2h3.1v3.2h-3.1V159.2z"/>
		<path class="st1" d="M451.7,147.6c1.1,0.9,1.8,2.3,2,4.4h-2.6c-0.2-1-0.5-1.8-1.1-2.4c-0.6-0.6-1.5-1-2.7-1
			c-1.7,0-2.9,0.8-3.6,2.5c-0.5,1.1-0.7,2.4-0.7,3.9c0,1.6,0.3,2.9,1,4s1.7,1.6,3.1,1.6c1.1,0,2-0.3,2.6-1s1.1-1.6,1.3-2.7h2.6
			c-0.3,2.1-1,3.6-2.2,4.6s-2.7,1.4-4.5,1.4c-2.1,0-3.7-0.7-4.9-2.2c-1.2-1.5-1.8-3.4-1.8-5.6c0-2.8,0.7-4.9,2-6.4s3-2.3,5.1-2.3
			C449.1,146.3,450.6,146.7,451.7,147.6z"/>
		<path class="st1" d="M467.8,148.3c1.4,1.3,2.1,3.3,2.1,5.9c0,2.5-0.6,4.6-1.8,6.3s-3.1,2.5-5.7,2.5c-2.2,0-3.9-0.7-5.1-2.2
			c-1.3-1.5-1.9-3.4-1.9-5.9c0-2.6,0.7-4.7,2-6.3s3.1-2.3,5.4-2.3C464.6,146.3,466.4,147,467.8,148.3z M466.1,158.8
			c0.6-1.3,1-2.8,1-4.4c0-1.5-0.2-2.7-0.7-3.6c-0.7-1.4-2-2.2-3.8-2.2c-1.6,0-2.8,0.6-3.5,1.8s-1.1,2.7-1.1,4.5
			c0,1.7,0.4,3.1,1.1,4.2s1.9,1.7,3.5,1.7C464.3,160.7,465.5,160.1,466.1,158.8z"/>
		<path class="st1" d="M473,146.7h2.6v2.2c0.6-0.8,1.2-1.3,1.7-1.7c0.9-0.6,1.9-0.9,3-0.9c1.2,0,2.3,0.3,3,0.9
			c0.4,0.4,0.8,0.9,1.2,1.6c0.6-0.8,1.3-1.5,2.1-1.9c0.8-0.4,1.7-0.6,2.7-0.6c2.1,0,3.5,0.8,4.3,2.3c0.4,0.8,0.6,1.9,0.6,3.3v10.4
			h-2.7v-10.9c0-1-0.3-1.8-0.8-2.2s-1.2-0.6-1.9-0.6c-1,0-1.9,0.3-2.7,1c-0.7,0.7-1.1,1.8-1.1,3.5v9.1h-2.7V152
			c0-1.1-0.1-1.8-0.4-2.3c-0.4-0.7-1.1-1.1-2.2-1.1c-1,0-1.9,0.4-2.7,1.2s-1.2,2.2-1.2,4.2v8.3H473V146.7z"/>
	</g>
	<g>
		<path class="st1" d="M479.3,17.4c1.4,1.3,2.2,2.9,2.3,4.6H479c-0.3-1.3-0.9-2.3-1.8-3.1c-0.9-0.8-2.2-1.1-3.8-1.1
			c-2,0-3.6,0.7-4.8,2.1s-1.8,3.5-1.8,6.4c0,2.4,0.5,4.3,1.6,5.7c1.1,1.5,2.7,2.2,4.9,2.2c2,0,3.5-0.8,4.6-2.3
			c0.6-0.8,1-1.9,1.2-3.2h2.7c-0.2,2.1-1,3.9-2.4,5.3c-1.6,1.7-3.7,2.6-6.5,2.6c-2.3,0-4.3-0.7-5.9-2.1c-2.1-1.9-3.1-4.8-3.1-8.7
			c0-3,0.8-5.4,2.4-7.3c1.7-2.1,4-3.1,7-3.1C475.9,15.4,477.9,16,479.3,17.4z"/>
		<path class="st1" d="M502.3,18.8c1.3,1.8,2,4.1,2,6.8c0,3-0.8,5.5-2.3,7.5c-1.8,2.3-4.3,3.5-7.6,3.5c-3.1,0-5.5-1-7.3-3.1
			c-1.6-2-2.4-4.5-2.4-7.5c0-2.7,0.7-5,2-7c1.7-2.5,4.3-3.7,7.7-3.7C497.9,15.4,500.6,16.5,502.3,18.8z M499.9,31.6
			c1.1-1.7,1.6-3.7,1.6-5.9c0-2.4-0.6-4.3-1.9-5.7c-1.2-1.4-2.9-2.2-5.1-2.2c-2.1,0-3.8,0.7-5.1,2.1s-2,3.5-2,6.3
			c0,2.2,0.6,4.1,1.7,5.6c1.1,1.5,3,2.3,5.5,2.3C497.1,34.2,498.8,33.3,499.9,31.6z"/>
		<path class="st1" d="M508.1,15.9h3.2l10.1,16.3V15.9h2.6V36h-3l-10.3-16.3V36h-2.6V15.9z"/>
		<path class="st1" d="M543.4,15.9v2.4h-6.8V36h-2.8V18.3H527v-2.4H543.4z"/>
		<path class="st1" d="M550.3,15.9h3.1l7.3,20.1h-3l-2-6h-7.9l-2.2,6h-2.8L550.3,15.9z M554.7,27.8l-3-8.9l-3.2,8.9H554.7z"/>
		<path class="st1" d="M578.1,17.4c1.4,1.3,2.2,2.9,2.3,4.6h-2.7c-0.3-1.3-0.9-2.3-1.8-3.1s-2.2-1.1-3.8-1.1c-2,0-3.6,0.7-4.8,2.1
			s-1.8,3.5-1.8,6.4c0,2.4,0.5,4.3,1.6,5.7c1.1,1.5,2.7,2.2,4.9,2.2c2,0,3.5-0.8,4.6-2.3c0.6-0.8,1-1.9,1.2-3.2h2.7
			c-0.2,2.1-1,3.9-2.4,5.3c-1.6,1.7-3.7,2.6-6.5,2.6c-2.3,0-4.3-0.7-5.9-2.1c-2.1-1.9-3.1-4.8-3.1-8.7c0-3,0.8-5.4,2.4-7.3
			c1.7-2.1,4-3.1,7-3.1C574.7,15.4,576.6,16,578.1,17.4z"/>
		<path class="st1" d="M599.1,15.9v2.4h-6.8V36h-2.8V18.3h-6.8v-2.4H599.1z"/>
		<path class="st1" d="M618.2,18.8c1.3,1.8,2,4.1,2,6.8c0,3-0.8,5.5-2.3,7.5c-1.8,2.3-4.3,3.5-7.6,3.5c-3.1,0-5.5-1-7.3-3.1
			c-1.6-2-2.4-4.5-2.4-7.5c0-2.7,0.7-5,2-7c1.7-2.5,4.3-3.7,7.7-3.7C613.8,15.4,616.5,16.5,618.2,18.8z M615.8,31.6
			c1.1-1.7,1.6-3.7,1.6-5.9c0-2.4-0.6-4.3-1.9-5.7c-1.2-1.4-2.9-2.2-5.1-2.2c-2.1,0-3.8,0.7-5.1,2.1s-2,3.5-2,6.3
			c0,2.2,0.6,4.1,1.7,5.6c1.1,1.5,3,2.3,5.5,2.3C613,34.2,614.7,33.3,615.8,31.6z"/>
	</g>
</g>
</svg>
