<?xml version="1.0" encoding="utf-8"?>
<!-- Generator: Adobe Illustrator 26.0.0, SVG Export Plug-In . SVG Version: 6.00 Build 0)  -->
<svg version="1.1" id="Capa_1" xmlns="http://www.w3.org/2000/svg" xmlns:xlink="http://www.w3.org/1999/xlink" x="0px" y="0px"
	 viewBox="0 0 314 168" style="enable-background:new 0 0 314 168;" xml:space="preserve">
<style type="text/css">
	.st0{fill:url(#SVGID_1_);}
	.st1{fill:url(#SVGID_00000177469880389831690370000016931322195437666455_);}
	.st2{fill:url(#SVGID_00000016035838079104551040000009925588246470162600_);}
	.st3{fill:url(#SVGID_00000023269951232552093840000000270407319625990582_);}
	.st4{fill:url(#SVGID_00000177464906869220194200000001349635571429501319_);}
	.st5{fill:url(#SVGID_00000031902434943328106020000016604902488213748667_);}
	.st6{fill:#5B5B69;}
	.st7{fill:url(#SVGID_00000114038130497885259770000003309575778991597235_);}
	.st8{fill:url(#SVGID_00000090293787582239852270000015507167782828723124_);}
	.st9{fill:url(#SVGID_00000181048859987173485330000005440971951603077302_);}
	.st10{fill:url(#SVGID_00000011711373186829798470000006868611825279847063_);}
	.st11{fill:url(#SVGID_00000026141812189222992340000014992610308034277791_);}
	.st12{fill:url(#SVGID_00000108296304526656438190000001465773979693946012_);}
</style>
<g>
	<g>
		<linearGradient id="SVGID_1_" gradientUnits="userSpaceOnUse" x1="40.9948" y1="-96.8869" x2="40.9948" y2="201.7032">
			<stop  offset="0.438" style="stop-color:#57596B"/>
			<stop  offset="0.6531" style="stop-color:#83838E"/>
		</linearGradient>
		<path class="st0" d="M61.9,92.4H35.4l29.8-35.3c1.5-1.8,2.5-3.9,2.5-5.8c0-4.5-2.3-7.6-6.6-7.6H22.8c-3,0-6.5,1.8-6.5,6.8
			c0,5,3.5,6.8,6.5,6.8h23.3L15.7,92.9c-1.4,1.7-2.1,3.8-2.1,6.3c0,3.5,2.4,6.8,7.2,6.8h41.1c3,0,6.5-1.8,6.5-6.8
			C68.4,94.2,64.8,92.4,61.9,92.4z"/>
		
			<linearGradient id="SVGID_00000161599012686725671970000002770894192868890504_" gradientUnits="userSpaceOnUse" x1="107.7911" y1="-96.8869" x2="107.7911" y2="201.7032">
			<stop  offset="0.438" style="stop-color:#57596B"/>
			<stop  offset="0.6531" style="stop-color:#787884"/>
		</linearGradient>
		<path style="fill:url(#SVGID_00000161599012686725671970000002770894192868890504_);" d="M108.5,42.1C89.4,42.1,78,55.7,78,76
			c0,15.1,8.5,31.6,31,31.6c9.7,0,25.3-4.9,25.3-15.4c0-3.2-2.8-6.8-6.6-6.8c-6.5,0-6.5,8.6-18.7,8.6c-9.4,0-14.9-6.7-14.9-15.9
			h36.4c5.4,0,7.1-1.6,7.1-7.5C137.6,56.3,127,42.1,108.5,42.1z M94.1,67.4c2.1-9.9,7.7-15.3,15.3-15.3c9.2,0,14.6,6.1,14.6,15.3
			H94.1z"/>
		
			<linearGradient id="SVGID_00000085211905738022028020000010942959948771871673_" gradientUnits="userSpaceOnUse" x1="179.7267" y1="-96.8869" x2="179.7267" y2="201.7032">
			<stop  offset="0.438" style="stop-color:#57596B"/>
			<stop  offset="0.6531" style="stop-color:#787884"/>
		</linearGradient>
		<path style="fill:url(#SVGID_00000085211905738022028020000010942959948771871673_);" d="M186.9,42.1c-9.3,0-15.3,4.5-19.9,11
			h-0.2v-2.3c0-5.2-2.3-8.7-7.4-8.7c-5.2,0-7.4,3.5-7.4,8.7v48.1c0,4.7,1.8,8.7,8.2,8.7c6.4,0,8.2-4.1,8.2-8.7V70.1
			c0-8.7,6.8-13.7,12.5-13.7c7.1,0,10.4,5,10.4,12v30.4c0,4.7,1.8,8.7,8.2,8.7c6.4,0,8.2-4.1,8.2-8.7V65
			C207.6,47.3,196.8,42.1,186.9,42.1z"/>
		
			<linearGradient id="SVGID_00000099629380527280695440000014224497026355602816_" gradientUnits="userSpaceOnUse" x1="234.9653" y1="-99.9369" x2="234.9653" y2="198.6531">
			<stop  offset="0.438" style="stop-color:#57596B"/>
			<stop  offset="0.6531" style="stop-color:#787884"/>
		</linearGradient>
		<path style="fill:url(#SVGID_00000099629380527280695440000014224497026355602816_);" d="M235,15.1c-4.7,0-8.6,4.1-8.6,9.1
			c0,5,3.8,9.1,8.6,9.1c4.7,0,8.6-4.1,8.6-9.1C243.5,19.1,239.7,15.1,235,15.1z"/>
		
			<linearGradient id="SVGID_00000152231579623786222140000001464889964114670989_" gradientUnits="userSpaceOnUse" x1="234.965" y1="-96.8869" x2="234.965" y2="201.7032">
			<stop  offset="0.438" style="stop-color:#57596B"/>
			<stop  offset="0.6531" style="stop-color:#787884"/>
		</linearGradient>
		<path style="fill:url(#SVGID_00000152231579623786222140000001464889964114670989_);" d="M235,42.1c-6.4,0-8.2,4.1-8.2,8.7v48.1
			c0,4.7,1.8,8.7,8.2,8.7c6.4,0,8.2-4.1,8.2-8.7V50.8C243.2,46.1,241.4,42.1,235,42.1z"/>
		
			<linearGradient id="SVGID_00000015343572891928099400000009559004007364371353_" gradientUnits="userSpaceOnUse" x1="276.9136" y1="-96.8869" x2="276.9136" y2="201.7032">
			<stop  offset="0.438" style="stop-color:#57596B"/>
			<stop  offset="0.6531" style="stop-color:#787884"/>
		</linearGradient>
		<path style="fill:url(#SVGID_00000015343572891928099400000009559004007364371353_);" d="M290.3,94h-2.4c-2.9,0-4.3-1.4-4.3-4.1
			V55.1h5c4.8,0,7.4-1.6,7.4-5.7c0-4.2-2.6-5.7-7.4-5.7h-5V33c0-5.7-3.3-8.7-8.2-8.7s-8.2,3-8.2,8.7v10.6h-2.8
			c-4.6,0-6.5,1.9-6.5,5.7s1.9,5.7,6.5,5.7h2.8v37c0,10.3,5,15.5,16.9,15.5c7.9,0,11.9-2.7,11.9-7.8C296,96.1,293.9,94,290.3,94z"/>
	</g>
	<g>
		<g>
			<g>
				<path class="st6" d="M135,133.2c1.7,0.8,3,1.9,3.8,3.3c0.8,1.3,1.4,2.8,1.7,4.5c0.3,1.2,0.4,3,0.4,5.6h-18.5
					c0.1,2.6,0.7,4.6,1.8,6.2c1.1,1.5,2.9,2.3,5.3,2.3c2.2,0,4-0.7,5.3-2.2c0.8-0.8,1.3-1.8,1.6-2.9h4.2c-0.1,0.9-0.5,2-1.1,3.1
					s-1.3,2.1-2.1,2.8c-1.3,1.3-2.9,2.1-4.8,2.5c-1,0.3-2.2,0.4-3.5,0.4c-3.1,0-5.8-1.1-8-3.4s-3.3-5.5-3.3-9.6
					c0-4.1,1.1-7.3,3.3-9.9c2.2-2.5,5.1-3.8,8.6-3.8C131.5,131.9,133.3,132.3,135,133.2z M136.5,143.1c-0.2-1.8-0.6-3.3-1.2-4.4
					c-1.2-2-3.1-3.1-5.8-3.1c-1.9,0-3.6,0.7-4.9,2.1c-1.3,1.4-2,3.2-2.1,5.4H136.5z"/>
				<path class="st6" d="M152.5,149.8c0.1,1.4,0.5,2.5,1.1,3.3c1.1,1.4,2.9,2.1,5.6,2.1c1.6,0,3-0.3,4.1-1c1.2-0.7,1.8-1.7,1.8-3.2
					c0-1.1-0.5-1.9-1.4-2.5c-0.6-0.3-1.8-0.7-3.6-1.2l-3.4-0.8c-2.2-0.5-3.7-1.1-4.8-1.8c-1.8-1.1-2.7-2.7-2.7-4.8
					c0-2.4,0.9-4.3,2.6-5.8c1.7-1.5,4-2.2,6.9-2.2c3.8,0,6.5,1.1,8.2,3.3c1.1,1.4,1.6,2.9,1.5,4.6h-4c-0.1-1-0.4-1.8-1-2.6
					c-1-1.1-2.7-1.7-5.1-1.7c-1.6,0-2.8,0.3-3.6,0.9s-1.2,1.4-1.2,2.4c0,1.1,0.5,2,1.6,2.6c0.6,0.4,1.6,0.7,2.8,1l2.8,0.7
					c3,0.7,5.1,1.5,6.1,2.1c1.6,1.1,2.5,2.8,2.5,5.1c0,2.2-0.9,4.2-2.6,5.8c-1.7,1.6-4.3,2.5-7.8,2.5c-3.8,0-6.4-0.9-8-2.6
					c-1.6-1.7-2.4-3.8-2.5-6.3H152.5z"/>
				<path class="st6" d="M178.8,125.4h4.3v7h4v3.5h-4v16.5c0,0.9,0.3,1.5,0.9,1.8c0.3,0.2,0.9,0.3,1.6,0.3c0.2,0,0.4,0,0.7,0
					c0.2,0,0.5,0,0.8-0.1v3.3c-0.5,0.1-1,0.2-1.5,0.3s-1.1,0.1-1.7,0.1c-2,0-3.3-0.5-4-1.5c-0.7-1-1.1-2.3-1.1-3.9V136h-3.4v-3.5
					h3.4V125.4z"/>
				<path class="st6" d="M199.4,132.5v16.8c0,1.3,0.2,2.3,0.6,3.2c0.8,1.5,2.2,2.3,4.2,2.3c3,0,5-1.3,6-4c0.6-1.4,0.9-3.4,0.9-5.8
					v-12.4h4.2v25.2h-4l0-3.7c-0.6,1-1.2,1.8-2.1,2.4c-1.6,1.3-3.6,2-5.9,2c-3.6,0-6-1.2-7.4-3.6c-0.7-1.3-1.1-3-1.1-5.2v-17.2
					H199.4z"/>
				<path class="st6" d="M239.8,133.3c0.8,0.5,1.6,1.3,2.6,2.5V123h4.1v34.7h-3.8v-3.5c-1,1.6-2.2,2.7-3.5,3.4c-1.4,0.7-2.9,1-4.6,1
					c-2.8,0-5.2-1.2-7.3-3.5c-2.1-2.4-3.1-5.5-3.1-9.4c0-3.7,0.9-6.9,2.8-9.6c1.9-2.7,4.6-4,8-4C236.9,132,238.5,132.5,239.8,133.3z
					 M230.3,152.2c1.1,1.8,3,2.7,5.5,2.7c2,0,3.6-0.8,4.8-2.5c1.3-1.7,1.9-4.1,1.9-7.3c0-3.2-0.7-5.5-2-7.1
					c-1.3-1.5-2.9-2.3-4.8-2.3c-2.1,0-3.9,0.8-5.2,2.5s-2,4-2,7.2C228.6,148.1,229.2,150.4,230.3,152.2z"/>
				<path class="st6" d="M256.6,123.1h4.3v4.8h-4.3V123.1z M256.6,132.6h4.3v25.1h-4.3V132.6z"/>
				<path class="st6" d="M289.6,135c2.2,2.2,3.4,5.4,3.4,9.6c0,4.1-1,7.4-3,10.1s-5.1,4-9.2,4c-3.5,0-6.2-1.2-8.3-3.5
					c-2-2.3-3.1-5.5-3.1-9.5c0-4.2,1.1-7.6,3.2-10.1c2.2-2.5,5-3.8,8.7-3.8C284.6,131.8,287.4,132.8,289.6,135z M287,151.8
					c1-2.1,1.6-4.5,1.6-7.1c0-2.4-0.4-4.3-1.1-5.8c-1.2-2.3-3.3-3.5-6.2-3.5c-2.6,0-4.5,1-5.7,3c-1.2,2-1.8,4.4-1.8,7.2
					c0,2.7,0.6,4.9,1.8,6.7s3,2.7,5.6,2.7C284,155,285.9,153.9,287,151.8z"/>
			</g>
		</g>
	</g>
</g>
<g>
	<g>
		
			<linearGradient id="SVGID_00000061457379522005576250000003861332495132602776_" gradientUnits="userSpaceOnUse" x1="40.9948" y1="-96.8869" x2="40.9948" y2="201.7032">
			<stop  offset="0.438" style="stop-color:#57596B"/>
			<stop  offset="0.6531" style="stop-color:#83838E"/>
		</linearGradient>
		<path style="fill:url(#SVGID_00000061457379522005576250000003861332495132602776_);" d="M61.9,92.4H35.4l29.8-35.3
			c1.5-1.8,2.5-3.9,2.5-5.8c0-4.5-2.3-7.6-6.6-7.6H22.8c-3,0-6.5,1.8-6.5,6.8c0,5,3.5,6.8,6.5,6.8h23.3L15.7,92.9
			c-1.4,1.7-2.1,3.8-2.1,6.3c0,3.5,2.4,6.8,7.2,6.8h41.1c3,0,6.5-1.8,6.5-6.8C68.4,94.2,64.8,92.4,61.9,92.4z"/>
		
			<linearGradient id="SVGID_00000033344911193531481380000011056000308331025582_" gradientUnits="userSpaceOnUse" x1="107.7911" y1="-96.8869" x2="107.7911" y2="201.7032">
			<stop  offset="0.438" style="stop-color:#57596B"/>
			<stop  offset="0.6531" style="stop-color:#787884"/>
		</linearGradient>
		<path style="fill:url(#SVGID_00000033344911193531481380000011056000308331025582_);" d="M108.5,42.1C89.4,42.1,78,55.7,78,76
			c0,15.1,8.5,31.6,31,31.6c9.7,0,25.3-4.9,25.3-15.4c0-3.2-2.8-6.8-6.6-6.8c-6.5,0-6.5,8.6-18.7,8.6c-9.4,0-14.9-6.7-14.9-15.9
			h36.4c5.4,0,7.1-1.6,7.1-7.5C137.6,56.3,127,42.1,108.5,42.1z M94.1,67.4c2.1-9.9,7.7-15.3,15.3-15.3c9.2,0,14.6,6.1,14.6,15.3
			H94.1z"/>
		
			<linearGradient id="SVGID_00000041276558180639244570000011373011079232667534_" gradientUnits="userSpaceOnUse" x1="179.7267" y1="-96.8869" x2="179.7267" y2="201.7032">
			<stop  offset="0.438" style="stop-color:#57596B"/>
			<stop  offset="0.6531" style="stop-color:#787884"/>
		</linearGradient>
		<path style="fill:url(#SVGID_00000041276558180639244570000011373011079232667534_);" d="M186.9,42.1c-9.3,0-15.3,4.5-19.9,11
			h-0.2v-2.3c0-5.2-2.3-8.7-7.4-8.7c-5.2,0-7.4,3.5-7.4,8.7v48.1c0,4.7,1.8,8.7,8.2,8.7c6.4,0,8.2-4.1,8.2-8.7V70.1
			c0-8.7,6.8-13.7,12.5-13.7c7.1,0,10.4,5,10.4,12v30.4c0,4.7,1.8,8.7,8.2,8.7c6.4,0,8.2-4.1,8.2-8.7V65
			C207.6,47.3,196.8,42.1,186.9,42.1z"/>
		
			<linearGradient id="SVGID_00000090996934342830267830000010238177928447699861_" gradientUnits="userSpaceOnUse" x1="234.9653" y1="-99.9369" x2="234.9653" y2="198.6531">
			<stop  offset="0.438" style="stop-color:#57596B"/>
			<stop  offset="0.6531" style="stop-color:#787884"/>
		</linearGradient>
		<path style="fill:url(#SVGID_00000090996934342830267830000010238177928447699861_);" d="M235,15.1c-4.7,0-8.6,4.1-8.6,9.1
			c0,5,3.8,9.1,8.6,9.1c4.7,0,8.6-4.1,8.6-9.1C243.5,19.1,239.7,15.1,235,15.1z"/>
		
			<linearGradient id="SVGID_00000074403357405129860940000001677037390906604464_" gradientUnits="userSpaceOnUse" x1="234.965" y1="-96.8869" x2="234.965" y2="201.7032">
			<stop  offset="0.438" style="stop-color:#57596B"/>
			<stop  offset="0.6531" style="stop-color:#787884"/>
		</linearGradient>
		<path style="fill:url(#SVGID_00000074403357405129860940000001677037390906604464_);" d="M235,42.1c-6.4,0-8.2,4.1-8.2,8.7v48.1
			c0,4.7,1.8,8.7,8.2,8.7c6.4,0,8.2-4.1,8.2-8.7V50.8C243.2,46.1,241.4,42.1,235,42.1z"/>
		
			<linearGradient id="SVGID_00000039094904277275647380000001054123726391501756_" gradientUnits="userSpaceOnUse" x1="276.9136" y1="-96.8869" x2="276.9136" y2="201.7032">
			<stop  offset="0.438" style="stop-color:#57596B"/>
			<stop  offset="0.6531" style="stop-color:#787884"/>
		</linearGradient>
		<path style="fill:url(#SVGID_00000039094904277275647380000001054123726391501756_);" d="M290.3,94h-2.4c-2.9,0-4.3-1.4-4.3-4.1
			V55.1h5c4.8,0,7.4-1.6,7.4-5.7c0-4.2-2.6-5.7-7.4-5.7h-5V33c0-5.7-3.3-8.7-8.2-8.7s-8.2,3-8.2,8.7v10.6h-2.8
			c-4.6,0-6.5,1.9-6.5,5.7s1.9,5.7,6.5,5.7h2.8v37c0,10.3,5,15.5,16.9,15.5c7.9,0,11.9-2.7,11.9-7.8C296,96.1,293.9,94,290.3,94z"/>
	</g>
	<g>
		<g>
			<g>
				<path class="st6" d="M135,133.2c1.7,0.8,3,1.9,3.8,3.3c0.8,1.3,1.4,2.8,1.7,4.5c0.3,1.2,0.4,3,0.4,5.6h-18.5
					c0.1,2.6,0.7,4.6,1.8,6.2c1.1,1.5,2.9,2.3,5.3,2.3c2.2,0,4-0.7,5.3-2.2c0.8-0.8,1.3-1.8,1.6-2.9h4.2c-0.1,0.9-0.5,2-1.1,3.1
					s-1.3,2.1-2.1,2.8c-1.3,1.3-2.9,2.1-4.8,2.5c-1,0.3-2.2,0.4-3.5,0.4c-3.1,0-5.8-1.1-8-3.4s-3.3-5.5-3.3-9.6
					c0-4.1,1.1-7.3,3.3-9.9c2.2-2.5,5.1-3.8,8.6-3.8C131.5,131.9,133.3,132.3,135,133.2z M136.5,143.1c-0.2-1.8-0.6-3.3-1.2-4.4
					c-1.2-2-3.1-3.1-5.8-3.1c-1.9,0-3.6,0.7-4.9,2.1c-1.3,1.4-2,3.2-2.1,5.4H136.5z"/>
				<path class="st6" d="M152.5,149.8c0.1,1.4,0.5,2.5,1.1,3.3c1.1,1.4,2.9,2.1,5.6,2.1c1.6,0,3-0.3,4.1-1c1.2-0.7,1.8-1.7,1.8-3.2
					c0-1.1-0.5-1.9-1.4-2.5c-0.6-0.3-1.8-0.7-3.6-1.2l-3.4-0.8c-2.2-0.5-3.7-1.1-4.8-1.8c-1.8-1.1-2.7-2.7-2.7-4.8
					c0-2.4,0.9-4.3,2.6-5.8c1.7-1.5,4-2.2,6.9-2.2c3.8,0,6.5,1.1,8.2,3.3c1.1,1.4,1.6,2.9,1.5,4.6h-4c-0.1-1-0.4-1.8-1-2.6
					c-1-1.1-2.7-1.7-5.1-1.7c-1.6,0-2.8,0.3-3.6,0.9s-1.2,1.4-1.2,2.4c0,1.1,0.5,2,1.6,2.6c0.6,0.4,1.6,0.7,2.8,1l2.8,0.7
					c3,0.7,5.1,1.5,6.1,2.1c1.6,1.1,2.5,2.8,2.5,5.1c0,2.2-0.9,4.2-2.6,5.8c-1.7,1.6-4.3,2.5-7.8,2.5c-3.8,0-6.4-0.9-8-2.6
					c-1.6-1.7-2.4-3.8-2.5-6.3H152.5z"/>
				<path class="st6" d="M178.8,125.4h4.3v7h4v3.5h-4v16.5c0,0.9,0.3,1.5,0.9,1.8c0.3,0.2,0.9,0.3,1.6,0.3c0.2,0,0.4,0,0.7,0
					c0.2,0,0.5,0,0.8-0.1v3.3c-0.5,0.1-1,0.2-1.5,0.3s-1.1,0.1-1.7,0.1c-2,0-3.3-0.5-4-1.5c-0.7-1-1.1-2.3-1.1-3.9V136h-3.4v-3.5
					h3.4V125.4z"/>
				<path class="st6" d="M199.4,132.5v16.8c0,1.3,0.2,2.3,0.6,3.2c0.8,1.5,2.2,2.3,4.2,2.3c3,0,5-1.3,6-4c0.6-1.4,0.9-3.4,0.9-5.8
					v-12.4h4.2v25.2h-4l0-3.7c-0.6,1-1.2,1.8-2.1,2.4c-1.6,1.3-3.6,2-5.9,2c-3.6,0-6-1.2-7.4-3.6c-0.7-1.3-1.1-3-1.1-5.2v-17.2
					H199.4z"/>
				<path class="st6" d="M239.8,133.3c0.8,0.5,1.6,1.3,2.6,2.5V123h4.1v34.7h-3.8v-3.5c-1,1.6-2.2,2.7-3.5,3.4c-1.4,0.7-2.9,1-4.6,1
					c-2.8,0-5.2-1.2-7.3-3.5c-2.1-2.4-3.1-5.5-3.1-9.4c0-3.7,0.9-6.9,2.8-9.6c1.9-2.7,4.6-4,8-4C236.9,132,238.5,132.5,239.8,133.3z
					 M230.3,152.2c1.1,1.8,3,2.7,5.5,2.7c2,0,3.6-0.8,4.8-2.5c1.3-1.7,1.9-4.1,1.9-7.3c0-3.2-0.7-5.5-2-7.1
					c-1.3-1.5-2.9-2.3-4.8-2.3c-2.1,0-3.9,0.8-5.2,2.5s-2,4-2,7.2C228.6,148.1,229.2,150.4,230.3,152.2z"/>
				<path class="st6" d="M256.6,123.1h4.3v4.8h-4.3V123.1z M256.6,132.6h4.3v25.1h-4.3V132.6z"/>
				<path class="st6" d="M289.6,135c2.2,2.2,3.4,5.4,3.4,9.6c0,4.1-1,7.4-3,10.1s-5.1,4-9.2,4c-3.5,0-6.2-1.2-8.3-3.5
					c-2-2.3-3.1-5.5-3.1-9.5c0-4.2,1.1-7.6,3.2-10.1c2.2-2.5,5-3.8,8.7-3.8C284.6,131.8,287.4,132.8,289.6,135z M287,151.8
					c1-2.1,1.6-4.5,1.6-7.1c0-2.4-0.4-4.3-1.1-5.8c-1.2-2.3-3.3-3.5-6.2-3.5c-2.6,0-4.5,1-5.7,3c-1.2,2-1.8,4.4-1.8,7.2
					c0,2.7,0.6,4.9,1.8,6.7s3,2.7,5.6,2.7C284,155,285.9,153.9,287,151.8z"/>
			</g>
		</g>
	</g>
</g>
</svg>
