<?xml version="1.0" encoding="utf-8"?>
<!-- Generator: Adobe Illustrator 26.0.0, SVG Export Plug-In . SVG Version: 6.00 Build 0)  -->
<svg version="1.1" id="Capa_1" xmlns="http://www.w3.org/2000/svg" xmlns:xlink="http://www.w3.org/1999/xlink" x="0px" y="0px"
	 viewBox="0 0 250 250" style="enable-background:new 0 0 250 250;" xml:space="preserve">
<style type="text/css">
	.st0{fill:url(#SVGID_1_);}
	.st1{fill:url(#SVGID_00000087385802408637710560000005947231626274285964_);}
	.st2{fill:url(#SVGID_00000139295192643151683210000018063183882600286652_);}
	.st3{fill:url(#SVGID_00000017487119377857259350000014611154828575935673_);}
	.st4{fill:url(#SVGID_00000089538593448420710590000018286763673172632251_);}
	.st5{fill:url(#SVGID_00000146497814537339716510000018218904842649974160_);}
	.st6{fill:#5B5B69;}
</style>
<g>
	<g>
		<linearGradient id="SVGID_1_" gradientUnits="userSpaceOnUse" x1="80.6427" y1="43.9079" x2="80.6427" y2="165.0514">
			<stop  offset="0.438" style="stop-color:#57596B"/>
			<stop  offset="0.6531" style="stop-color:#83838E"/>
		</linearGradient>
		<path class="st0" d="M89.1,120.7H78.4l12.1-14.3c0.6-0.7,1-1.6,1-2.4c0-1.8-0.9-3.1-2.7-3.1H73.3c-1.2,0-2.6,0.7-2.6,2.8
			c0,2,1.4,2.8,2.6,2.8h9.5l-12.3,14.5c-0.6,0.7-0.9,1.5-0.9,2.6c0,1.4,1,2.8,2.9,2.8h16.7c1.2,0,2.6-0.7,2.6-2.8
			S90.3,120.7,89.1,120.7z"/>
		
			<linearGradient id="SVGID_00000181067434571845837880000002904688017307183233_" gradientUnits="userSpaceOnUse" x1="107.7432" y1="43.9079" x2="107.7432" y2="165.0514">
			<stop  offset="0.438" style="stop-color:#57596B"/>
			<stop  offset="0.6531" style="stop-color:#787884"/>
		</linearGradient>
		<path style="fill:url(#SVGID_00000181067434571845837880000002904688017307183233_);" d="M108,100.3c-7.8,0-12.4,5.5-12.4,13.7
			c0,6.1,3.4,12.8,12.6,12.8c3.9,0,10.3-2,10.3-6.2c0-1.3-1.1-2.8-2.7-2.8c-2.6,0-2.6,3.5-7.6,3.5c-3.8,0-6-2.7-6-6.4H117
			c2.2,0,2.9-0.6,2.9-3C119.8,106.1,115.5,100.3,108,100.3z M102.2,110.5c0.8-4,3.1-5.3,6.2-5.3c3.7,0,6,2,5.9,5.3H102.2z"/>
		
			<linearGradient id="SVGID_00000013170449771578491140000013578500359058107824_" gradientUnits="userSpaceOnUse" x1="136.9288" y1="43.9079" x2="136.9288" y2="165.0514">
			<stop  offset="0.438" style="stop-color:#57596B"/>
			<stop  offset="0.6531" style="stop-color:#787884"/>
		</linearGradient>
		<path style="fill:url(#SVGID_00000013170449771578491140000013578500359058107824_);" d="M139.8,100.3c-3.8,0-6.2,1.8-8.1,4.5
			h-0.1v-0.9c0-2.1-0.9-3.5-3-3.5c-2.1,0-3,1.4-3,3.5v19.5c0,1.9,0.7,3.5,3.3,3.5c2.6,0,3.3-1.6,3.3-3.5v-11.7
			c0-3.5,2.7-5.6,5.1-5.6c2.9,0,4.2,2,4.2,4.9v12.3c0,1.9,0.7,3.5,3.3,3.5s3.3-1.6,3.3-3.5v-13.7
			C148.2,102.4,143.9,100.3,139.8,100.3z"/>
		
			<linearGradient id="SVGID_00000176004548903811310330000008870128990190834098_" gradientUnits="userSpaceOnUse" x1="159.3401" y1="42.6705" x2="159.3401" y2="163.8139">
			<stop  offset="0.438" style="stop-color:#57596B"/>
			<stop  offset="0.6531" style="stop-color:#787884"/>
		</linearGradient>
		<path style="fill:url(#SVGID_00000176004548903811310330000008870128990190834098_);" d="M159.3,89.3c-1.9,0-3.5,1.6-3.5,3.7
			c0,2,1.6,3.7,3.5,3.7c1.9,0,3.5-1.6,3.5-3.7C162.8,91,161.3,89.3,159.3,89.3z"/>
		
			<linearGradient id="SVGID_00000013915896290196047130000000742801011814704283_" gradientUnits="userSpaceOnUse" x1="159.34" y1="43.9079" x2="159.34" y2="165.0514">
			<stop  offset="0.438" style="stop-color:#57596B"/>
			<stop  offset="0.6531" style="stop-color:#787884"/>
		</linearGradient>
		<path style="fill:url(#SVGID_00000013915896290196047130000000742801011814704283_);" d="M159.3,100.3c-2.6,0-3.3,1.6-3.3,3.5
			v19.5c0,1.9,0.7,3.5,3.3,3.5c2.6,0,3.3-1.6,3.3-3.5v-19.5C162.7,101.9,161.9,100.3,159.3,100.3z"/>
		
			<linearGradient id="SVGID_00000019673140630591831460000013936273933612079250_" gradientUnits="userSpaceOnUse" x1="176.3593" y1="43.9079" x2="176.3593" y2="165.0514">
			<stop  offset="0.438" style="stop-color:#57596B"/>
			<stop  offset="0.6531" style="stop-color:#787884"/>
		</linearGradient>
		<path style="fill:url(#SVGID_00000019673140630591831460000013936273933612079250_);" d="M181.8,121.3h-1c-1.2,0-1.7-0.6-1.7-1.6
			v-14.1h2c2,0,3-0.6,3-2.3c0-1.7-1.1-2.3-3-2.3h-2v-4.3c0-2.3-1.3-3.5-3.3-3.5s-3.3,1.2-3.3,3.5v4.3h-1.1c-1.9,0-2.6,0.8-2.6,2.3
			c0,1.5,0.8,2.3,2.6,2.3h1.1v15c0,4.2,2,6.3,6.9,6.3c3.2,0,4.8-1.1,4.8-3.1C184.1,122.2,183.2,121.3,181.8,121.3z"/>
	</g>
	<g>
		<g>
			<g>
				<path class="st6" d="M98.2,137.3c0.7,0.3,1.2,0.8,1.6,1.3c0.3,0.5,0.6,1.1,0.7,1.8c0.1,0.5,0.2,1.2,0.2,2.3h-7.5
					c0,1,0.3,1.9,0.7,2.5s1.2,0.9,2.1,0.9c0.9,0,1.6-0.3,2.2-0.9c0.3-0.3,0.5-0.7,0.7-1.2h1.7c0,0.4-0.2,0.8-0.4,1.3
					c-0.3,0.5-0.5,0.8-0.8,1.1c-0.5,0.5-1.2,0.9-1.9,1c-0.4,0.1-0.9,0.2-1.4,0.2c-1.3,0-2.4-0.5-3.2-1.4c-0.9-0.9-1.3-2.2-1.3-3.9
					c0-1.6,0.4-3,1.3-4c0.9-1,2.1-1.5,3.5-1.5C96.8,136.7,97.6,136.9,98.2,137.3z M98.9,141.3c-0.1-0.7-0.2-1.3-0.5-1.8
					c-0.5-0.8-1.3-1.2-2.4-1.2c-0.8,0-1.5,0.3-2,0.9c-0.5,0.6-0.8,1.3-0.9,2.2H98.9z"/>
				<path class="st6" d="M105.3,144c0.1,0.6,0.2,1,0.4,1.3c0.4,0.6,1.2,0.8,2.3,0.8c0.6,0,1.2-0.1,1.7-0.4c0.5-0.3,0.7-0.7,0.7-1.3
					c0-0.4-0.2-0.8-0.6-1c-0.2-0.1-0.7-0.3-1.5-0.5l-1.4-0.3c-0.9-0.2-1.5-0.5-1.9-0.7c-0.7-0.5-1.1-1.1-1.1-1.9c0-1,0.3-1.8,1-2.4
					c0.7-0.6,1.6-0.9,2.8-0.9c1.5,0,2.7,0.5,3.3,1.4c0.4,0.6,0.6,1.2,0.6,1.9h-1.6c0-0.4-0.2-0.7-0.4-1.1c-0.4-0.5-1.1-0.7-2.1-0.7
					c-0.7,0-1.1,0.1-1.5,0.4c-0.3,0.2-0.5,0.6-0.5,1c0,0.4,0.2,0.8,0.7,1.1c0.3,0.2,0.6,0.3,1.1,0.4l1.1,0.3
					c1.2,0.3,2.1,0.6,2.5,0.9c0.7,0.4,1,1.1,1,2.1c0,0.9-0.3,1.7-1,2.4c-0.7,0.7-1.7,1-3.2,1c-1.5,0-2.6-0.3-3.2-1
					c-0.6-0.7-1-1.5-1-2.6H105.3z"/>
				<path class="st6" d="M116,134.1h1.7v2.9h1.6v1.4h-1.6v6.7c0,0.4,0.1,0.6,0.4,0.7c0.1,0.1,0.4,0.1,0.7,0.1c0.1,0,0.2,0,0.3,0
					s0.2,0,0.3,0v1.4c-0.2,0.1-0.4,0.1-0.6,0.1s-0.4,0-0.7,0c-0.8,0-1.3-0.2-1.6-0.6c-0.3-0.4-0.4-0.9-0.4-1.6v-6.8h-1.4V137h1.4
					V134.1z"/>
				<path class="st6" d="M124.4,137v6.8c0,0.5,0.1,0.9,0.2,1.3c0.3,0.6,0.9,0.9,1.7,0.9c1.2,0,2-0.5,2.4-1.6
					c0.2-0.6,0.4-1.4,0.4-2.4v-5h1.7v10.2h-1.6l0-1.5c-0.2,0.4-0.5,0.7-0.8,1c-0.7,0.5-1.5,0.8-2.4,0.8c-1.5,0-2.5-0.5-3-1.5
					c-0.3-0.5-0.4-1.2-0.4-2.1v-7H124.4z"/>
				<path class="st6" d="M140.8,137.3c0.3,0.2,0.7,0.5,1,1v-5.2h1.7v14.1h-1.5v-1.4c-0.4,0.6-0.9,1.1-1.4,1.4
					c-0.5,0.3-1.2,0.4-1.9,0.4c-1.1,0-2.1-0.5-3-1.4s-1.3-2.2-1.3-3.8c0-1.5,0.4-2.8,1.1-3.9c0.8-1.1,1.9-1.6,3.3-1.6
					C139.6,136.8,140.3,137,140.8,137.3z M136.9,145c0.5,0.7,1.2,1.1,2.2,1.1c0.8,0,1.5-0.3,2-1c0.5-0.7,0.8-1.7,0.8-2.9
					c0-1.3-0.3-2.3-0.8-2.9c-0.5-0.6-1.2-0.9-2-0.9c-0.9,0-1.6,0.3-2.1,1c-0.5,0.7-0.8,1.6-0.8,2.9
					C136.2,143.3,136.5,144.2,136.9,145z"/>
				<path class="st6" d="M147.6,133.2h1.7v2h-1.7V133.2z M147.6,137h1.7v10.2h-1.7V137z"/>
				<path class="st6" d="M161,138c0.9,0.9,1.4,2.2,1.4,3.9c0,1.7-0.4,3-1.2,4.1c-0.8,1.1-2,1.6-3.7,1.6c-1.4,0-2.5-0.5-3.4-1.4
					c-0.8-1-1.2-2.2-1.2-3.8c0-1.7,0.4-3.1,1.3-4.1s2-1.5,3.5-1.5C159,136.7,160.1,137.1,161,138z M159.9,144.8
					c0.4-0.9,0.6-1.8,0.6-2.9c0-1-0.2-1.7-0.5-2.3c-0.5-0.9-1.3-1.4-2.5-1.4c-1.1,0-1.8,0.4-2.3,1.2c-0.5,0.8-0.7,1.8-0.7,2.9
					c0,1.1,0.2,2,0.7,2.7c0.5,0.7,1.2,1.1,2.3,1.1C158.7,146.1,159.5,145.7,159.9,144.8z"/>
			</g>
		</g>
	</g>
</g>
</svg>
