<?xml version="1.0" encoding="utf-8"?>
<!-- Generator: Adobe Illustrator 26.0.0, SVG Export Plug-In . SVG Version: 6.00 Build 0)  -->
<svg version="1.1" id="Capa_1" xmlns="http://www.w3.org/2000/svg" xmlns:xlink="http://www.w3.org/1999/xlink" x="0px" y="0px"
	 viewBox="0 0 250 250" style="enable-background:new 0 0 250 250;" xml:space="preserve">
<style type="text/css">
	.st0{fill:#565656;stroke:#565656;stroke-width:1.3487;stroke-linecap:round;stroke-linejoin:round;stroke-miterlimit:10;}
	.st1{fill:#565656;}
</style>
<g>
	<g>
		<g>
			<path class="st0" d="M28.2,167.8c-0.1,0.1-0.2,0.2-0.2,0.4c0,0.1-0.1,0.3-0.2,0.4c-0.1,0.1-0.2,0.2-0.2,0.3c0,0.1,0,0.2,0.2,0.2
				c0,0,0.1,0,0.1,0.1c0,0.2,0,0.4,0,0.6c0,0.2-0.1,0.3-0.2,0.5c-0.1,0.1-0.1,0.2,0,0.2c0.1,0,0.2,0.1,0.2,0.2 M52.1,140.1
				c0-0.1,0.2-0.3,0.3-0.5c0.4-0.4,0.9-0.4,1.5-0.1c0.4,0.2,0.5,0.5,0.4,1c0,0.5-0.2,0.9-0.6,1.1c-0.3,0.1-0.6,0.1-1,0
				c-0.3-0.1-0.6-0.3-0.7-0.7c0,0,0-0.1-0.1-0.1 M45,140.9c-0.2-0.4-0.1-0.8,0.1-1.3c0.1-0.2,0.3-0.4,0.5-0.5
				c0.3-0.2,0.5-0.3,0.8-0.3c0.1,0,0.4,0,0.7,0.1c0.1,0,0.2,0.1,0.4,0.3c0.2,0.3,0.4,0.5,0.4,0.6c0.1,0,0.1,0.1,0.1,0.2
				c0.1,0.1-0.2,0.2-0.1,0.2l0,0.4c-0.2,0,0,0.1,0,0.2c-0.1,0.4-0.4,0.8-0.9,0.9c-0.2,0.1-0.5,0.1-0.7,0c-0.2,0-0.5-0.2-0.7-0.4
				 M34.5,150.3l-0.4,0c-0.2,0-0.5-0.1-0.7-0.1c-0.2,0-0.5,0-0.7,0c-0.1,0-0.2,0-0.2-0.1c0-0.1-0.1-0.2-0.1-0.3
				c-0.1-0.1-0.1-0.2,0.1-0.4c0.1-0.2,0.3-0.3,0.5-0.5c0.2-0.2,0.3-0.3,0.4-0.5c0.3-0.4,0.4-0.7,0.2-1c-0.2-0.3-0.4-0.7-0.4-1
				c0-0.1,0-0.2-0.1-0.2c0,0,0-0.1,0-0.2l0.1-0.3c0.1-0.1,0.2-0.1,0.2,0c0,0,0.1,0.1,0.1,0.1c0.2,0,0.4,0.1,0.8,0.2
				c0.3,0.2,0.6,0.3,0.8,0.3c0,0,0.1,0,0.2,0.1c0.1,0,0.1,0.1,0.2,0.1c0.1,0,0.2,0.1,0.2,0c0,0,0.1,0,0.1,0c0.1-0.1,0.2-0.1,0.4-0.1
				c0.2-0.1,0.3-0.2,0.4-0.2c0.1-0.1,0.2-0.2,0.3-0.2c0.1,0,0.3-0.1,0.4-0.2l0.1-0.1l0.4,0c0,0.1,0,0.2,0.1,0.2c0.1,0,0.1,0.1,0,0.2
				c-0.1,0.2-0.1,0.5-0.1,1l0,0.6c-0.1,0-0.1,0.1-0.1,0.2c0,0.1,0.1,0.1,0.2,0.1c0.4,0.4,0.9,0.8,1.3,1.2l0.2,0.2
				c0.1,0.1,0.1,0.2,0.1,0.3c0,0.1-0.1,0.2-0.2,0.4c-0.1,0.1-0.3,0.1-0.6,0.1c-0.2,0.1-0.4,0.1-0.5,0.1c-0.2,0-0.4,0-0.5,0.1
				c-0.2,0-0.4,0.1-0.6,0.1l-0.2,0.2c-0.1,0.3-0.1,0.5-0.1,0.5c0,0.2-0.1,0.4-0.1,0.5c0,0.1-0.1,0.3-0.2,0.4
				c-0.1,0.2-0.2,0.3-0.3,0.3c-0.2,0-0.4,0-0.5-0.1c-0.1-0.1-0.1-0.2-0.1-0.4c0-0.2,0-0.4-0.1-0.5c-0.1-0.1-0.1-0.3-0.2-0.4
				l-0.2-0.2 M27.4,170.8c-0.1-0.1-0.2-0.1-0.2-0.1l-0.1,0c-0.1,0.2-0.3,0.2-0.4,0.1c-0.1,0-0.2,0-0.3-0.1c-0.1,0-0.2-0.1-0.3-0.1
				c-0.1,0-0.1,0-0.2-0.1c0-0.1-0.1-0.1-0.2-0.1l-0.2-0.3c-0.2-0.5-0.1-0.9,0.1-1.3c0.1-0.1,0.2-0.2,0.3-0.2c0.1,0,0.2-0.1,0.3-0.1
				c0.2-0.1,0.4-0.1,0.6,0c0.2,0.1,0.3,0,0.4-0.2 M55,169.5c-0.1-0.1-0.2-0.1-0.2-0.1l-0.1,0c-0.1,0.2-0.3,0.2-0.4,0.1
				c-0.1,0-0.2,0-0.3-0.1c-0.1,0-0.2-0.1-0.3-0.1c-0.1,0-0.1,0-0.2-0.1c0-0.1-0.1-0.1-0.2-0.1l-0.2-0.3c-0.2-0.5-0.1-0.9,0.1-1.3
				c0.1-0.1,0.2-0.2,0.3-0.2c0.1,0,0.2-0.1,0.3-0.1c0.2-0.1,0.4-0.1,0.6,0c0.2,0.1,0.3,0,0.4-0.2 M38.2,182.4c0.1,0,0.1,0,0.2,0
				c0.4-0.1,0.8-0.1,1.1,0.2c0.3,0.1,0.4,0.4,0.5,0.7c0.1,0.3,0.1,0.6,0,0.8c-0.1,0.1-0.1,0.2-0.2,0.2c0,0-0.1,0.1-0.2,0.2
				c-0.1,0.1-0.2,0.1-0.3,0.1c-0.1,0-0.2,0.1-0.3,0.1c-0.1,0-0.3,0-0.5,0c-0.2,0-0.4-0.1-0.5-0.2c-0.3-0.3-0.5-0.5-0.5-0.8
				c0-0.1,0-0.2-0.1-0.3c0-0.1,0-0.2,0.1-0.3c0.1-0.2,0.2-0.3,0.2-0.3c0-0.1,0-0.2-0.1-0.2"/>
		</g>
	</g>
	<g>
		<path class="st0" d="M55.6,57.5"/>
		<path class="st0" d="M58.9,53.5l0.2,0c0.2-0.1,0.4-0.1,0.5,0c0.1,0.1,0.3,0.1,0.5,0.1c0.1,0.2,0,0.4-0.1,0.6
			c-0.1,0.1-0.3,0.3-0.4,0.5c-0.1,0.1-0.2,0.2-0.2,0.3c0,0.1-0.1,0.2-0.2,0.3c-0.2,0.2-0.2,0.4-0.1,0.6c0.1,0.1,0.1,0.2,0.2,0.4
			c0,0.1,0.1,0.3,0.2,0.4c0.1,0.1,0.1,0.2,0.1,0.3c0,0.1,0,0.2,0.1,0.3c0.1,0.1,0.1,0.3,0.1,0.5c0,0.1-0.1,0.2-0.2,0.2
			c-0.1,0.1-0.3,0.1-0.3,0c-0.2-0.1-0.4-0.2-0.6-0.3c-0.2-0.1-0.4-0.1-0.6-0.3c-0.1-0.1-0.4-0.1-0.7-0.1c-0.1,0-0.2,0-0.3,0.2
			c-0.2,0.2-0.3,0.3-0.4,0.5c-0.1,0.2-0.3,0.3-0.6,0.5c-0.1,0.1-0.2,0.1-0.2,0c0-0.1-0.1-0.1-0.2-0.1c0-0.1,0-0.2-0.1-0.2
			c-0.1-0.1-0.1-0.1,0-0.2c0.1,0,0.1-0.1,0.1-0.3l0.1-1c0-0.3,0-0.5-0.3-0.6c-0.1-0.1-0.2-0.1-0.3-0.2c-0.1-0.1-0.2-0.1-0.4-0.2
			c-0.1-0.1-0.2-0.1-0.3-0.2c-0.1-0.1-0.2-0.1-0.3-0.3c-0.3-0.2-0.3-0.4,0-0.7c0,0,0.1,0,0.1-0.1c0.2-0.1,0.5-0.1,0.7-0.2
			c0.2-0.1,0.4-0.1,0.7-0.2c0.2-0.1,0.4-0.2,0.4-0.6c0-0.2,0.1-0.3,0.1-0.5c0-0.1,0-0.3,0-0.5c0-0.1,0-0.1,0-0.2
			c0-0.1,0.1-0.1,0.1-0.2c0.1-0.1,0.1-0.1,0.1-0.2c0,0,0-0.1,0.1-0.2c0.2-0.1,0.4,0,0.6,0.1c0.1,0.2,0.2,0.3,0.3,0.5
			c0.3,0.6,0.7,0.9,1,1c0.1,0.1,0.2,0.1,0.2,0"/>
		<path class="st0" d="M43.8,69.4l0.2,0c0.2-0.1,0.3-0.2,0.5-0.1c0.1,0,0.3,0,0.5-0.1c0.1,0.2,0.1,0.4,0.1,0.6
			c-0.1,0.2-0.2,0.4-0.3,0.6c-0.1,0.1-0.1,0.2-0.1,0.4c0,0.1-0.1,0.3-0.1,0.4c-0.2,0.2-0.1,0.5,0.1,0.6c0.1,0.1,0.2,0.2,0.2,0.3
			c0.1,0.1,0.1,0.2,0.2,0.3c0.1,0.1,0.2,0.2,0.2,0.3c0,0.1,0.1,0.2,0.2,0.3c0.1,0.1,0.2,0.2,0.2,0.5c0,0.1,0,0.2-0.2,0.3
			c-0.1,0.1-0.2,0.1-0.3,0c-0.2-0.1-0.5-0.1-0.7-0.1c-0.2,0-0.4,0-0.6-0.1c-0.1-0.1-0.4-0.1-0.7,0.1c-0.1,0-0.2,0.1-0.3,0.2
			c-0.1,0.2-0.2,0.4-0.3,0.6c-0.1,0.2-0.2,0.4-0.5,0.6C42,75,41.9,75,41.8,75c-0.1-0.1-0.1-0.1-0.2,0c0-0.1-0.1-0.2-0.2-0.2
			c-0.1,0-0.1-0.1,0-0.2c0,0,0.1-0.2,0-0.4l-0.1-1c0-0.3-0.2-0.5-0.4-0.5c-0.1,0-0.2-0.1-0.3-0.1c-0.1-0.1-0.3-0.1-0.4-0.1
			c-0.1,0-0.2-0.1-0.3-0.1c-0.1,0-0.3-0.1-0.4-0.2c-0.4-0.1-0.4-0.3-0.1-0.7c0,0,0.1,0,0.1-0.1c0.2-0.1,0.4-0.2,0.6-0.3
			c0.2-0.1,0.4-0.2,0.6-0.3c0.2-0.1,0.3-0.3,0.3-0.7c0-0.2,0-0.3,0-0.5c0-0.1,0-0.3-0.2-0.5c0,0-0.1-0.1-0.1-0.2c0-0.1,0-0.2,0-0.2
			c0-0.1,0.1-0.2,0-0.2c0,0,0-0.1,0-0.2c0.2-0.1,0.4-0.1,0.6,0c0.2,0.1,0.3,0.2,0.4,0.4c0.5,0.5,0.9,0.7,1.3,0.8c0.1,0,0.2,0,0.2,0"
			/>
		<path class="st0" d="M51.6,50.3c0.3,0.2,0.4,0.5,0.4,0.8c0,0.4-0.1,0.7-0.4,1c-0.3,0.2-0.6,0.3-1,0.3c-0.3-0.1-0.6-0.2-0.8-0.5
			c-0.3-0.4-0.3-0.7-0.1-1.1c0.1-0.2,0.2-0.4,0.3-0.5c0.2-0.1,0.3-0.2,0.6-0.2l0.4,0"/>
		<path class="st0" d="M64.9,42c0.3,0.2,0.4,0.5,0.4,0.8c0,0.4-0.1,0.7-0.4,1c-0.3,0.2-0.6,0.3-1,0.3c-0.3-0.1-0.6-0.2-0.8-0.5
			c-0.3-0.4-0.3-0.7-0.1-1.1c0.1-0.2,0.2-0.4,0.3-0.5c0.2-0.1,0.3-0.2,0.6-0.2l0.4,0"/>
		<path class="st0" d="M61.8,30.4c0.3,0.2,0.4,0.5,0.4,0.8c0,0.4-0.1,0.7-0.4,1c-0.3,0.2-0.6,0.3-1,0.3c-0.3-0.1-0.6-0.2-0.8-0.5
			c-0.3-0.4-0.3-0.7-0.1-1.1c0.1-0.2,0.2-0.4,0.3-0.5c0.2-0.1,0.3-0.2,0.6-0.2l0.4,0"/>
		<path class="st0" d="M58,76.1c0.3,0.3,0.5,0.6,0.5,1c0,0.5-0.1,0.9-0.5,1.2c-0.3,0.3-0.8,0.4-1.2,0.4c-0.4-0.1-0.7-0.3-0.9-0.6
			c-0.3-0.4-0.4-0.9-0.2-1.4c0.1-0.2,0.2-0.4,0.4-0.6c0.2-0.2,0.4-0.3,0.7-0.3l0.5,0"/>
	</g>
	<g>
		<path class="st0" d="M89.1,47.3l0.2,0c0.2-0.1,0.3-0.1,0.5-0.1c0.1,0,0.3,0,0.5,0c0.1,0.2,0.1,0.4,0.1,0.6
			c-0.1,0.2-0.2,0.3-0.3,0.5c-0.1,0.1-0.1,0.2-0.1,0.3c0,0.1,0,0.2-0.1,0.3c-0.2,0.2-0.1,0.4,0.1,0.6c0.1,0.1,0.2,0.2,0.2,0.3
			c0.1,0.1,0.1,0.2,0.2,0.3c0.1,0.1,0.2,0.2,0.2,0.2c0,0.1,0.1,0.2,0.2,0.2c0.1,0.1,0.2,0.2,0.2,0.4c0,0.1,0,0.2-0.2,0.3
			c-0.1,0.1-0.2,0.1-0.3,0c-0.2-0.1-0.4-0.1-0.6-0.1c-0.2,0-0.4,0-0.6-0.1c-0.1-0.1-0.4,0-0.7,0.1c-0.1,0-0.2,0.1-0.2,0.2
			c-0.1,0.2-0.2,0.4-0.3,0.6c-0.1,0.2-0.2,0.4-0.5,0.6c-0.1,0.1-0.1,0.1-0.2,0.1c-0.1-0.1-0.1-0.1-0.2,0c0-0.1-0.1-0.1-0.2-0.2
			c-0.1,0-0.1-0.1,0-0.2c0,0,0-0.2,0-0.3L86.8,51c0-0.3-0.2-0.5-0.4-0.5c-0.1,0-0.2-0.1-0.3-0.1c-0.1-0.1-0.2-0.1-0.4-0.1
			c-0.1,0-0.2-0.1-0.3-0.1c-0.1,0-0.2-0.1-0.4-0.2c-0.4-0.1-0.4-0.3-0.1-0.6c0,0,0.1,0,0.1-0.1c0.2-0.1,0.4-0.2,0.6-0.3
			c0.2-0.1,0.4-0.2,0.6-0.3c0.2-0.1,0.3-0.3,0.3-0.6c0-0.2,0-0.3,0-0.5c0-0.1,0-0.3-0.1-0.4c0,0-0.1-0.1-0.1-0.2c0-0.1,0-0.1,0-0.2
			c0-0.1,0-0.2,0-0.2c0,0,0-0.1,0-0.2c0.2-0.1,0.4-0.1,0.6,0c0.2,0.1,0.3,0.2,0.4,0.4c0.4,0.4,0.8,0.7,1.2,0.7c0.1,0,0.2,0,0.2,0"/>
		<path class="st0" d="M100.5,50.4l0.2,0c0.2-0.1,0.3-0.1,0.5-0.1c0.1,0,0.3,0,0.5,0c0.1,0.2,0.1,0.4,0.1,0.6
			c-0.1,0.2-0.2,0.3-0.3,0.5c-0.1,0.1-0.1,0.2-0.1,0.3c0,0.1,0,0.2-0.1,0.3c-0.2,0.2-0.1,0.4,0.1,0.6c0.1,0.1,0.2,0.2,0.2,0.3
			c0.1,0.1,0.1,0.2,0.2,0.3c0.1,0.1,0.2,0.2,0.2,0.2c0,0.1,0.1,0.2,0.2,0.2c0.1,0.1,0.2,0.2,0.2,0.4c0,0.1,0,0.2-0.2,0.3
			c-0.1,0.1-0.2,0.1-0.3,0c-0.2-0.1-0.4-0.1-0.6-0.1c-0.2,0-0.4,0-0.6-0.1c-0.1-0.1-0.4,0-0.7,0.1c-0.1,0-0.2,0.1-0.2,0.2
			c-0.1,0.2-0.2,0.4-0.3,0.6c-0.1,0.2-0.2,0.4-0.5,0.6c-0.1,0.1-0.1,0.1-0.2,0.1c-0.1-0.1-0.1-0.1-0.2,0c0-0.1-0.1-0.1-0.2-0.2
			c-0.1,0-0.1-0.1,0-0.2c0,0,0-0.2,0-0.3l-0.1-0.9c0-0.3-0.2-0.5-0.4-0.5c-0.1,0-0.2-0.1-0.3-0.1c-0.1-0.1-0.2-0.1-0.4-0.1
			c-0.1,0-0.2-0.1-0.3-0.1c-0.1,0-0.2-0.1-0.4-0.2c-0.4-0.1-0.4-0.3-0.1-0.6c0,0,0.1,0,0.1-0.1c0.2-0.1,0.4-0.2,0.6-0.3
			c0.2-0.1,0.4-0.2,0.6-0.3c0.2-0.1,0.3-0.3,0.3-0.6c0-0.2,0-0.3,0-0.5c0-0.1,0-0.3-0.1-0.4c0,0-0.1-0.1-0.1-0.2c0-0.1,0-0.1,0-0.2
			c0-0.1,0-0.2,0-0.2c0,0,0-0.1,0-0.2c0.2-0.1,0.4-0.1,0.6,0c0.2,0.1,0.3,0.2,0.4,0.4c0.4,0.4,0.8,0.7,1.2,0.7c0.1,0,0.2,0,0.2,0"/>
		<g>
			<path class="st1" d="M82.2,36.1c-0.4,0-0.8-0.3-0.8-0.8c0-0.2,0.1-0.4,0.2-0.6s0.3-0.3,0.6-0.3c0,0,0,0,0,0
				c0.5,0,0.8,0.3,0.9,0.8c0,0.2-0.1,0.4-0.2,0.6S82.5,36.1,82.2,36.1L82.2,36.1z"/>
			<path class="st1" d="M82.2,35.1c0.1,0,0.1,0.1,0.2,0.1c0,0.1-0.1,0.2-0.2,0.2c-0.1,0-0.1-0.1-0.2-0.1
				C82,35.2,82.1,35.1,82.2,35.1L82.2,35.1 M82.2,33.7C82.2,33.7,82.1,33.7,82.2,33.7c-0.9,0.1-1.6,0.8-1.5,1.6
				c0,0.8,0.7,1.4,1.5,1.4c0,0,0.1,0,0.1,0c0.8-0.1,1.5-0.8,1.4-1.6C83.6,34.4,83,33.7,82.2,33.7L82.2,33.7z"/>
		</g>
		<g>
			<path class="st1" d="M110.8,44.8c-0.4,0-0.8-0.3-0.8-0.8c0-0.2,0.1-0.4,0.2-0.6s0.3-0.3,0.6-0.3c0,0,0,0,0,0
				c0.5,0,0.8,0.3,0.9,0.8c0,0.2-0.1,0.4-0.2,0.6S111.1,44.8,110.8,44.8L110.8,44.8z"/>
			<path class="st1" d="M110.8,43.8c0.1,0,0.1,0.1,0.2,0.1c0,0.1-0.1,0.2-0.2,0.2c-0.1,0-0.1-0.1-0.2-0.1
				C110.7,43.9,110.7,43.9,110.8,43.8L110.8,43.8 M110.8,42.5C110.8,42.5,110.8,42.5,110.8,42.5c-0.9,0.1-1.6,0.8-1.5,1.6
				c0,0.8,0.7,1.4,1.5,1.4c0,0,0.1,0,0.1,0c0.8-0.1,1.5-0.8,1.4-1.6C112.3,43.1,111.6,42.5,110.8,42.5L110.8,42.5z"/>
		</g>
		<g>
			<path class="st1" d="M93.5,19.6c-0.4,0-0.8-0.3-0.8-0.8c0-0.2,0.1-0.4,0.2-0.6c0.1-0.2,0.3-0.3,0.6-0.3c0,0,0,0,0,0
				c0.5,0,0.8,0.3,0.9,0.8c0,0.2-0.1,0.4-0.2,0.6S93.8,19.6,93.5,19.6L93.5,19.6z"/>
			<path class="st1" d="M93.5,18.6c0.1,0,0.1,0.1,0.2,0.1c0,0,0,0.1,0,0.1c0,0-0.1,0-0.1,0.1c-0.1,0-0.1-0.1-0.2-0.1
				c0,0,0-0.1,0-0.1C93.4,18.6,93.5,18.6,93.5,18.6L93.5,18.6 M93.5,17.3C93.5,17.3,93.4,17.3,93.5,17.3C92.6,17.3,92,18,92,18.9
				c0,0.8,0.7,1.4,1.5,1.4c0,0,0.1,0,0.1,0c0.8-0.1,1.5-0.8,1.4-1.6C95,17.9,94.3,17.3,93.5,17.3L93.5,17.3z"/>
		</g>
		<g>
			<path class="st1" d="M106.2,19.6c-0.4,0-0.8-0.3-0.8-0.8c0-0.2,0.1-0.4,0.2-0.6s0.3-0.3,0.6-0.3c0,0,0,0,0,0
				c0.5,0,0.8,0.3,0.9,0.8c0,0.2-0.1,0.4-0.2,0.6S106.4,19.6,106.2,19.6L106.2,19.6z"/>
			<path class="st1" d="M106.2,18.7c0.1,0,0.1,0.1,0.2,0.1c0,0.1-0.1,0.2-0.2,0.2c-0.1,0-0.1-0.1-0.2-0.1
				C106,18.7,106.1,18.7,106.2,18.7L106.2,18.7 M106.2,17.3C106.1,17.3,106.1,17.3,106.2,17.3c-0.9,0.1-1.6,0.8-1.5,1.6
				c0,0.8,0.7,1.4,1.5,1.4c0,0,0.1,0,0.1,0c0.8-0.1,1.5-0.8,1.4-1.6C107.6,17.9,106.9,17.3,106.2,17.3L106.2,17.3z"/>
		</g>
	</g>
	<g>
		<g>
			<path class="st1" d="M131.2,48.4c-0.4,0-0.8-0.3-0.8-0.8c0-0.2,0.1-0.4,0.2-0.6c0.1-0.2,0.3-0.3,0.6-0.3c0,0,0,0,0,0
				c0.5,0,0.8,0.3,0.9,0.8c0,0.2-0.1,0.4-0.2,0.6C131.7,48.3,131.5,48.4,131.2,48.4L131.2,48.4z"/>
			<path class="st1" d="M131.2,47.5c0.1,0,0.1,0,0.1,0.1c0,0,0,0.1,0,0.1c0,0-0.1,0-0.1,0c-0.1,0-0.1,0-0.1-0.1
				C131.1,47.6,131.1,47.5,131.2,47.5L131.2,47.5 M131.2,46.1C131.2,46.1,131.1,46.1,131.2,46.1c-0.9,0.1-1.5,0.8-1.5,1.6
				c0,0.8,0.7,1.4,1.5,1.4c0,0,0.1,0,0.1,0c0.8,0,1.4-0.8,1.4-1.6C132.6,46.8,132,46.1,131.2,46.1L131.2,46.1z"/>
		</g>
		<g>
			<path class="st1" d="M150.3,46.8c-0.4,0-0.8-0.3-0.8-0.8c0-0.2,0.1-0.4,0.2-0.6c0.1-0.2,0.3-0.3,0.6-0.3c0,0,0,0,0,0
				c0.5,0,0.8,0.3,0.8,0.8c0,0.2-0.1,0.4-0.2,0.6C150.8,46.7,150.6,46.8,150.3,46.8L150.3,46.8z"/>
			<path class="st1" d="M150.3,45.9c0.1,0,0.1,0,0.1,0.1c0,0.1-0.1,0.1-0.1,0.1c-0.1,0-0.1,0-0.1-0.1
				C150.2,45.9,150.2,45.9,150.3,45.9L150.3,45.9 M150.3,44.5C150.3,44.5,150.2,44.5,150.3,44.5c-0.9,0.1-1.5,0.8-1.5,1.6
				c0,0.8,0.7,1.4,1.5,1.4c0,0,0.1,0,0.1,0c0.8,0,1.4-0.8,1.4-1.6C151.7,45.1,151.1,44.5,150.3,44.5L150.3,44.5z"/>
		</g>
		<path class="st0" d="M143.5,17.4l0.2,0c0.2-0.1,0.3-0.1,0.4-0.1c0.1,0,0.3,0,0.5,0c0.1,0.2,0.1,0.4,0.1,0.5
			c-0.1,0.2-0.2,0.3-0.3,0.5c-0.1,0.1-0.1,0.2-0.1,0.3c0,0.1,0,0.2-0.1,0.3c-0.1,0.2-0.1,0.4,0.1,0.6c0.1,0.1,0.2,0.2,0.2,0.3
			c0.1,0.1,0.1,0.2,0.2,0.3c0.1,0.1,0.1,0.2,0.2,0.2c0,0.1,0.1,0.2,0.2,0.2c0.1,0.1,0.2,0.2,0.2,0.4c0,0.1,0,0.2-0.2,0.3
			c-0.1,0.1-0.2,0.1-0.3,0c-0.2-0.1-0.4-0.1-0.6-0.1c-0.2,0-0.4,0-0.6-0.1c-0.1-0.1-0.4,0-0.6,0.1c-0.1,0-0.2,0.1-0.2,0.2
			c-0.1,0.2-0.2,0.4-0.3,0.6c-0.1,0.2-0.2,0.4-0.5,0.6c-0.1,0.1-0.1,0.1-0.2,0.1c0-0.1-0.1-0.1-0.2,0c0-0.1-0.1-0.1-0.1-0.2
			c-0.1,0-0.1-0.1,0-0.2c0,0,0-0.2,0-0.3l-0.1-0.9c0-0.3-0.2-0.5-0.4-0.5c-0.1,0-0.2-0.1-0.3-0.1c-0.1-0.1-0.2-0.1-0.4-0.1
			c-0.1,0-0.2-0.1-0.3-0.1c-0.1,0-0.2-0.1-0.4-0.2c-0.4-0.1-0.4-0.3-0.1-0.6c0,0,0.1,0,0.1-0.1c0.2-0.1,0.4-0.2,0.6-0.3
			c0.2-0.1,0.3-0.2,0.6-0.3c0.2-0.1,0.3-0.3,0.3-0.6c0-0.2,0-0.3,0-0.5c0-0.1,0-0.3-0.1-0.4c0,0-0.1-0.1,0-0.2c0-0.1,0-0.1,0-0.2
			c0-0.1,0-0.2,0-0.2c0,0,0-0.1,0-0.2c0.2-0.1,0.4-0.1,0.6,0c0.2,0.1,0.3,0.2,0.4,0.3c0.4,0.4,0.8,0.7,1.2,0.7c0.1,0,0.2,0,0.2,0"/>
	</g>
	<g>
		<g>
			<path class="st1" d="M179.9,55.9c-0.7,0-1.3-0.6-1.4-1.3c0-0.8,0.5-1.4,1.3-1.5c0,0,0,0,0,0c0.8,0,1.4,0.6,1.5,1.3
				c0,0.4-0.1,0.7-0.3,1C180.7,55.7,180.3,55.9,179.9,55.9L179.9,55.9z"/>
			<path class="st1" d="M179.9,53.8c0.4,0,0.7,0.3,0.7,0.7c0,0.4-0.3,0.7-0.7,0.8c-0.4,0-0.7-0.3-0.7-0.7c0-0.2,0.1-0.4,0.2-0.5
				C179.5,53.9,179.6,53.8,179.9,53.8L179.9,53.8 M179.9,52.5c0,0-0.1,0-0.1,0c-1.1,0.1-2,1-1.9,2.2c0.1,1.1,1,1.9,2.1,1.9
				c0,0,0.1,0,0.1,0c1.1-0.1,2-1,1.9-2.2C181.9,53.3,181,52.5,179.9,52.5L179.9,52.5z"/>
		</g>
		<path class="st0" d="M197.7,46.5l0.2,0c0.2-0.1,0.3-0.2,0.5-0.1c0.1,0,0.3,0,0.5-0.1c0.1,0.2,0.1,0.4,0.1,0.6
			c-0.1,0.2-0.2,0.4-0.3,0.6c-0.1,0.1-0.1,0.2-0.1,0.4c0,0.1-0.1,0.3-0.1,0.4c-0.2,0.3-0.1,0.5,0.1,0.6c0.1,0.1,0.2,0.2,0.3,0.3
			c0.1,0.1,0.1,0.2,0.3,0.3c0.1,0.1,0.2,0.2,0.2,0.3c0,0.1,0.1,0.2,0.2,0.3c0.1,0.1,0.2,0.2,0.2,0.5c0,0.1-0.1,0.2-0.2,0.3
			c-0.1,0.1-0.3,0.1-0.4,0c-0.2-0.1-0.5-0.1-0.7-0.1c-0.2,0-0.4,0-0.6-0.1c-0.2-0.1-0.4-0.1-0.7,0.1c-0.1,0-0.2,0.1-0.3,0.2
			c-0.1,0.2-0.2,0.4-0.3,0.6c-0.1,0.2-0.2,0.4-0.5,0.6c-0.1,0.1-0.2,0.1-0.2,0.1c-0.1-0.1-0.1-0.1-0.2,0c0-0.1-0.1-0.2-0.2-0.2
			c-0.1,0-0.1-0.1,0-0.2c0-0.1,0.1-0.2,0-0.4l-0.1-1c0-0.3-0.2-0.5-0.4-0.5c-0.1,0-0.2-0.1-0.3-0.1c-0.1-0.1-0.3-0.1-0.4-0.1
			c-0.1,0-0.2-0.1-0.3-0.1c-0.1,0-0.3-0.1-0.4-0.2c-0.4-0.1-0.4-0.3-0.1-0.7c0,0,0.1,0,0.1-0.1c0.2-0.1,0.4-0.2,0.6-0.4
			c0.2-0.1,0.4-0.2,0.6-0.4c0.2-0.1,0.3-0.3,0.3-0.7c0-0.2,0-0.4,0-0.5c0-0.1,0-0.3-0.2-0.5c-0.1,0-0.1-0.1-0.1-0.2
			c0-0.1,0-0.2,0-0.3c0-0.1,0.1-0.2,0-0.2c0,0,0-0.1,0-0.2c0.2-0.1,0.4-0.1,0.6,0c0.2,0.1,0.3,0.3,0.4,0.4c0.5,0.5,0.9,0.7,1.3,0.8
			c0.1,0,0.2,0,0.2,0"/>
		<g>
			<path class="st1" d="M166.2,44.3c-0.2,0-0.3-0.1-0.5-0.2c-0.2-0.1-0.3-0.3-0.3-0.5c0-0.2,0-0.4,0.1-0.6c0.2-0.2,0.4-0.4,0.7-0.4
				c0.2,0,0.3,0.1,0.5,0.2c0.4,0.3,0.5,0.8,0.2,1.2C166.7,44.2,166.4,44.3,166.2,44.3z"/>
			<path class="st1" d="M166.2,43.3C166.2,43.3,166.2,43.3,166.2,43.3c0.2,0.1,0.2,0.2,0.1,0.3c0,0.1-0.1,0.1-0.1,0.1
				c0,0-0.1,0-0.1,0c0,0-0.1-0.1-0.1-0.1c0,0,0-0.1,0-0.1C166.1,43.3,166.1,43.3,166.2,43.3 M166.2,42c-0.5,0-0.9,0.2-1.2,0.6
				c-0.5,0.7-0.3,1.6,0.4,2.1c0.3,0.2,0.6,0.3,0.9,0.3c0.5,0,0.9-0.2,1.2-0.6c0.5-0.7,0.3-1.6-0.4-2.1C166.8,42,166.5,42,166.2,42
				L166.2,42z"/>
		</g>
	</g>
	<g>
		<path class="st0" d="M114.7,230.4l0.2,0c0.2-0.1,0.3-0.1,0.4-0.1c0.1,0,0.3,0,0.4,0c0.1,0.2,0.1,0.4,0,0.5
			c-0.1,0.1-0.2,0.3-0.3,0.5c-0.1,0.1-0.1,0.2-0.1,0.3c0,0.1-0.1,0.2-0.1,0.3c-0.2,0.2-0.1,0.4,0,0.5c0.1,0.1,0.1,0.2,0.2,0.3
			c0,0.1,0.1,0.2,0.2,0.3c0.1,0.1,0.1,0.2,0.1,0.2c0,0.1,0,0.2,0.1,0.2c0.1,0.1,0.1,0.2,0.1,0.4c0,0.1-0.1,0.2-0.2,0.2
			c-0.1,0.1-0.2,0.1-0.3,0c-0.2-0.1-0.4-0.1-0.6-0.1c-0.2,0-0.4-0.1-0.5-0.1c-0.1-0.1-0.3-0.1-0.6,0c-0.1,0-0.2,0.1-0.2,0.2
			c-0.1,0.2-0.2,0.3-0.3,0.5c-0.1,0.2-0.2,0.3-0.5,0.5c-0.1,0.1-0.1,0.1-0.2,0c0-0.1-0.1-0.1-0.2,0c0-0.1,0-0.1-0.1-0.2
			c-0.1,0-0.1-0.1,0-0.2c0,0,0.1-0.1,0-0.3l0-0.8c0-0.3-0.1-0.4-0.3-0.5c-0.1,0-0.2-0.1-0.3-0.1c-0.1-0.1-0.2-0.1-0.3-0.1
			c-0.1,0-0.2-0.1-0.3-0.1c-0.1,0-0.2-0.1-0.3-0.2c-0.3-0.1-0.4-0.3-0.1-0.6c0,0,0.1,0,0.1-0.1c0.2-0.1,0.4-0.2,0.5-0.3
			c0.2-0.1,0.3-0.2,0.5-0.3c0.2-0.1,0.3-0.3,0.3-0.6c0-0.2,0-0.3,0-0.4c0-0.1,0-0.3-0.1-0.4c0,0-0.1-0.1,0-0.1c0-0.1,0-0.1,0-0.2
			c0-0.1,0.1-0.1,0.1-0.2c0,0,0-0.1,0.1-0.2c0.2-0.1,0.4-0.1,0.5,0c0.1,0.1,0.3,0.2,0.3,0.3c0.4,0.4,0.7,0.7,1.1,0.7
			c0.1,0,0.1,0,0.2,0"/>
		<path class="st0" d="M109.5,194.7l0.2,0c0.2-0.1,0.3-0.1,0.4-0.1c0.1,0,0.3,0,0.4,0c0.1,0.2,0.1,0.4,0,0.5
			c-0.1,0.1-0.2,0.3-0.3,0.5c-0.1,0.1-0.1,0.2-0.1,0.3c0,0.1-0.1,0.2-0.1,0.3c-0.2,0.2-0.1,0.4,0,0.5c0.1,0.1,0.1,0.2,0.2,0.3
			c0,0.1,0.1,0.2,0.2,0.3c0.1,0.1,0.1,0.2,0.1,0.2c0,0.1,0,0.2,0.1,0.2c0.1,0.1,0.1,0.2,0.1,0.4c0,0.1-0.1,0.2-0.2,0.2
			c-0.1,0.1-0.2,0.1-0.3,0c-0.2-0.1-0.4-0.1-0.6-0.1c-0.2,0-0.4-0.1-0.5-0.1c-0.1-0.1-0.3-0.1-0.6,0c-0.1,0-0.2,0.1-0.2,0.2
			c-0.1,0.2-0.2,0.3-0.3,0.5c-0.1,0.2-0.2,0.3-0.5,0.5c-0.1,0.1-0.1,0.1-0.2,0c0-0.1-0.1-0.1-0.2,0c0-0.1,0-0.1-0.1-0.2
			c-0.1,0-0.1-0.1,0-0.2c0,0,0.1-0.1,0-0.3l0-0.8c0-0.3-0.1-0.4-0.3-0.5c-0.1,0-0.2-0.1-0.3-0.1c-0.1-0.1-0.2-0.1-0.3-0.1
			c-0.1,0-0.2-0.1-0.3-0.1c-0.1,0-0.2-0.1-0.3-0.2c-0.3-0.1-0.4-0.3-0.1-0.6c0,0,0.1,0,0.1-0.1c0.2-0.1,0.4-0.2,0.5-0.3
			c0.2-0.1,0.3-0.2,0.5-0.3c0.2-0.1,0.3-0.3,0.3-0.6c0-0.2,0-0.3,0-0.4c0-0.1,0-0.3-0.1-0.4c0,0-0.1-0.1,0-0.1c0-0.1,0-0.1,0-0.2
			c0-0.1,0.1-0.1,0.1-0.2c0,0,0-0.1,0.1-0.2c0.2-0.1,0.4-0.1,0.5,0c0.1,0.1,0.3,0.2,0.3,0.3c0.4,0.4,0.7,0.7,1.1,0.7
			c0.1,0,0.1,0,0.2,0"/>
		<g>
			<path class="st1" d="M100.4,194.3c-0.1,0-0.2,0-0.3-0.1c-0.2-0.1-0.3-0.2-0.4-0.4c-0.1-0.2,0-0.4,0-0.6c0.1-0.2,0.4-0.4,0.7-0.4
				c0.1,0,0.2,0,0.3,0.1c0.2,0.1,0.3,0.2,0.4,0.4c0.1,0.2,0,0.4,0,0.6C100.9,194.1,100.6,194.3,100.4,194.3z"/>
			<path class="st1" d="M100.4,192.2c-0.5,0-1,0.3-1.3,0.8c-0.3,0.7-0.1,1.5,0.6,1.9c0.2,0.1,0.4,0.1,0.6,0.1c0.5,0,1-0.3,1.3-0.8
				c0.3-0.7,0.1-1.5-0.6-1.9C100.8,192.2,100.6,192.2,100.4,192.2L100.4,192.2z"/>
		</g>
		<g>
			<path class="st1" d="M110.2,214.1c-0.1,0-0.2,0-0.3-0.1c-0.2-0.1-0.3-0.2-0.4-0.4s0-0.4,0-0.6c0.1-0.3,0.4-0.4,0.7-0.4
				c0.1,0,0.2,0,0.3,0.1c0.4,0.2,0.5,0.6,0.3,1C110.7,213.9,110.4,214.1,110.2,214.1z"/>
			<path class="st1" d="M110.2,212c-0.5,0-1,0.3-1.3,0.8c-0.3,0.7-0.1,1.5,0.6,1.9c0.2,0.1,0.4,0.1,0.6,0.1c0.5,0,1-0.3,1.3-0.8
				c0.3-0.7,0.1-1.5-0.6-1.9C110.6,212,110.4,212,110.2,212L110.2,212z"/>
		</g>
		<g>
			<path class="st1" d="M120.8,220.9c-0.1,0-0.2,0-0.3-0.1c-0.2-0.1-0.3-0.2-0.4-0.4s0-0.4,0-0.6c0.1-0.2,0.4-0.4,0.7-0.4
				c0.1,0,0.2,0,0.3,0.1c0.2,0.1,0.3,0.2,0.4,0.4c0.1,0.2,0,0.4,0,0.6C121.3,220.8,121.1,220.9,120.8,220.9z"/>
			<path class="st1" d="M120.8,218.8c-0.5,0-1,0.3-1.3,0.8c-0.3,0.7-0.1,1.5,0.6,1.9c0.2,0.1,0.4,0.1,0.6,0.1c0.5,0,1-0.3,1.3-0.8
				c0.3-0.7,0.1-1.5-0.6-1.9C121.2,218.8,121,218.8,120.8,218.8L120.8,218.8z"/>
		</g>
		<g>
			<path class="st1" d="M128.4,208.2c-0.1,0-0.2,0-0.3-0.1c-0.2-0.1-0.3-0.2-0.4-0.4s0-0.4,0-0.6c0.1-0.3,0.4-0.4,0.7-0.4
				c0.1,0,0.2,0,0.3,0.1c0.2,0.1,0.3,0.2,0.4,0.4s0,0.4,0,0.6C128.9,208.1,128.7,208.2,128.4,208.2z"/>
			<path class="st1" d="M128.4,206.1c-0.5,0-1,0.3-1.3,0.8c-0.3,0.7-0.1,1.5,0.6,1.9c0.2,0.1,0.4,0.1,0.6,0.1c0.5,0,1-0.3,1.3-0.8
				c0.3-0.7,0.1-1.5-0.6-1.9C128.8,206.1,128.6,206.1,128.4,206.1L128.4,206.1z"/>
		</g>
		<g>
			<path class="st1" d="M115.8,201.8c-0.1,0-0.2,0-0.3-0.1c-0.2-0.1-0.3-0.2-0.4-0.4c-0.1-0.2,0-0.4,0-0.6c0.1-0.2,0.4-0.4,0.7-0.4
				c0.1,0,0.2,0,0.3,0.1c0.4,0.2,0.5,0.6,0.3,1C116.3,201.6,116.1,201.8,115.8,201.8z"/>
			<path class="st1" d="M115.8,199.7c-0.5,0-1,0.3-1.3,0.8c-0.3,0.7-0.1,1.5,0.6,1.9c0.2,0.1,0.4,0.1,0.6,0.1c0.5,0,1-0.3,1.3-0.8
				c0.3-0.7,0.1-1.5-0.6-1.9C116.2,199.7,116,199.7,115.8,199.7L115.8,199.7z"/>
		</g>
	</g>
	<g>
		<path class="st0" d="M63.3,181.5l0.2,0c0.2-0.1,0.3-0.1,0.4-0.1c0.1,0,0.3,0,0.4,0c0.1,0.2,0.1,0.4,0,0.5
			c-0.1,0.2-0.2,0.3-0.3,0.5c-0.1,0.1-0.1,0.2-0.1,0.3c0,0.1-0.1,0.2-0.1,0.3c-0.2,0.2-0.1,0.4,0,0.6c0.1,0.1,0.2,0.2,0.2,0.3
			c0,0.1,0.1,0.2,0.2,0.3c0.1,0.1,0.1,0.2,0.1,0.2c0,0.1,0,0.2,0.1,0.2c0.1,0.1,0.1,0.2,0.1,0.4c0,0.1-0.1,0.2-0.2,0.3
			c-0.1,0.1-0.2,0.1-0.3,0c-0.2-0.1-0.4-0.1-0.6-0.1c-0.2,0-0.4-0.1-0.5-0.1c-0.1-0.1-0.3-0.1-0.6,0c-0.1,0-0.2,0.1-0.2,0.2
			c-0.1,0.2-0.2,0.3-0.3,0.5c-0.1,0.2-0.2,0.3-0.5,0.5c-0.1,0.1-0.1,0.1-0.2,0c0-0.1-0.1-0.1-0.2,0c0-0.1,0-0.1-0.1-0.2
			c-0.1,0-0.1-0.1,0-0.2c0,0,0.1-0.1,0-0.3l0-0.9c0-0.3-0.1-0.5-0.3-0.5c-0.1,0-0.2-0.1-0.3-0.1c-0.1-0.1-0.2-0.1-0.4-0.1
			c-0.1,0-0.2-0.1-0.3-0.1c-0.1,0-0.2-0.1-0.4-0.2c-0.3-0.1-0.4-0.3-0.1-0.6c0,0,0.1,0,0.1-0.1c0.2-0.1,0.4-0.2,0.6-0.3
			c0.2-0.1,0.3-0.2,0.6-0.3c0.2-0.1,0.3-0.3,0.3-0.6c0-0.2,0-0.3,0-0.4c0-0.1,0-0.3-0.1-0.4c0,0-0.1-0.1,0-0.2c0-0.1,0-0.1,0-0.2
			c0-0.1,0.1-0.1,0.1-0.2c0,0,0-0.1,0.1-0.2c0.2-0.1,0.4-0.1,0.5,0c0.2,0.1,0.3,0.2,0.4,0.4c0.4,0.4,0.8,0.7,1.1,0.8
			c0.1,0,0.1,0,0.2,0"/>
		<g>
			<path class="st1" d="M54.4,198.4c-0.1,0-0.2,0-0.4-0.1c-0.4-0.2-0.6-0.7-0.4-1.1c0.1-0.3,0.4-0.4,0.7-0.4c0.1,0,0.2,0,0.4,0.1
				c0.2,0.1,0.3,0.3,0.4,0.5s0.1,0.4,0,0.6C55,198.2,54.7,198.4,54.4,198.4z"/>
			<path class="st1" d="M54.4,197.5C54.5,197.5,54.5,197.5,54.4,197.5c0.1,0,0.1,0.1,0.1,0.2c0,0.1-0.1,0.1-0.1,0.1c0,0,0,0-0.1,0
				c0,0-0.1,0-0.1-0.1c0,0,0-0.1,0-0.1C54.4,197.5,54.4,197.5,54.4,197.5 M54.4,196.1c-0.5,0-1.1,0.3-1.3,0.8
				c-0.4,0.7-0.1,1.6,0.7,2c0.2,0.1,0.4,0.2,0.7,0.2c0.5,0,1.1-0.3,1.3-0.8c0.4-0.7,0.1-1.6-0.7-2C54.9,196.2,54.7,196.1,54.4,196.1
				L54.4,196.1z"/>
		</g>
		<g>
			<path class="st1" d="M56.5,208.1c-0.1,0-0.2,0-0.4-0.1c-0.2-0.1-0.3-0.3-0.4-0.5c-0.1-0.2-0.1-0.4,0-0.6c0.1-0.3,0.4-0.4,0.7-0.4
				c0.1,0,0.2,0,0.4,0.1c0.2,0.1,0.3,0.3,0.4,0.5s0.1,0.4,0,0.6C57.1,208,56.8,208.1,56.5,208.1z"/>
			<path class="st1" d="M56.5,207.2C56.5,207.2,56.6,207.2,56.5,207.2c0.1,0,0.1,0.1,0.1,0.2c0,0.1-0.1,0.1-0.1,0.1c0,0,0,0-0.1,0
				c-0.1,0-0.1-0.1-0.1-0.2C56.4,207.2,56.5,207.2,56.5,207.2 M56.5,205.8c-0.5,0-1.1,0.3-1.3,0.8c-0.4,0.7-0.1,1.6,0.7,2
				c0.2,0.1,0.4,0.2,0.7,0.2c0.5,0,1.1-0.3,1.3-0.8c0.4-0.7,0.1-1.6-0.7-2C57,205.9,56.7,205.8,56.5,205.8L56.5,205.8z"/>
		</g>
		<g>
			<path class="st1" d="M65.9,213.6c-0.1,0-0.2,0-0.4-0.1c-0.2-0.1-0.3-0.3-0.4-0.5s-0.1-0.4,0-0.6c0.1-0.3,0.4-0.4,0.7-0.4
				c0.1,0,0.2,0,0.4,0.1c0.2,0.1,0.3,0.3,0.4,0.5c0.1,0.2,0.1,0.4,0,0.6C66.5,213.4,66.3,213.6,65.9,213.6z"/>
			<path class="st1" d="M65.9,212.7C66,212.7,66,212.7,65.9,212.7c0.1,0,0.1,0.1,0.1,0.1c0,0,0,0.1,0,0.1c0,0.1-0.1,0.1-0.1,0.1
				c0,0,0,0-0.1,0c0,0-0.1,0-0.1-0.1c0,0,0-0.1,0-0.1C65.9,212.7,65.9,212.7,65.9,212.7 M65.9,211.3c-0.5,0-1.1,0.3-1.3,0.8
				c-0.4,0.7-0.1,1.6,0.7,2c0.2,0.1,0.4,0.2,0.7,0.2c0.5,0,1.1-0.3,1.3-0.8c0.4-0.7,0.1-1.6-0.7-2C66.4,211.4,66.2,211.3,65.9,211.3
				L65.9,211.3z"/>
		</g>
		<g>
			<path class="st1" d="M82.6,216.5c-0.1,0-0.2,0-0.4-0.1c-0.2-0.1-0.3-0.3-0.4-0.5c-0.1-0.2-0.1-0.4,0-0.6c0.1-0.3,0.4-0.4,0.7-0.4
				c0.1,0,0.2,0,0.4,0.1c0.2,0.1,0.3,0.3,0.4,0.5s0.1,0.4,0,0.6C83.2,216.3,82.9,216.5,82.6,216.5z"/>
			<path class="st1" d="M82.6,215.5C82.6,215.5,82.6,215.5,82.6,215.5c0.1,0,0.1,0.1,0.1,0.1c0,0,0,0.1,0,0.1c0,0.1-0.1,0.1-0.1,0.1
				c0,0,0,0-0.1,0c0,0-0.1,0-0.1-0.1c0,0,0-0.1,0-0.1C82.5,215.5,82.6,215.5,82.6,215.5 M82.6,214.2c-0.5,0-1.1,0.3-1.3,0.8
				c-0.4,0.7-0.1,1.6,0.7,2c0.2,0.1,0.4,0.2,0.7,0.2c0.5,0,1.1-0.3,1.3-0.8c0.4-0.7,0.1-1.6-0.7-2C83.1,214.2,82.8,214.2,82.6,214.2
				L82.6,214.2z"/>
		</g>
		<g>
			<path class="st1" d="M81.6,207.3c-0.1,0-0.2,0-0.4-0.1c-0.2-0.1-0.3-0.3-0.4-0.5c-0.1-0.2-0.1-0.4,0-0.6c0.1-0.3,0.4-0.4,0.7-0.4
				c0.1,0,0.2,0,0.4,0.1c0.4,0.2,0.6,0.7,0.4,1.1C82.2,207.1,81.9,207.3,81.6,207.3z"/>
			<path class="st1" d="M81.6,206.3C81.6,206.3,81.6,206.3,81.6,206.3c0.1,0,0.1,0.1,0.1,0.2c0,0.1-0.1,0.1-0.1,0.1c0,0,0,0-0.1,0
				c0,0-0.1,0-0.1-0.1c0,0,0-0.1,0-0.1C81.5,206.3,81.6,206.3,81.6,206.3 M81.6,205c-0.5,0-1.1,0.3-1.3,0.8c-0.4,0.7-0.1,1.6,0.7,2
				c0.2,0.1,0.4,0.2,0.7,0.2c0.5,0,1.1-0.3,1.3-0.8c0.4-0.7,0.1-1.6-0.7-2C82,205,81.8,205,81.6,205L81.6,205z"/>
		</g>
		<g>
			<path class="st1" d="M69.6,191.6c-0.1,0-0.2,0-0.4-0.1c-0.2-0.1-0.3-0.3-0.4-0.5s-0.1-0.4,0-0.6c0.1-0.3,0.4-0.4,0.7-0.4
				c0.1,0,0.2,0,0.4,0.1c0.2,0.1,0.3,0.3,0.4,0.5c0.1,0.2,0.1,0.4,0,0.6C70.2,191.4,69.9,191.6,69.6,191.6z"/>
			<path class="st1" d="M69.6,190.6C69.6,190.6,69.7,190.6,69.6,190.6c0.1,0,0.1,0.1,0.1,0.1c0,0,0,0.1,0,0.1c0,0.1-0.1,0.1-0.1,0.1
				c0,0,0,0-0.1,0c0,0-0.1,0-0.1-0.1c0,0,0-0.1,0-0.1C69.5,190.6,69.6,190.6,69.6,190.6 M69.6,189.3c-0.5,0-1.1,0.3-1.3,0.8
				c-0.4,0.7-0.1,1.6,0.7,2c0.2,0.1,0.4,0.2,0.7,0.2c0.5,0,1.1-0.3,1.3-0.8c0.4-0.7,0.1-1.6-0.7-2C70.1,189.3,69.9,189.3,69.6,189.3
				L69.6,189.3z"/>
		</g>
	</g>
	<g>
		<path class="st0" d="M42.7,116.2l0.2,0c0.2-0.1,0.3-0.1,0.4-0.1c0.1,0,0.3,0,0.4,0c0.1,0.2,0.1,0.4,0,0.5
			c-0.1,0.1-0.2,0.3-0.3,0.5c-0.1,0.1-0.1,0.2-0.1,0.3c0,0.1-0.1,0.2-0.1,0.3c-0.2,0.2-0.1,0.4,0,0.5c0.1,0.1,0.2,0.2,0.2,0.3
			c0,0.1,0.1,0.2,0.2,0.3c0.1,0.1,0.1,0.2,0.1,0.2c0,0.1,0,0.2,0.1,0.2c0.1,0.1,0.1,0.2,0.1,0.4c0,0.1-0.1,0.2-0.2,0.3
			c-0.1,0.1-0.2,0.1-0.3,0c-0.2-0.1-0.4-0.1-0.6-0.1c-0.2,0-0.4-0.1-0.5-0.1c-0.1-0.1-0.3-0.1-0.6,0c-0.1,0-0.2,0.1-0.2,0.2
			c-0.1,0.2-0.2,0.3-0.3,0.5c-0.1,0.2-0.2,0.3-0.5,0.5c-0.1,0.1-0.1,0.1-0.2,0c0-0.1-0.1-0.1-0.2,0c0-0.1,0-0.1-0.1-0.2
			c-0.1,0-0.1-0.1,0-0.2c0,0,0.1-0.1,0-0.3l0-0.8c0-0.3-0.1-0.4-0.3-0.5c-0.1,0-0.2-0.1-0.3-0.1c-0.1-0.1-0.2-0.1-0.3-0.1
			c-0.1,0-0.2-0.1-0.3-0.1c-0.1,0-0.2-0.1-0.3-0.2c-0.3-0.1-0.4-0.3-0.1-0.6c0,0,0.1,0,0.1-0.1c0.2-0.1,0.4-0.2,0.5-0.3
			c0.2-0.1,0.3-0.2,0.5-0.3c0.2-0.1,0.3-0.3,0.3-0.6c0-0.2,0-0.3,0-0.4c0-0.1,0-0.3-0.1-0.4c0,0-0.1-0.1,0-0.2c0-0.1,0-0.1,0-0.2
			c0-0.1,0.1-0.1,0.1-0.2c0,0,0-0.1,0.1-0.2c0.2-0.1,0.4-0.1,0.5,0c0.1,0.1,0.3,0.2,0.3,0.3c0.4,0.4,0.7,0.7,1.1,0.7
			c0.1,0,0.1,0,0.2,0"/>
		<path class="st0" d="M43.5,95.8l0.2,0c0.2-0.1,0.3-0.1,0.4-0.1c0.1,0,0.3,0,0.4,0c0.1,0.2,0.1,0.4,0,0.5c-0.1,0.1-0.2,0.3-0.3,0.5
			c-0.1,0.1-0.1,0.2-0.1,0.3c0,0.1-0.1,0.2-0.1,0.3c-0.2,0.2-0.1,0.4,0,0.5c0.1,0.1,0.2,0.2,0.2,0.3c0,0.1,0.1,0.2,0.2,0.3
			c0.1,0.1,0.1,0.2,0.1,0.2c0,0.1,0,0.2,0.1,0.2c0.1,0.1,0.1,0.2,0.1,0.4c0,0.1-0.1,0.2-0.2,0.3c-0.1,0.1-0.2,0.1-0.3,0
			c-0.2-0.1-0.4-0.1-0.6-0.1c-0.2,0-0.4-0.1-0.5-0.1c-0.1-0.1-0.3-0.1-0.6,0c-0.1,0-0.2,0.1-0.2,0.2c-0.1,0.2-0.2,0.3-0.3,0.5
			c-0.1,0.2-0.2,0.3-0.5,0.5c-0.1,0.1-0.1,0.1-0.2,0c0-0.1-0.1-0.1-0.2,0c0-0.1,0-0.1-0.1-0.2c-0.1,0-0.1-0.1,0-0.2
			c0,0,0.1-0.1,0-0.3l0-0.8c0-0.3-0.1-0.4-0.3-0.5c-0.1,0-0.2-0.1-0.3-0.1c-0.1-0.1-0.2-0.1-0.3-0.1c-0.1,0-0.2-0.1-0.3-0.1
			c-0.1,0-0.2-0.1-0.3-0.2c-0.3-0.1-0.4-0.3-0.1-0.6c0,0,0.1,0,0.1-0.1c0.2-0.1,0.4-0.2,0.5-0.3c0.2-0.1,0.3-0.2,0.5-0.3
			c0.2-0.1,0.3-0.3,0.3-0.6c0-0.2,0-0.3,0-0.4c0-0.1,0-0.3-0.1-0.4c0,0-0.1-0.1,0-0.2c0-0.1,0-0.1,0-0.2c0-0.1,0.1-0.1,0.1-0.2
			c0,0,0-0.1,0.1-0.2c0.2-0.1,0.4-0.1,0.5,0c0.1,0.1,0.3,0.2,0.3,0.3c0.4,0.4,0.7,0.7,1.1,0.7c0.1,0,0.1,0,0.2,0"/>
		<g>
			<path class="st1" d="M13.7,117.8c-0.1,0-0.2,0-0.3-0.1c-0.2-0.1-0.3-0.2-0.4-0.4c-0.1-0.2,0-0.4,0-0.6c0.1-0.3,0.4-0.4,0.7-0.4
				c0.1,0,0.2,0,0.3,0.1c0.4,0.2,0.5,0.6,0.3,1C14.2,117.7,13.9,117.8,13.7,117.8z"/>
			<path class="st1" d="M13.7,115.7c-0.5,0-1,0.3-1.3,0.8c-0.4,0.7-0.1,1.6,0.6,1.9c0.2,0.1,0.4,0.1,0.6,0.1c0.5,0,1-0.3,1.3-0.8
				c0.3-0.7,0.1-1.6-0.6-1.9C14.1,115.7,13.9,115.7,13.7,115.7L13.7,115.7z"/>
		</g>
		<g>
			<path class="st1" d="M21.1,126.7c-0.1,0-0.2,0-0.3-0.1c-0.4-0.2-0.5-0.6-0.3-1c0.1-0.3,0.4-0.4,0.7-0.4c0.1,0,0.2,0,0.3,0.1
				c0.4,0.2,0.5,0.6,0.3,1C21.6,126.5,21.3,126.7,21.1,126.7z"/>
			<path class="st1" d="M21.1,124.5c-0.5,0-1,0.3-1.3,0.8c-0.3,0.7-0.1,1.6,0.6,1.9c0.2,0.1,0.4,0.1,0.6,0.1c0.5,0,1-0.3,1.3-0.8
				c0.3-0.7,0.1-1.6-0.6-1.9C21.5,124.6,21.3,124.5,21.1,124.5L21.1,124.5z"/>
		</g>
		<g>
			<path class="st1" d="M31.6,126.6c-0.1,0-0.2,0-0.3-0.1c-0.4-0.2-0.5-0.6-0.3-1c0.1-0.3,0.4-0.4,0.7-0.4c0.1,0,0.2,0,0.3,0.1
				c0.2,0.1,0.3,0.2,0.4,0.4c0.1,0.2,0,0.4,0,0.6C32.1,126.5,31.8,126.6,31.6,126.6z"/>
			<path class="st1" d="M31.6,124.5c-0.5,0-1,0.3-1.3,0.8c-0.3,0.7-0.1,1.6,0.6,1.9c0.2,0.1,0.4,0.1,0.6,0.1c0.5,0,1-0.3,1.3-0.8
				c0.3-0.7,0.1-1.6-0.6-1.9C32,124.5,31.8,124.5,31.6,124.5L31.6,124.5z"/>
		</g>
		<g>
			<path class="st1" d="M44.6,128.4c-0.1,0-0.2,0-0.3-0.1c-0.4-0.2-0.5-0.6-0.3-1c0.1-0.3,0.4-0.4,0.7-0.4c0.1,0,0.2,0,0.3,0.1
				c0.2,0.1,0.3,0.2,0.4,0.4c0.1,0.2,0,0.4,0,0.6C45.2,128.3,44.9,128.4,44.6,128.4z"/>
			<path class="st1" d="M44.6,126.3c-0.5,0-1,0.3-1.3,0.8c-0.3,0.7-0.1,1.6,0.6,1.9c0.2,0.1,0.4,0.1,0.6,0.1c0.5,0,1-0.3,1.3-0.8
				c0.3-0.7,0.1-1.6-0.6-1.9C45.1,126.3,44.8,126.3,44.6,126.3L44.6,126.3z"/>
		</g>
		<g>
			<path class="st1" d="M41.2,108.3c-0.1,0-0.2,0-0.3-0.1c-0.4-0.2-0.5-0.6-0.3-1c0.1-0.3,0.4-0.4,0.7-0.4c0.1,0,0.2,0,0.3,0.1
				c0.4,0.2,0.5,0.6,0.3,1C41.8,108.1,41.5,108.3,41.2,108.3z"/>
			<path class="st1" d="M41.2,106.1c-0.5,0-1,0.3-1.3,0.8c-0.3,0.7-0.1,1.6,0.6,1.9c0.2,0.1,0.4,0.1,0.6,0.1c0.5,0,1-0.3,1.3-0.8
				c0.3-0.7,0.1-1.6-0.6-1.9C41.7,106.2,41.4,106.1,41.2,106.1L41.2,106.1z"/>
		</g>
		<g>
			<path class="st1" d="M48.2,89.3c-0.1,0-0.2,0-0.3-0.1c-0.2-0.1-0.3-0.2-0.4-0.4c-0.1-0.2,0-0.4,0-0.6c0.1-0.3,0.4-0.4,0.7-0.4
				c0.1,0,0.2,0,0.3,0.1c0.4,0.2,0.5,0.6,0.3,1C48.8,89.2,48.5,89.3,48.2,89.3z"/>
			<path class="st1" d="M48.2,87.2c-0.5,0-1,0.3-1.3,0.8c-0.3,0.7-0.1,1.6,0.6,1.9C47.8,90,48,90,48.2,90c0.5,0,1-0.3,1.3-0.8
				c0.3-0.7,0.1-1.6-0.6-1.9C48.7,87.2,48.5,87.2,48.2,87.2L48.2,87.2z"/>
		</g>
	</g>
	<g>
		<g>
			<path class="st1" d="M211.6,66.3c-0.2,0-0.4-0.1-0.6-0.2c-0.5-0.3-0.6-1-0.3-1.5c0.2-0.3,0.5-0.5,0.9-0.5c0.2,0,0.4,0.1,0.6,0.2
				c0.2,0.2,0.4,0.4,0.4,0.7c0,0.3,0,0.6-0.2,0.8C212.3,66.2,212,66.3,211.6,66.3z"/>
			<path class="st1" d="M211.6,64.9c0.1,0,0.2,0,0.2,0.1c0.1,0.1,0.1,0.2,0.2,0.3c0,0.1,0,0.2-0.1,0.3c-0.1,0.1-0.3,0.2-0.3,0.2
				c-0.1,0-0.2,0-0.2-0.1c-0.2-0.1-0.2-0.4-0.1-0.5C211.4,64.9,211.6,64.9,211.6,64.9 M211.6,63.5c-0.5,0-1.1,0.3-1.4,0.7
				c-0.6,0.8-0.4,1.9,0.4,2.4c0.3,0.2,0.7,0.3,1,0.3c0.5,0,1.1-0.3,1.4-0.7c0.6-0.8,0.4-1.9-0.4-2.4C212.3,63.6,212,63.5,211.6,63.5
				L211.6,63.5z"/>
		</g>
		<path class="st0" d="M220.2,71.4l0.2,0c0.2-0.1,0.3-0.1,0.4-0.1c0.1,0,0.3,0,0.4,0c0.1,0.2,0.1,0.4,0.1,0.5
			c-0.1,0.1-0.1,0.3-0.3,0.5c-0.1,0.1-0.1,0.2-0.1,0.3c0,0.1,0,0.2-0.1,0.3c-0.1,0.2-0.1,0.4,0.1,0.5c0.1,0.1,0.2,0.2,0.2,0.3
			c0.1,0.1,0.1,0.2,0.2,0.3c0.1,0.1,0.1,0.1,0.1,0.2c0,0.1,0.1,0.2,0.1,0.2c0.1,0.1,0.1,0.2,0.2,0.4c0,0.1,0,0.2-0.2,0.3
			c-0.1,0.1-0.2,0.1-0.3,0c-0.2-0.1-0.4-0.1-0.6-0.1c-0.2,0-0.4,0-0.5-0.1c-0.1-0.1-0.3,0-0.6,0.1c-0.1,0-0.2,0.1-0.2,0.2
			c-0.1,0.2-0.2,0.3-0.2,0.5c-0.1,0.2-0.2,0.3-0.4,0.5c-0.1,0.1-0.1,0.1-0.2,0c0-0.1-0.1-0.1-0.2,0c0-0.1-0.1-0.1-0.1-0.2
			c-0.1,0-0.1-0.1,0-0.2c0,0,0-0.1,0-0.3l-0.1-0.8c0-0.3-0.1-0.4-0.4-0.4c-0.1,0-0.2-0.1-0.3-0.1c-0.1,0-0.2-0.1-0.3-0.1
			c-0.1,0-0.2-0.1-0.3-0.1c-0.1,0-0.2-0.1-0.3-0.1c-0.3-0.1-0.4-0.3-0.1-0.6c0,0,0.1,0,0.1-0.1c0.2-0.1,0.4-0.2,0.5-0.3
			c0.2-0.1,0.3-0.2,0.5-0.3c0.2-0.1,0.3-0.3,0.2-0.6c0-0.2,0-0.3,0-0.4c0-0.1,0-0.3-0.1-0.4c0,0-0.1-0.1,0-0.1c0-0.1,0-0.1,0-0.2
			c0-0.1,0-0.1,0-0.2c0,0,0-0.1,0-0.2c0.2-0.1,0.4-0.1,0.5,0c0.2,0.1,0.3,0.2,0.4,0.3c0.4,0.4,0.8,0.6,1.1,0.7c0.1,0,0.1,0,0.2,0"/>
		<g>
			<path class="st0" d="M211.3,83.3l0.2-0.1c0.1-0.1,0.2-0.2,0.4-0.2c0.1,0,0.3-0.1,0.4-0.2c0.2,0.2,0.2,0.3,0.2,0.5
				c0,0.2,0,0.3-0.1,0.5c0,0.1,0,0.2,0,0.3c0,0.1,0,0.2,0,0.3c-0.1,0.2,0,0.4,0.2,0.5c0.1,0,0.2,0.1,0.3,0.2
				c0.1,0.1,0.2,0.2,0.3,0.2c0.1,0,0.2,0.1,0.2,0.2c0,0.1,0.1,0.1,0.2,0.2c0.1,0,0.2,0.2,0.3,0.3c0,0.1,0,0.2-0.1,0.3
				c-0.1,0.1-0.2,0.2-0.3,0.1c-0.2,0-0.4,0-0.6,0.1c-0.2,0.1-0.3,0.1-0.5,0.1c-0.1,0-0.3,0.1-0.6,0.2c-0.1,0-0.1,0.1-0.1,0.3
				c0,0.2-0.1,0.4-0.1,0.6c0,0.2-0.1,0.4-0.2,0.6c0,0.1-0.1,0.1-0.2,0.1c-0.1,0-0.1,0-0.2,0c0-0.1-0.1-0.1-0.2-0.1
				c-0.1,0-0.1-0.1-0.1-0.2c0-0.1,0-0.2-0.1-0.3l-0.3-0.8c-0.1-0.3-0.3-0.4-0.5-0.3c-0.1,0-0.2,0-0.3,0c-0.1,0-0.2,0-0.3,0.1
				c-0.1,0-0.2,0-0.3,0c-0.1,0-0.2,0-0.4,0c-0.3,0-0.4-0.2-0.3-0.5c0,0,0,0,0-0.1c0.2-0.2,0.3-0.3,0.4-0.4c0.1-0.1,0.2-0.3,0.4-0.4
				c0.2-0.2,0.2-0.4,0.1-0.6c-0.1-0.1-0.1-0.3-0.1-0.4c0-0.1-0.1-0.2-0.3-0.3c-0.1,0-0.1-0.1-0.1-0.1c0-0.1,0-0.1-0.1-0.2
				c0-0.1,0-0.2,0-0.2c0,0,0-0.1,0-0.2c0.2-0.2,0.3-0.2,0.5-0.2c0.2,0.1,0.3,0.1,0.4,0.2c0.5,0.3,0.9,0.4,1.3,0.3
				c0.1,0,0.1,0,0.2-0.1"/>
			<path class="st0" d="M225.5,83.8l0.2-0.1c0.1-0.1,0.2-0.2,0.4-0.2c0.1,0,0.3-0.1,0.4-0.2c0.2,0.2,0.2,0.3,0.2,0.5
				c0,0.2,0,0.3-0.1,0.5c0,0.1,0,0.2,0,0.3c0,0.1,0,0.2,0,0.3c-0.1,0.2,0,0.4,0.2,0.5c0.1,0,0.2,0.1,0.3,0.2
				c0.1,0.1,0.2,0.2,0.3,0.2c0.1,0,0.2,0.1,0.2,0.2c0,0.1,0.1,0.1,0.2,0.2c0.1,0,0.2,0.2,0.3,0.3c0,0.1,0,0.2-0.1,0.3
				c-0.1,0.1-0.2,0.2-0.3,0.1c-0.2,0-0.4,0-0.6,0.1c-0.2,0.1-0.3,0.1-0.5,0.1c-0.1,0-0.3,0.1-0.6,0.2c-0.1,0-0.1,0.1-0.1,0.3
				c0,0.2-0.1,0.4-0.1,0.6c0,0.2-0.1,0.4-0.2,0.6c0,0.1-0.1,0.1-0.2,0.1c-0.1,0-0.1,0-0.2,0c0-0.1-0.1-0.1-0.2-0.1
				c-0.1,0-0.1-0.1-0.1-0.2c0-0.1,0-0.2-0.1-0.3l-0.3-0.8c-0.1-0.3-0.3-0.4-0.5-0.3c-0.1,0-0.2,0-0.3,0c-0.1,0-0.2,0-0.3,0.1
				c-0.1,0-0.2,0-0.3,0c-0.1,0-0.2,0-0.4,0c-0.3,0-0.4-0.2-0.3-0.5c0,0,0,0,0-0.1c0.2-0.2,0.3-0.3,0.4-0.4c0.1-0.1,0.2-0.3,0.4-0.4
				c0.2-0.2,0.2-0.4,0.1-0.6c-0.1-0.1-0.1-0.3-0.1-0.4c0-0.1-0.1-0.2-0.3-0.3c-0.1,0-0.1-0.1-0.1-0.1c0-0.1,0-0.1-0.1-0.2
				c0-0.1,0-0.2,0-0.2c0,0,0-0.1,0-0.2c0.2-0.2,0.3-0.2,0.5-0.2c0.2,0.1,0.3,0.1,0.4,0.2c0.5,0.3,0.9,0.4,1.3,0.3
				c0.1,0,0.1,0,0.2-0.1"/>
			<g>
				<path class="st1" d="M220,107.9c-0.2,0-0.3,0-0.5-0.1c-0.3-0.1-0.5-0.4-0.6-0.7c-0.1-0.3-0.1-0.6,0.1-0.9c0.2-0.4,0.6-0.6,1-0.6
					c0.2,0,0.3,0,0.5,0.1c0.3,0.1,0.5,0.4,0.6,0.7c0.1,0.3,0.1,0.6-0.1,0.9C220.8,107.7,220.4,107.9,220,107.9z"/>
				<path class="st1" d="M220,106.3c0.1,0,0.1,0,0.2,0c0.1,0.1,0.2,0.2,0.2,0.3c0,0.1,0,0.2,0,0.4c-0.1,0.2-0.3,0.3-0.4,0.3
					c-0.1,0-0.1,0-0.2,0c-0.1-0.1-0.2-0.2-0.2-0.3c0-0.1,0-0.2,0-0.4C219.6,106.4,219.8,106.3,220,106.3 M220,104.9
					c-0.7,0-1.3,0.4-1.6,1c-0.4,0.9-0.1,2,0.8,2.4c0.3,0.1,0.5,0.2,0.8,0.2c0.7,0,1.3-0.4,1.6-1c0.4-0.9,0.1-2-0.8-2.4
					C220.5,105,220.2,104.9,220,104.9L220,104.9z"/>
			</g>
			<g>
				<path class="st1" d="M208.8,108.9c-0.1,0-0.1,0-0.2,0c-0.1-0.1-0.2-0.2-0.2-0.3c0-0.1,0-0.2,0-0.4c0.1-0.2,0.2-0.3,0.4-0.3
					c0.1,0,0.1,0,0.2,0c0.2,0.1,0.3,0.4,0.2,0.6C209.2,108.8,209,108.9,208.8,108.9z"/>
				<path class="st1" d="M208.8,107.2c-0.4,0-0.8,0.2-1,0.6c-0.3,0.6-0.1,1.3,0.5,1.5c0.2,0.1,0.3,0.1,0.5,0.1c0.4,0,0.8-0.2,1-0.6
					c0.3-0.6,0.1-1.3-0.5-1.5C209.2,107.3,209,107.2,208.8,107.2L208.8,107.2z"/>
			</g>
			<g>
				<path class="st1" d="M224.3,99.1c-0.1,0-0.1,0-0.2,0c-0.1-0.1-0.2-0.2-0.2-0.3c0-0.1,0-0.2,0-0.4c0.1-0.2,0.2-0.3,0.4-0.3
					c0.1,0,0.1,0,0.2,0c0.1,0.1,0.2,0.2,0.2,0.3c0,0.1,0,0.2,0,0.4C224.7,99,224.5,99.1,224.3,99.1z"/>
				<path class="st1" d="M224.3,97.5c-0.4,0-0.8,0.2-1,0.6c-0.3,0.6-0.1,1.3,0.5,1.5c0.2,0.1,0.3,0.1,0.5,0.1c0.4,0,0.8-0.2,1-0.6
					c0.3-0.6,0.1-1.3-0.5-1.5C224.7,97.5,224.5,97.5,224.3,97.5L224.3,97.5z"/>
			</g>
		</g>
	</g>
	<g>
		<path class="st0" d="M151.6,208.7l0.2,0c0.2-0.1,0.3-0.1,0.4-0.1c0.1,0,0.3,0,0.4,0c0.1,0.2,0.1,0.4,0,0.5
			c-0.1,0.2-0.2,0.3-0.3,0.5c-0.1,0.1-0.1,0.2-0.1,0.3c0,0.1-0.1,0.2-0.1,0.3c-0.2,0.2-0.1,0.4,0,0.6c0.1,0.1,0.2,0.2,0.2,0.3
			c0,0.1,0.1,0.2,0.2,0.3c0.1,0.1,0.1,0.2,0.1,0.2c0,0.1,0,0.2,0.1,0.2c0.1,0.1,0.1,0.2,0.1,0.4c0,0.1-0.1,0.2-0.2,0.3
			c-0.1,0.1-0.2,0.1-0.3,0c-0.2-0.1-0.4-0.1-0.6-0.1c-0.2,0-0.4-0.1-0.5-0.1c-0.1-0.1-0.3-0.1-0.6,0c-0.1,0-0.2,0.1-0.2,0.2
			c-0.1,0.2-0.2,0.3-0.3,0.5c-0.1,0.2-0.2,0.3-0.5,0.5c-0.1,0.1-0.1,0.1-0.2,0c0-0.1-0.1-0.1-0.2,0c0-0.1,0-0.1-0.1-0.2
			c-0.1,0-0.1-0.1,0-0.2c0,0,0.1-0.1,0-0.3l0-0.9c0-0.3-0.1-0.5-0.3-0.5c-0.1,0-0.2-0.1-0.3-0.1c-0.1-0.1-0.2-0.1-0.3-0.1
			c-0.1,0-0.2-0.1-0.3-0.1c-0.1,0-0.2-0.1-0.4-0.2c-0.3-0.1-0.4-0.3-0.1-0.6c0,0,0.1,0,0.1-0.1c0.2-0.1,0.4-0.2,0.6-0.3
			c0.2-0.1,0.3-0.2,0.6-0.3c0.2-0.1,0.3-0.3,0.3-0.6c0-0.2,0-0.3,0-0.4c0-0.1,0-0.3-0.1-0.4c0,0-0.1-0.1,0-0.2c0-0.1,0-0.1,0-0.2
			c0-0.1,0.1-0.1,0.1-0.2c0,0,0-0.1,0.1-0.2c0.2-0.1,0.4-0.1,0.5,0c0.2,0.1,0.3,0.2,0.4,0.4c0.4,0.4,0.8,0.7,1.1,0.8
			c0.1,0,0.1,0,0.2,0"/>
		<path class="st0" d="M165.4,195.2l0.2,0c0.2-0.1,0.3-0.1,0.4-0.1c0.1,0,0.3,0,0.4,0c0.1,0.2,0.1,0.4,0,0.5
			c-0.1,0.2-0.2,0.3-0.3,0.5c-0.1,0.1-0.1,0.2-0.1,0.3c0,0.1-0.1,0.2-0.1,0.3c-0.2,0.2-0.1,0.4,0,0.6c0.1,0.1,0.2,0.2,0.2,0.3
			c0,0.1,0.1,0.2,0.2,0.3c0.1,0.1,0.1,0.2,0.1,0.2c0,0.1,0,0.2,0.1,0.2c0.1,0.1,0.1,0.2,0.1,0.4c0,0.1-0.1,0.2-0.2,0.3
			c-0.1,0.1-0.2,0.1-0.3,0c-0.2-0.1-0.4-0.1-0.6-0.1c-0.2,0-0.4-0.1-0.5-0.1c-0.1-0.1-0.3-0.1-0.6,0c-0.1,0-0.2,0.1-0.2,0.2
			c-0.1,0.2-0.2,0.3-0.3,0.5c-0.1,0.2-0.2,0.3-0.5,0.5c-0.1,0.1-0.1,0.1-0.2,0c0-0.1-0.1-0.1-0.2,0c0-0.1,0-0.1-0.1-0.2
			c-0.1,0-0.1-0.1,0-0.2c0,0,0.1-0.1,0-0.3l0-0.9c0-0.3-0.1-0.5-0.3-0.5c-0.1,0-0.2-0.1-0.3-0.1c-0.1-0.1-0.2-0.1-0.3-0.1
			c-0.1,0-0.2-0.1-0.3-0.1c-0.1,0-0.2-0.1-0.4-0.2c-0.3-0.1-0.4-0.3-0.1-0.6c0,0,0.1,0,0.1-0.1c0.2-0.1,0.4-0.2,0.6-0.3
			c0.2-0.1,0.3-0.2,0.6-0.3c0.2-0.1,0.3-0.3,0.3-0.6c0-0.2,0-0.3,0-0.4c0-0.1,0-0.3-0.1-0.4c0,0-0.1-0.1,0-0.2c0-0.1,0-0.1,0-0.2
			c0-0.1,0.1-0.1,0.1-0.2c0,0,0-0.1,0.1-0.2c0.2-0.1,0.4-0.1,0.5,0c0.2,0.1,0.3,0.2,0.4,0.4c0.4,0.4,0.8,0.7,1.1,0.8
			c0.1,0,0.1,0,0.2,0"/>
		<g>
			<path class="st1" d="M167.5,230.3c-0.1,0-0.2,0-0.4-0.1c-0.2-0.1-0.3-0.3-0.4-0.5s-0.1-0.4,0-0.6c0.1-0.3,0.4-0.4,0.7-0.4
				c0.1,0,0.2,0,0.4,0.1c0.4,0.2,0.5,0.7,0.4,1.1C168.1,230.1,167.8,230.3,167.5,230.3z"/>
			<path class="st1" d="M167.5,229.4C167.5,229.4,167.5,229.4,167.5,229.4c0.1,0,0.1,0,0.1,0.1c0,0,0,0.1,0,0.1
				c0,0.1-0.1,0.1-0.1,0.1c0,0,0,0-0.1,0c0,0,0,0-0.1-0.1c0,0,0-0.1,0-0.1C167.4,229.4,167.5,229.4,167.5,229.4 M167.5,228
				c-0.5,0-1.1,0.3-1.3,0.8c-0.4,0.7-0.1,1.6,0.7,2c0.2,0.1,0.4,0.2,0.7,0.2c0.5,0,1.1-0.3,1.3-0.8c0.4-0.7,0.1-1.6-0.7-2
				C167.9,228.1,167.7,228,167.5,228L167.5,228z"/>
		</g>
		<g>
			<path class="st1" d="M140.7,198.9c-0.1,0-0.2,0-0.4-0.1c-0.2-0.1-0.3-0.3-0.4-0.5s-0.1-0.4,0-0.6c0.1-0.3,0.4-0.4,0.7-0.4
				c0.1,0,0.2,0,0.4,0.1c0.4,0.2,0.5,0.7,0.4,1.1C141.2,198.7,141,198.9,140.7,198.9z"/>
			<path class="st1" d="M140.7,198C140.7,198,140.7,198,140.7,198c0.1,0,0.1,0,0.1,0.1c0,0,0,0.1,0,0.1c0,0.1-0.1,0.1-0.1,0.1
				c0,0,0,0-0.1,0c0,0,0,0-0.1-0.1c0,0,0-0.1,0-0.1C140.6,198,140.7,198,140.7,198 M140.7,196.6c-0.5,0-1.1,0.3-1.3,0.8
				c-0.4,0.7-0.1,1.6,0.7,2c0.2,0.1,0.4,0.2,0.7,0.2c0.5,0,1.1-0.3,1.3-0.8c0.4-0.7,0.1-1.6-0.7-2
				C141.1,196.7,140.9,196.6,140.7,196.6L140.7,196.6z"/>
		</g>
		<g>
			<path class="st1" d="M151.2,200.5c-0.1,0-0.2,0-0.4-0.1c-0.4-0.2-0.5-0.7-0.4-1.1c0.1-0.3,0.4-0.4,0.7-0.4c0.1,0,0.2,0,0.4,0.1
				c0.4,0.2,0.5,0.7,0.4,1.1C151.7,200.3,151.5,200.5,151.2,200.5z"/>
			<path class="st1" d="M151.2,199.6C151.2,199.6,151.2,199.6,151.2,199.6c0.1,0,0.1,0,0.1,0.1c0,0,0,0.1,0,0.1
				c0,0.1-0.1,0.1-0.1,0.1c0,0,0,0-0.1,0c-0.1,0-0.1-0.1-0.1-0.2C151.1,199.6,151.1,199.6,151.2,199.6 M151.2,198.2
				c-0.5,0-1.1,0.3-1.3,0.8c-0.4,0.7-0.1,1.6,0.7,2c0.2,0.1,0.4,0.2,0.7,0.2c0.5,0,1.1-0.3,1.3-0.8c0.4-0.7,0.1-1.6-0.7-2
				C151.6,198.3,151.4,198.2,151.2,198.2L151.2,198.2z"/>
		</g>
		<g>
			<path class="st1" d="M158.4,223.6c-0.1,0-0.2,0-0.4-0.1c-0.4-0.2-0.5-0.7-0.4-1.1c0.1-0.3,0.4-0.4,0.7-0.4c0.1,0,0.2,0,0.4,0.1
				c0.2,0.1,0.3,0.3,0.4,0.5s0.1,0.4,0,0.6C159,223.4,158.7,223.6,158.4,223.6z"/>
			<path class="st1" d="M158.4,222.7C158.4,222.7,158.4,222.7,158.4,222.7c0.1,0,0.1,0.1,0.1,0.2c0,0.1-0.1,0.1-0.1,0.1
				c0,0,0,0-0.1,0c0,0,0,0-0.1-0.1c0,0,0-0.1,0-0.1C158.3,222.7,158.4,222.7,158.4,222.7 M158.4,221.3c-0.5,0-1.1,0.3-1.3,0.8
				c-0.4,0.7-0.1,1.6,0.7,2c0.2,0.1,0.4,0.2,0.7,0.2c0.5,0,1.1-0.3,1.3-0.8c0.4-0.7,0.1-1.6-0.7-2
				C158.8,221.4,158.6,221.3,158.4,221.3L158.4,221.3z"/>
		</g>
		<g>
			<path class="st1" d="M175.4,221.1c-0.1,0-0.2,0-0.4-0.1c-0.4-0.2-0.5-0.7-0.4-1.1c0.1-0.3,0.4-0.4,0.7-0.4c0.1,0,0.2,0,0.4,0.1
				c0.2,0.1,0.3,0.3,0.4,0.5s0.1,0.4,0,0.6C175.9,220.9,175.7,221.1,175.4,221.1z"/>
			<path class="st1" d="M175.4,220.1C175.4,220.1,175.4,220.2,175.4,220.1c0.1,0,0.1,0.1,0.1,0.2c0,0.1-0.1,0.1-0.1,0.1
				c0,0,0,0-0.1,0c0,0,0,0-0.1-0.1c0,0,0-0.1,0-0.1C175.3,220.2,175.4,220.1,175.4,220.1 M175.4,218.8c-0.5,0-1.1,0.3-1.3,0.8
				c-0.4,0.7-0.1,1.6,0.7,2c0.2,0.1,0.4,0.2,0.7,0.2c0.5,0,1.1-0.3,1.3-0.8c0.4-0.7,0.1-1.6-0.7-2
				C175.8,218.8,175.6,218.8,175.4,218.8L175.4,218.8z"/>
		</g>
		<g>
			<path class="st1" d="M171.1,213.1c-0.1,0-0.2,0-0.2-0.1c-0.3-0.1-0.4-0.4-0.2-0.7c0.1-0.2,0.3-0.3,0.5-0.3c0.1,0,0.2,0,0.2,0.1
				c0.1,0.1,0.2,0.2,0.3,0.3c0,0.1,0,0.3,0,0.4C171.4,213,171.2,213.1,171.1,213.1z"/>
			<path class="st1" d="M171.1,211.4c-0.4,0-0.9,0.2-1.1,0.7c-0.3,0.6-0.1,1.3,0.5,1.6c0.2,0.1,0.4,0.1,0.5,0.1
				c0.4,0,0.9-0.2,1.1-0.7c0.3-0.6,0.1-1.3-0.5-1.6C171.4,211.5,171.2,211.4,171.1,211.4L171.1,211.4z"/>
		</g>
	</g>
	<g>
		<path class="st0" d="M188.3,178.2l0.2,0c0.2-0.1,0.3-0.1,0.4-0.1c0.1,0,0.3,0,0.4,0c0.1,0.2,0.1,0.4,0,0.5
			c-0.1,0.1-0.2,0.3-0.3,0.5c-0.1,0.1-0.1,0.2-0.1,0.3c0,0.1-0.1,0.2-0.1,0.3c-0.2,0.2-0.1,0.4,0,0.5c0.1,0.1,0.2,0.2,0.2,0.3
			c0,0.1,0.1,0.2,0.2,0.3c0.1,0.1,0.1,0.2,0.1,0.2c0,0.1,0,0.2,0.1,0.2c0.1,0.1,0.1,0.2,0.1,0.4c0,0.1-0.1,0.2-0.2,0.3
			c-0.1,0.1-0.2,0.1-0.3,0c-0.2-0.1-0.4-0.1-0.6-0.1c-0.2,0-0.4-0.1-0.5-0.1c-0.1-0.1-0.3-0.1-0.6,0c-0.1,0-0.2,0.1-0.2,0.2
			c-0.1,0.2-0.2,0.3-0.3,0.5c-0.1,0.2-0.2,0.3-0.5,0.5c-0.1,0.1-0.1,0.1-0.2,0c0-0.1-0.1-0.1-0.2,0c0-0.1,0-0.1-0.1-0.2
			c-0.1,0-0.1-0.1,0-0.2c0,0,0.1-0.1,0-0.3l0-0.9c0-0.3-0.1-0.4-0.3-0.5c-0.1,0-0.2-0.1-0.3-0.1c-0.1-0.1-0.2-0.1-0.3-0.1
			c-0.1,0-0.2-0.1-0.3-0.1c-0.1,0-0.2-0.1-0.3-0.2c-0.3-0.1-0.4-0.3-0.1-0.6c0,0,0.1,0,0.1-0.1c0.2-0.1,0.4-0.2,0.5-0.3
			c0.2-0.1,0.3-0.2,0.5-0.3c0.2-0.1,0.3-0.3,0.3-0.6c0-0.2,0-0.3,0-0.4c0-0.1,0-0.3-0.1-0.4c0,0-0.1-0.1,0-0.2c0-0.1,0-0.1,0-0.2
			c0-0.1,0.1-0.1,0.1-0.2c0,0,0-0.1,0.1-0.2c0.2-0.1,0.4-0.1,0.5,0c0.1,0.1,0.3,0.2,0.4,0.3c0.4,0.4,0.7,0.7,1.1,0.7
			c0.1,0,0.1,0,0.2,0"/>
		<g>
			<path class="st1" d="M186,165.5c-0.1,0-0.2,0-0.3-0.1c-0.4-0.2-0.5-0.6-0.3-1c0.1-0.3,0.4-0.4,0.7-0.4c0.1,0,0.2,0,0.3,0.1
				c0.2,0.1,0.3,0.2,0.4,0.4c0.1,0.2,0,0.4,0,0.6C186.5,165.4,186.3,165.5,186,165.5z"/>
			<path class="st1" d="M186,163.4c-0.5,0-1,0.3-1.3,0.8c-0.4,0.7-0.1,1.6,0.6,1.9c0.2,0.1,0.4,0.1,0.6,0.1c0.5,0,1-0.3,1.3-0.8
				c0.4-0.7,0.1-1.6-0.6-1.9C186.4,163.4,186.2,163.4,186,163.4L186,163.4z"/>
		</g>
		<g>
			<path class="st1" d="M209.8,188.8c-0.1,0-0.2,0-0.3-0.1c-0.4-0.2-0.5-0.6-0.3-1c0.1-0.3,0.4-0.4,0.7-0.4c0.1,0,0.2,0,0.3,0.1
				c0.4,0.2,0.5,0.6,0.3,1C210.3,188.6,210.1,188.8,209.8,188.8z"/>
			<path class="st1" d="M209.8,186.6c-0.5,0-1,0.3-1.3,0.8c-0.4,0.7-0.1,1.6,0.6,1.9c0.2,0.1,0.4,0.1,0.6,0.1c0.5,0,1-0.3,1.3-0.8
				c0.4-0.7,0.1-1.6-0.6-1.9C210.2,186.6,210,186.6,209.8,186.6L209.8,186.6z"/>
		</g>
		<g>
			<path class="st1" d="M206.1,201.9c-0.1,0-0.2,0-0.3-0.1c-0.2-0.1-0.3-0.2-0.4-0.4c-0.1-0.2,0-0.4,0-0.6c0.1-0.3,0.4-0.4,0.7-0.4
				c0.1,0,0.2,0,0.3,0.1c0.4,0.2,0.5,0.6,0.3,1C206.6,201.7,206.4,201.9,206.1,201.9z"/>
			<path class="st1" d="M206.1,201L206.1,201c0.1,0,0.1,0.1,0.1,0.1c0,0,0,0-0.1,0c0,0,0,0,0,0C206,201.2,206,201.1,206.1,201
				C206,201,206.1,201,206.1,201 M206.1,199.7c-0.5,0-1,0.3-1.3,0.8c-0.4,0.7-0.1,1.6,0.6,1.9c0.2,0.1,0.4,0.1,0.6,0.1
				c0.5,0,1-0.3,1.3-0.8c0.4-0.7,0.1-1.6-0.6-1.9C206.5,199.7,206.3,199.7,206.1,199.7L206.1,199.7z"/>
		</g>
		<g>
			<path class="st1" d="M195.2,200.2c-0.1,0-0.2,0-0.3-0.1c-0.4-0.2-0.5-0.6-0.3-1c0.1-0.3,0.4-0.4,0.7-0.4c0.1,0,0.2,0,0.3,0.1
				c0.4,0.2,0.5,0.6,0.3,1C195.7,200,195.4,200.2,195.2,200.2z"/>
			<path class="st1" d="M195.2,198c-0.5,0-1,0.3-1.3,0.8c-0.4,0.7-0.1,1.6,0.6,1.9c0.2,0.1,0.4,0.1,0.6,0.1c0.5,0,1-0.3,1.3-0.8
				c0.4-0.7,0.1-1.6-0.6-1.9C195.6,198.1,195.4,198,195.2,198L195.2,198z"/>
		</g>
		<g>
			<path class="st1" d="M191.5,187.8c-0.1,0-0.1,0-0.2-0.1c-0.1-0.1-0.2-0.2-0.2-0.3s0-0.3,0-0.4c0.1-0.2,0.2-0.3,0.4-0.3
				c0.1,0,0.1,0,0.2,0.1c0.2,0.1,0.3,0.4,0.2,0.6C191.9,187.7,191.7,187.8,191.5,187.8z"/>
			<path class="st1" d="M191.5,186.2c-0.4,0-0.8,0.2-1,0.6c-0.3,0.6-0.1,1.3,0.5,1.5c0.2,0.1,0.3,0.1,0.5,0.1c0.4,0,0.8-0.2,1-0.6
				c0.3-0.6,0.1-1.3-0.5-1.5C191.9,186.2,191.7,186.2,191.5,186.2L191.5,186.2z"/>
		</g>
		<g>
			<path class="st1" d="M199.4,206.3c-0.1,0-0.1,0-0.2-0.1c-0.1-0.1-0.2-0.2-0.2-0.3s0-0.3,0-0.4c0.1-0.2,0.2-0.3,0.4-0.3
				c0.1,0,0.1,0,0.2,0.1c0.2,0.1,0.3,0.4,0.2,0.6C199.8,206.2,199.6,206.3,199.4,206.3z"/>
			<path class="st1" d="M199.4,204.7c-0.4,0-0.8,0.2-1,0.6c-0.3,0.6-0.1,1.3,0.5,1.5c0.2,0.1,0.3,0.1,0.5,0.1c0.4,0,0.8-0.2,1-0.6
				c0.3-0.6,0.1-1.3-0.5-1.5C199.8,204.7,199.6,204.7,199.4,204.7L199.4,204.7z"/>
		</g>
	</g>
	<g>
		<path class="st0" d="M205.2,136.2l0.2,0c0.2-0.1,0.3-0.1,0.4-0.1c0.1,0,0.3,0,0.4,0c0.1,0.2,0.1,0.4,0,0.5
			c-0.1,0.2-0.2,0.3-0.3,0.5c-0.1,0.1-0.1,0.2-0.1,0.3c0,0.1-0.1,0.2-0.1,0.3c-0.2,0.2-0.2,0.4,0,0.6c0.1,0.1,0.2,0.2,0.2,0.3
			c0,0.1,0.1,0.2,0.2,0.3c0.1,0.1,0.1,0.2,0.1,0.3c0,0.1,0.1,0.2,0.1,0.3c0.1,0.1,0.1,0.2,0.1,0.4c0,0.1-0.1,0.2-0.2,0.3
			c-0.1,0.1-0.2,0.1-0.3,0c-0.2-0.1-0.4-0.1-0.6-0.1c-0.2,0-0.4-0.1-0.6-0.1c-0.1-0.1-0.3-0.1-0.6,0c-0.1,0-0.2,0.1-0.2,0.2
			c-0.1,0.2-0.2,0.4-0.3,0.5c-0.1,0.2-0.2,0.4-0.5,0.5c-0.1,0.1-0.1,0.1-0.2,0c0-0.1-0.1-0.1-0.2,0c0-0.1,0-0.1-0.1-0.2
			c-0.1,0-0.1-0.1,0-0.2c0,0,0.1-0.2,0-0.3l0-0.9c0-0.3-0.1-0.5-0.3-0.5c-0.1,0-0.2-0.1-0.3-0.1c-0.1-0.1-0.2-0.1-0.4-0.1
			c-0.1,0-0.2-0.1-0.3-0.1c-0.1,0-0.2-0.1-0.4-0.2c-0.3-0.1-0.4-0.3-0.1-0.6c0,0,0.1,0,0.1-0.1c0.2-0.1,0.4-0.2,0.6-0.3
			c0.2-0.1,0.4-0.2,0.6-0.3c0.2-0.1,0.3-0.3,0.3-0.6c0-0.2,0-0.3,0-0.4c0-0.1,0-0.3-0.1-0.4c0,0-0.1-0.1,0-0.2c0-0.1,0-0.1,0-0.2
			c0-0.1,0.1-0.2,0.1-0.2c0,0,0-0.1,0.1-0.2c0.2-0.1,0.4-0.1,0.5,0c0.2,0.1,0.3,0.2,0.4,0.4c0.4,0.5,0.8,0.7,1.1,0.8
			c0.1,0,0.2,0,0.2,0"/>
		<path class="st0" d="M214.4,125l0.2,0c0.2-0.1,0.3-0.1,0.4-0.1c0.1,0,0.3,0,0.4,0c0.1,0.2,0.1,0.4,0,0.5c-0.1,0.2-0.2,0.3-0.3,0.5
			c-0.1,0.1-0.1,0.2-0.1,0.3c0,0.1-0.1,0.2-0.1,0.3c-0.2,0.2-0.2,0.4,0,0.6c0.1,0.1,0.2,0.2,0.2,0.3c0,0.1,0.2,0.9,0.2,1
			c0.1,0.1,0.1,0.2,0.1,0.3c0,0.1,0.1,0.2,0.1,0.3c0.1,0.1,0.1,0.2,0.1,0.4c0,0.1-0.1,0.2-0.2,0.3c-0.1,0.1-0.2,0.1-0.3,0
			c-0.2-0.1-0.4-0.1-0.6-0.1c-0.2,0-0.4-0.1-0.6-0.1c-0.1-0.1-0.3-0.1-0.6,0c-0.1,0-0.2,0.1-0.2,0.2c-0.1,0.2-0.2,0.4-0.3,0.5
			c-0.1,0.2-0.2,0.4-0.5,0.5c-0.1,0.1-0.1,0.1-0.2,0c0-0.1-0.1-0.1-0.2,0c0-0.1,0-0.1-0.1-0.2c-0.1,0-0.1-0.1,0-0.2
			c0,0,0.1-0.2,0-0.3l0-0.9c0-0.3-0.2-1.1-0.4-1.1c-0.1,0-0.2-0.1-0.3-0.1c-0.1-0.1-0.2-0.1-0.4-0.1c-0.1,0-0.2-0.1-0.3-0.1
			c-0.1,0-0.2-0.1-0.4-0.2c-0.3-0.1-0.4-0.3-0.1-0.6c0,0,0.1,0,0.1-0.1c0.2-0.1,0.4-0.2,0.6-0.3c0.2-0.1,0.4-0.2,0.6-0.3
			c0.2-0.1,0.3-0.3,0.3-0.6c0-0.2,0-0.3,0-0.4c0-0.1,0-0.3-0.1-0.4c0,0-0.1-0.1,0-0.2c0-0.1,0-0.1,0-0.2c0-0.1,0.1-0.2,0.1-0.2
			c0,0,0-0.1,0.1-0.2c0.2-0.1,0.4-0.1,0.5,0c0.2,0.1,0.3,0.2,0.4,0.4c0.4,0.5,0.8,0.7,1.1,0.8c0.1,0,0.2,0,0.2,0"/>
		<g>
			<path class="st1" d="M213,162c-0.1,0-0.3,0-0.4-0.1c-0.4-0.2-0.6-0.7-0.4-1.1c0.1-0.3,0.4-0.5,0.7-0.5c0.1,0,0.3,0,0.4,0.1
				c0.4,0.2,0.6,0.7,0.4,1.1C213.6,161.9,213.3,162,213,162z"/>
			<path class="st1" d="M213,161.1C213.1,161.1,213.1,161.1,213,161.1c0.1,0.1,0.2,0.1,0.1,0.2c0,0.1-0.1,0.1-0.1,0.1c0,0,0,0-0.1,0
				c-0.1,0-0.1-0.1-0.1-0.2C212.9,161.1,213,161.1,213,161.1 M213,159.7c-0.6,0-1.1,0.3-1.3,0.8c-0.4,0.7-0.1,1.6,0.7,2
				c0.2,0.1,0.4,0.2,0.7,0.2c0.6,0,1.1-0.3,1.3-0.8c0.4-0.7,0.1-1.6-0.7-2C213.5,159.8,213.3,159.7,213,159.7L213,159.7z"/>
		</g>
		<g>
			<path class="st1" d="M226.5,151c-0.1,0-0.3,0-0.4-0.1c-0.4-0.2-0.6-0.7-0.4-1.1c0.1-0.3,0.4-0.5,0.7-0.5c0.1,0,0.3,0,0.4,0.1
				c0.4,0.2,0.6,0.7,0.4,1.1C227.1,150.8,226.9,151,226.5,151z"/>
			<path class="st1" d="M226.5,150C226.6,150,226.6,150,226.5,150c0.1,0.1,0.2,0.1,0.1,0.2c0,0.1-0.1,0.1-0.1,0.1c0,0,0,0-0.1,0
				c0,0-0.1,0-0.1-0.1c0,0,0-0.1,0-0.1C226.4,150,226.5,150,226.5,150 M226.5,148.6c-0.6,0-1.1,0.3-1.3,0.8c-0.4,0.7-0.1,1.6,0.7,2
				c0.2,0.1,0.4,0.2,0.7,0.2c0.6,0,1.1-0.3,1.3-0.8c0.4-0.7,0.1-1.6-0.7-2C227,148.7,226.8,148.6,226.5,148.6L226.5,148.6z"/>
		</g>
		<g>
			<path class="st1" d="M223.2,138.3c-0.1,0-0.3,0-0.4-0.1c-0.4-0.2-0.6-0.7-0.4-1.1c0.1-0.3,0.4-0.5,0.7-0.5c0.1,0,0.3,0,0.4,0.1
				c0.4,0.2,0.6,0.7,0.4,1.1C223.8,138.1,223.5,138.3,223.2,138.3z"/>
			<path class="st1" d="M223.2,137.3C223.2,137.3,223.2,137.3,223.2,137.3c0.1,0.1,0.2,0.1,0.1,0.2c0,0.1-0.1,0.1-0.1,0.1
				c0,0,0,0-0.1,0c-0.1,0-0.1-0.1-0.1-0.2C223.1,137.3,223.1,137.3,223.2,137.3 M223.2,136c-0.6,0-1.1,0.3-1.3,0.8
				c-0.4,0.7-0.1,1.6,0.7,2c0.2,0.1,0.4,0.2,0.7,0.2c0.6,0,1.1-0.3,1.3-0.8c0.4-0.7,0.1-1.6-0.7-2C223.6,136,223.4,136,223.2,136
				L223.2,136z"/>
		</g>
		<g>
			<path class="st1" d="M215.8,150.2c-0.1,0-0.2,0-0.2-0.1c-0.1-0.1-0.2-0.2-0.3-0.3c0-0.1,0-0.3,0-0.4c0.1-0.2,0.3-0.3,0.5-0.3
				c0.1,0,0.2,0,0.2,0.1c0.1,0.1,0.2,0.2,0.3,0.3c0,0.1,0,0.3,0,0.4C216.2,150.1,216,150.2,215.8,150.2z"/>
			<path class="st1" d="M215.8,148.4c-0.4,0-0.9,0.2-1.1,0.7c-0.3,0.6-0.1,1.3,0.5,1.6c0.2,0.1,0.4,0.1,0.5,0.1
				c0.4,0,0.9-0.2,1.1-0.7c0.3-0.6,0.1-1.3-0.5-1.6C216.2,148.5,216,148.4,215.8,148.4L215.8,148.4z"/>
		</g>
		<g>
			<path class="st1" d="M231.5,153.2c-0.1,0-0.2,0-0.2-0.1c-0.1-0.1-0.2-0.2-0.3-0.3c0-0.1,0-0.3,0-0.4c0.1-0.2,0.3-0.3,0.5-0.3
				c0.1,0,0.2,0,0.2,0.1c0.1,0.1,0.2,0.2,0.3,0.3c0,0.1,0,0.3,0,0.4C231.9,153.1,231.8,153.2,231.5,153.2z"/>
			<path class="st1" d="M231.5,151.5c-0.4,0-0.9,0.2-1.1,0.7c-0.3,0.6-0.1,1.3,0.5,1.6c0.2,0.1,0.4,0.1,0.5,0.1
				c0.4,0,0.9-0.2,1.1-0.7c0.3-0.6,0.1-1.3-0.5-1.6C231.9,151.5,231.7,151.5,231.5,151.5L231.5,151.5z"/>
		</g>
	</g>
</g>
</svg>
